NotoSerifDisplay-SemiBoldItalic.ufo
<glyph name="exclam" format="2">
  <advance width="396"/>
  <unicode hex="0021"/>
  <outline>
    <contour>
      <point x="177" y="228" type="line"/>
      <point x="192" y="228" type="line"/>
      <point x="384" y="714" type="line"/>
      <point x="209" y="714" type="line"/>
    </contour>
    <contour>
      <point x="151" y="-8" type="curve" smooth="yes"/>
      <point x="205" y="-8"/>
      <point x="237" y="33"/>
      <point x="237" y="90" type="curve" smooth="yes"/>
      <point x="237" y="136"/>
      <point x="209" y="154"/>
      <point x="172" y="154" type="curve" smooth="yes"/>
      <point x="121" y="154"/>
      <point x="86" y="115"/>
      <point x="86" y="56" type="curve" smooth="yes"/>
      <point x="86" y="10"/>
      <point x="113" y="-8"/>
    </contour>
  </outline>
</glyph>
<glyph name="numbersign" format="2">
  <advance width="559"/>
  <unicode hex="0023"/>
  <outline>
    <contour>
      <point x="69" y="0" type="line"/>
      <point x="79" y="0" type="line"/>
      <point x="148" y="234" type="line"/>
      <point x="359" y="234" type="line"/>
      <point x="290" y="0" type="line"/>
      <point x="300" y="0" type="line"/>
      <point x="369" y="234" type="line"/>
      <point x="503" y="234" type="line"/>
      <point x="503" y="244" type="line"/>
      <point x="371" y="244" type="line"/>
      <point x="447" y="498" type="line"/>
      <point x="580" y="498" type="line"/>
      <point x="580" y="508" type="line"/>
      <point x="449" y="508" type="line"/>
      <point x="509" y="714" type="line"/>
      <point x="499" y="714" type="line"/>
      <point x="439" y="508" type="line"/>
      <point x="228" y="508" type="line"/>
      <point x="288" y="714" type="line"/>
      <point x="278" y="714" type="line"/>
      <point x="218" y="508" type="line"/>
      <point x="99" y="508" type="line"/>
      <point x="99" y="498" type="line"/>
      <point x="216" y="498" type="line"/>
      <point x="140" y="244" type="line"/>
      <point x="22" y="244" type="line"/>
      <point x="22" y="234" type="line"/>
      <point x="138" y="234" type="line"/>
    </contour>
    <contour>
      <point x="150" y="244" type="line"/>
      <point x="226" y="498" type="line"/>
      <point x="437" y="498" type="line"/>
      <point x="361" y="244" type="line"/>
    </contour>
  </outline>
</glyph>
<glyph name="dollar" format="2">
  <advance width="559"/>
  <unicode hex="0024"/>
  <outline>
    <contour>
      <point x="210" y="-79" type="line"/>
      <point x="220" y="-79" type="line"/>
      <point x="244" y="37" type="line"/>
      <point x="404" y="37"/>
      <point x="503" y="110"/>
      <point x="503" y="230" type="curve" smooth="yes"/>
      <point x="503" y="313"/>
      <point x="467" y="359"/>
      <point x="356" y="419" type="curve" smooth="yes"/>
      <point x="324" y="436" type="line"/>
      <point x="373" y="677" type="line"/>
      <point x="429" y="668"/>
      <point x="444" y="599"/>
      <point x="444" y="497" type="curve"/>
      <point x="529" y="497"/>
      <point x="557" y="530"/>
      <point x="557" y="578" type="curve" smooth="yes"/>
      <point x="557" y="643"/>
      <point x="481" y="684"/>
      <point x="375" y="687" type="curve"/>
      <point x="390" y="760" type="line"/>
      <point x="380" y="760" type="line"/>
      <point x="365" y="687" type="line"/>
      <point x="216" y="687"/>
      <point x="117" y="621"/>
      <point x="117" y="500" type="curve" smooth="yes"/>
      <point x="117" y="416"/>
      <point x="161" y="371"/>
      <point x="244" y="326" type="curve" smooth="yes"/>
      <point x="287" y="303" type="line"/>
      <point x="236" y="47" type="line"/>
      <point x="167" y="52"/>
      <point x="136" y="128"/>
      <point x="136" y="262" type="curve"/>
      <point x="66" y="262"/>
      <point x="25" y="230"/>
      <point x="25" y="172" type="curve" smooth="yes"/>
      <point x="25" y="89"/>
      <point x="110" y="38"/>
      <point x="234" y="38" type="curve"/>
    </contour>
    <contour>
      <point x="246" y="47" type="curve"/>
      <point x="297" y="298" type="line"/>
      <point x="364" y="259"/>
      <point x="383" y="224"/>
      <point x="383" y="184" type="curve" smooth="yes"/>
      <point x="383" y="95"/>
      <point x="331" y="49"/>
    </contour>
    <contour>
      <point x="316" y="441" type="line"/>
      <point x="266" y="466"/>
      <point x="242" y="497"/>
      <point x="242" y="540" type="curve" smooth="yes"/>
      <point x="242" y="635"/>
      <point x="304" y="676"/>
      <point x="363" y="677" type="curve"/>
    </contour>
  </outline>
</glyph>
<glyph name="percent" format="2">
  <advance width="919"/>
  <unicode hex="0025"/>
  <outline>
    <contour>
      <point x="222" y="0" type="line"/>
      <point x="233" y="0" type="line"/>
      <point x="729" y="714" type="line"/>
      <point x="718" y="714" type="line"/>
    </contour>
    <contour>
      <point x="219" y="280" type="curve" smooth="yes"/>
      <point x="383" y="280"/>
      <point x="448" y="460"/>
      <point x="448" y="565" type="curve" smooth="yes"/>
      <point x="448" y="660"/>
      <point x="404" y="724"/>
      <point x="303" y="724" type="curve" smooth="yes"/>
      <point x="130" y="724"/>
      <point x="73" y="556"/>
      <point x="73" y="446" type="curve" smooth="yes"/>
      <point x="73" y="336"/>
      <point x="129" y="280"/>
    </contour>
    <contour>
      <point x="229" y="290" type="curve" smooth="yes"/>
      <point x="196" y="290"/>
      <point x="181" y="328"/>
      <point x="181" y="418" type="curve" smooth="yes"/>
      <point x="181" y="528"/>
      <point x="225" y="715"/>
      <point x="302" y="715" type="curve" smooth="yes"/>
      <point x="331" y="715"/>
      <point x="344" y="679"/>
      <point x="344" y="586" type="curve" smooth="yes"/>
      <point x="344" y="456"/>
      <point x="300" y="290"/>
    </contour>
    <contour>
      <point x="657" y="-10" type="curve" smooth="yes"/>
      <point x="822" y="-10"/>
      <point x="886" y="170"/>
      <point x="886" y="273" type="curve" smooth="yes"/>
      <point x="886" y="370"/>
      <point x="842" y="434"/>
      <point x="741" y="434" type="curve" smooth="yes"/>
      <point x="570" y="434"/>
      <point x="511" y="266"/>
      <point x="511" y="154" type="curve" smooth="yes"/>
      <point x="511" y="46"/>
      <point x="567" y="-10"/>
    </contour>
    <contour>
      <point x="669" y="0" type="curve" smooth="yes"/>
      <point x="629" y="0"/>
      <point x="620" y="42"/>
      <point x="620" y="128" type="curve" smooth="yes"/>
      <point x="620" y="237"/>
      <point x="663" y="425"/>
      <point x="741" y="425" type="curve" smooth="yes"/>
      <point x="769" y="425"/>
      <point x="783" y="388"/>
      <point x="783" y="296" type="curve" smooth="yes"/>
      <point x="783" y="166"/>
      <point x="739" y="0"/>
    </contour>
  </outline>
</glyph>
<glyph name="ampersand" format="2">
  <advance width="801"/>
  <unicode hex="0026"/>
  <outline>
    <contour>
      <point x="277" y="-10" type="curve" smooth="yes"/>
      <point x="375" y="-10"/>
      <point x="445" y="28"/>
      <point x="492" y="69" type="curve"/>
      <point x="542" y="0" type="line"/>
      <point x="739" y="0" type="line"/>
      <point x="741" y="10" type="line"/>
      <point x="735" y="10" type="line" smooth="yes"/>
      <point x="711" y="10"/>
      <point x="701" y="22"/>
      <point x="665" y="68" type="curve" smooth="yes"/>
      <point x="582" y="177" type="line"/>
      <point x="611" y="222"/>
      <point x="641" y="278"/>
      <point x="680" y="349" type="curve" smooth="yes"/>
      <point x="709" y="404"/>
      <point x="725" y="416"/>
      <point x="777" y="416" type="curve" smooth="yes"/>
      <point x="800" y="416" type="line"/>
      <point x="801" y="426" type="line"/>
      <point x="592" y="426" type="line"/>
      <point x="584" y="388" type="line" smooth="yes"/>
      <point x="574" y="340"/>
      <point x="558" y="284"/>
      <point x="538" y="236" type="curve"/>
      <point x="397" y="423" type="line"/>
      <point x="546" y="448"/>
      <point x="607" y="510"/>
      <point x="607" y="594" type="curve" smooth="yes"/>
      <point x="607" y="673"/>
      <point x="549" y="724"/>
      <point x="424" y="724" type="curve" smooth="yes"/>
      <point x="295" y="724"/>
      <point x="205" y="666"/>
      <point x="205" y="545" type="curve" smooth="yes"/>
      <point x="205" y="490"/>
      <point x="227" y="444"/>
      <point x="265" y="384" type="curve"/>
      <point x="117" y="362"/>
      <point x="34" y="290"/>
      <point x="34" y="167" type="curve" smooth="yes"/>
      <point x="34" y="57"/>
      <point x="113" y="-10"/>
    </contour>
    <contour>
      <point x="293" y="0" type="curve" smooth="yes"/>
      <point x="219" y="0"/>
      <point x="182" y="53"/>
      <point x="182" y="170" type="curve" smooth="yes"/>
      <point x="182" y="280"/>
      <point x="214" y="340"/>
      <point x="271" y="375" type="curve"/>
      <point x="461" y="114" type="line"/>
      <point x="424" y="48"/>
      <point x="367" y="0"/>
    </contour>
    <contour>
      <point x="392" y="431" type="curve"/>
      <point x="360" y="477"/>
      <point x="337" y="522"/>
      <point x="337" y="590" type="curve" smooth="yes"/>
      <point x="337" y="675"/>
      <point x="369" y="714"/>
      <point x="420" y="714" type="curve" smooth="yes"/>
      <point x="472" y="714"/>
      <point x="493" y="679"/>
      <point x="493" y="617" type="curve" smooth="yes"/>
      <point x="493" y="543"/>
      <point x="471" y="484"/>
    </contour>
  </outline>
</glyph>
<glyph name="parenleft" format="2">
  <advance width="401"/>
  <unicode hex="0028"/>
  <outline>
    <contour>
      <point x="274" y="-139" type="curve"/>
      <point x="275" y="-131" type="line"/>
      <point x="222" y="-75"/>
      <point x="196" y="3"/>
      <point x="196" y="162" type="curve" smooth="yes"/>
      <point x="196" y="301"/>
      <point x="255" y="648"/>
      <point x="463" y="764" type="curve"/>
      <point x="464" y="772" type="line"/>
      <point x="181" y="706"/>
      <point x="45" y="472"/>
      <point x="45" y="219" type="curve" smooth="yes"/>
      <point x="45" y="58"/>
      <point x="112" y="-83"/>
    </contour>
  </outline>
</glyph>
<glyph name="parenright" format="2">
  <advance width="401"/>
  <unicode hex="0029"/>
  <outline>
    <contour>
      <point x="-43" y="-139" type="line"/>
      <point x="240" y="-73"/>
      <point x="376" y="161"/>
      <point x="376" y="414" type="curve" smooth="yes"/>
      <point x="376" y="575"/>
      <point x="309" y="716"/>
      <point x="147" y="772" type="curve"/>
      <point x="146" y="764" type="line"/>
      <point x="199" y="708"/>
      <point x="225" y="630"/>
      <point x="225" y="471" type="curve" smooth="yes"/>
      <point x="225" y="332"/>
      <point x="166" y="-15"/>
      <point x="-42" y="-131" type="curve"/>
    </contour>
  </outline>
</glyph>
<glyph name="comma" format="2">
  <advance width="289"/>
  <unicode hex="002C"/>
  <outline>
    <contour>
      <point x="-21" y="-141" type="curve"/>
      <point x="-24" y="-151" type="line"/>
      <point x="124" y="-121"/>
      <point x="196" y="-40"/>
      <point x="196" y="62" type="curve" smooth="yes"/>
      <point x="196" y="120"/>
      <point x="159" y="153"/>
      <point x="110" y="153" type="curve" smooth="yes"/>
      <point x="64" y="153"/>
      <point x="33" y="127"/>
      <point x="33" y="84" type="curve" smooth="yes"/>
      <point x="33" y="13"/>
      <point x="109" y="29"/>
      <point x="109" y="-36" type="curve" smooth="yes"/>
      <point x="109" y="-95"/>
      <point x="55" y="-124"/>
    </contour>
  </outline>
</glyph>
<glyph name="two" format="2">
  <advance width="559"/>
  <unicode hex="0032"/>
  <outline>
    <contour>
      <point x="-16" y="0" type="line"/>
      <point x="457" y="0" type="line"/>
      <point x="507" y="210" type="line"/>
      <point x="497" y="210" type="line"/>
      <point x="484" y="171" type="line" smooth="yes"/>
      <point x="471" y="129"/>
      <point x="450" y="110"/>
      <point x="398" y="110" type="curve" smooth="yes"/>
      <point x="36" y="110" type="line"/>
      <point x="360" y="325" type="line" smooth="yes"/>
      <point x="497" y="419"/>
      <point x="560" y="487"/>
      <point x="560" y="579" type="curve" smooth="yes"/>
      <point x="560" y="665"/>
      <point x="484" y="724"/>
      <point x="348" y="724" type="curve" smooth="yes"/>
      <point x="196" y="724"/>
      <point x="113" y="658"/>
      <point x="113" y="579" type="curve" smooth="yes"/>
      <point x="113" y="520"/>
      <point x="162" y="493"/>
      <point x="228" y="493" type="curve"/>
      <point x="239" y="663"/>
      <point x="275" y="714"/>
      <point x="339" y="714" type="curve" smooth="yes"/>
      <point x="387" y="714"/>
      <point x="407" y="685"/>
      <point x="407" y="620" type="curve" smooth="yes"/>
      <point x="407" y="509"/>
      <point x="372" y="396"/>
      <point x="209" y="264" type="curve" smooth="yes"/>
      <point x="4" y="98" type="line"/>
    </contour>
  </outline>
</glyph>
<glyph name="four" format="2">
  <advance width="559"/>
  <unicode hex="0034"/>
  <outline>
    <contour>
      <point x="137" y="0" type="line"/>
      <point x="488" y="0" type="line"/>
      <point x="490" y="10" type="line"/>
      <point x="472" y="10" type="line" smooth="yes"/>
      <point x="432" y="10"/>
      <point x="407" y="16"/>
      <point x="407" y="50" type="curve" smooth="yes"/>
      <point x="407" y="56"/>
      <point x="409" y="74"/>
      <point x="411" y="82" type="curve" smooth="yes"/>
      <point x="545" y="714" type="line"/>
      <point x="402" y="714" type="line"/>
      <point x="22" y="248" type="line"/>
      <point x="8" y="186" type="line"/>
      <point x="536" y="186" type="line"/>
      <point x="550" y="252" type="line"/>
      <point x="32" y="252" type="line"/>
      <point x="32" y="244" type="line"/>
      <point x="300" y="572" type="line" smooth="yes"/>
      <point x="335" y="615"/>
      <point x="370" y="657"/>
      <point x="403" y="701" type="curve"/>
      <point x="383" y="626"/>
      <point x="368" y="559"/>
      <point x="355" y="502" type="curve" smooth="yes"/>
      <point x="263" y="82" type="line" smooth="yes"/>
      <point x="250" y="24"/>
      <point x="220" y="10"/>
      <point x="173" y="10" type="curve" smooth="yes"/>
      <point x="138" y="10" type="line"/>
    </contour>
  </outline>
</glyph>
<glyph name="five" format="2">
  <advance width="559"/>
  <unicode hex="0035"/>
  <outline>
    <contour>
      <point x="192" y="-10" type="curve" smooth="yes"/>
      <point x="384" y="-10"/>
      <point x="496" y="101"/>
      <point x="496" y="247" type="curve" smooth="yes"/>
      <point x="496" y="368"/>
      <point x="406" y="434"/>
      <point x="268" y="434" type="curve" smooth="yes"/>
      <point x="219" y="434"/>
      <point x="159" y="421"/>
      <point x="109" y="372" type="curve"/>
      <point x="178" y="605" type="line"/>
      <point x="490" y="605" type="line" smooth="yes"/>
      <point x="518" y="605"/>
      <point x="524" y="595"/>
      <point x="524" y="580" type="curve" smooth="yes"/>
      <point x="524" y="572"/>
      <point x="522" y="549"/>
      <point x="521" y="532" type="curve"/>
      <point x="531" y="532" type="line"/>
      <point x="560" y="714" type="line"/>
      <point x="200" y="714" type="line"/>
      <point x="94" y="358" type="line"/>
      <point x="103" y="354" type="line"/>
      <point x="151" y="402"/>
      <point x="199" y="418"/>
      <point x="238" y="418" type="curve" smooth="yes"/>
      <point x="313" y="418"/>
      <point x="346" y="369"/>
      <point x="346" y="246" type="curve" smooth="yes"/>
      <point x="346" y="73"/>
      <point x="285" y="0"/>
      <point x="197" y="0" type="curve" smooth="yes"/>
      <point x="111" y="0"/>
      <point x="93" y="80"/>
      <point x="93" y="187" type="curve"/>
      <point x="29" y="187"/>
      <point x="0" y="151"/>
      <point x="0" y="107" type="curve" smooth="yes"/>
      <point x="0" y="43"/>
      <point x="54" y="-10"/>
    </contour>
  </outline>
</glyph>
<glyph name="six" format="2">
  <advance width="559"/>
  <unicode hex="0036"/>
  <outline>
    <contour>
      <point x="267" y="-10" type="curve" smooth="yes"/>
      <point x="449" y="-10"/>
      <point x="533" y="124"/>
      <point x="533" y="264" type="curve" smooth="yes"/>
      <point x="533" y="365"/>
      <point x="477" y="438"/>
      <point x="361" y="438" type="curve" smooth="yes"/>
      <point x="293" y="438"/>
      <point x="245" y="411"/>
      <point x="215" y="388" type="curve"/>
      <point x="273" y="641"/>
      <point x="331" y="714"/>
      <point x="409" y="714" type="curve" smooth="yes"/>
      <point x="464" y="714"/>
      <point x="467" y="653"/>
      <point x="466" y="536" type="curve"/>
      <point x="551" y="536"/>
      <point x="592" y="568"/>
      <point x="592" y="621" type="curve" smooth="yes"/>
      <point x="592" y="676"/>
      <point x="524" y="724"/>
      <point x="411" y="724" type="curve" smooth="yes"/>
      <point x="124" y="724"/>
      <point x="47" y="421"/>
      <point x="47" y="242" type="curve" smooth="yes"/>
      <point x="47" y="60"/>
      <point x="136" y="-10"/>
    </contour>
    <contour>
      <point x="270" y="0" type="curve" smooth="yes"/>
      <point x="219" y="0"/>
      <point x="193" y="35"/>
      <point x="193" y="190" type="curve" smooth="yes"/>
      <point x="193" y="247"/>
      <point x="198" y="306"/>
      <point x="213" y="375" type="curve"/>
      <point x="238" y="397"/>
      <point x="276" y="420"/>
      <point x="311" y="420" type="curve" smooth="yes"/>
      <point x="365" y="420"/>
      <point x="385" y="381"/>
      <point x="385" y="290" type="curve" smooth="yes"/>
      <point x="385" y="89"/>
      <point x="332" y="0"/>
    </contour>
  </outline>
</glyph>
<glyph name="nine" format="2">
  <advance width="559"/>
  <unicode hex="0039"/>
  <outline>
    <contour>
      <point x="175" y="-10" type="curve" smooth="yes"/>
      <point x="464" y="-10"/>
      <point x="549" y="300"/>
      <point x="549" y="488" type="curve" smooth="yes"/>
      <point x="549" y="653"/>
      <point x="458" y="724"/>
      <point x="331" y="724" type="curve" smooth="yes"/>
      <point x="139" y="724"/>
      <point x="68" y="577"/>
      <point x="68" y="451" type="curve" smooth="yes"/>
      <point x="68" y="344"/>
      <point x="126" y="275"/>
      <point x="233" y="275" type="curve" smooth="yes"/>
      <point x="303" y="275"/>
      <point x="356" y="309"/>
      <point x="386" y="344" type="curve"/>
      <point x="327" y="108"/>
      <point x="277" y="0"/>
      <point x="179" y="0" type="curve" smooth="yes"/>
      <point x="114" y="0"/>
      <point x="95" y="55"/>
      <point x="94" y="162" type="curve"/>
      <point x="45" y="162"/>
      <point x="16" y="136"/>
      <point x="16" y="93" type="curve" smooth="yes"/>
      <point x="16" y="37"/>
      <point x="56" y="-10"/>
    </contour>
    <contour>
      <point x="288" y="299" type="curve" smooth="yes"/>
      <point x="239" y="299"/>
      <point x="212" y="325"/>
      <point x="212" y="421" type="curve" smooth="yes"/>
      <point x="212" y="555"/>
      <point x="247" y="714"/>
      <point x="335" y="714" type="curve" smooth="yes"/>
      <point x="384" y="714"/>
      <point x="405" y="671"/>
      <point x="405" y="524" type="curve" smooth="yes"/>
      <point x="405" y="485"/>
      <point x="398" y="405"/>
      <point x="390" y="365" type="curve"/>
      <point x="362" y="326"/>
      <point x="326" y="299"/>
    </contour>
  </outline>
</glyph>
<glyph name="semicolon" format="2">
  <advance width="359"/>
  <unicode hex="003B"/>
  <outline>
    <contour>
      <point x="-16" y="-151" type="line"/>
      <point x="132" y="-121"/>
      <point x="204" y="-40"/>
      <point x="204" y="62" type="curve" smooth="yes"/>
      <point x="204" y="120"/>
      <point x="167" y="153"/>
      <point x="118" y="153" type="curve" smooth="yes"/>
      <point x="72" y="153"/>
      <point x="41" y="127"/>
      <point x="41" y="84" type="curve" smooth="yes"/>
      <point x="41" y="13"/>
      <point x="117" y="29"/>
      <point x="117" y="-36" type="curve" smooth="yes"/>
      <point x="117" y="-95"/>
      <point x="63" y="-124"/>
      <point x="-13" y="-141" type="curve"/>
    </contour>
    <contour>
      <point x="205" y="379" type="curve" smooth="yes"/>
      <point x="259" y="379"/>
      <point x="291" y="420"/>
      <point x="291" y="477" type="curve" smooth="yes"/>
      <point x="291" y="523"/>
      <point x="263" y="541"/>
      <point x="226" y="541" type="curve" smooth="yes"/>
      <point x="175" y="541"/>
      <point x="140" y="502"/>
      <point x="140" y="443" type="curve" smooth="yes"/>
      <point x="140" y="397"/>
      <point x="167" y="379"/>
    </contour>
  </outline>
</glyph>
<glyph name="question" format="2">
  <advance width="535"/>
  <unicode hex="003F"/>
  <outline>
    <contour>
      <point x="219" y="228" type="line"/>
      <point x="231" y="228" type="line"/>
      <point x="292" y="343" type="line"/>
      <point x="431" y="372"/>
      <point x="548" y="442"/>
      <point x="548" y="563" type="curve" smooth="yes"/>
      <point x="548" y="670"/>
      <point x="465" y="724"/>
      <point x="332" y="724" type="curve" smooth="yes"/>
      <point x="190" y="724"/>
      <point x="101" y="676"/>
      <point x="101" y="594" type="curve" smooth="yes"/>
      <point x="101" y="543"/>
      <point x="142" y="517"/>
      <point x="225" y="517" type="curve"/>
      <point x="234" y="658"/>
      <point x="264" y="714"/>
      <point x="327" y="714" type="curve" smooth="yes"/>
      <point x="367" y="714"/>
      <point x="392" y="672"/>
      <point x="392" y="604" type="curve" smooth="yes"/>
      <point x="392" y="457"/>
      <point x="337" y="358"/>
      <point x="199" y="344" type="curve"/>
    </contour>
    <contour>
      <point x="200" y="-8" type="curve" smooth="yes"/>
      <point x="254" y="-8"/>
      <point x="286" y="33"/>
      <point x="286" y="90" type="curve" smooth="yes"/>
      <point x="286" y="136"/>
      <point x="258" y="154"/>
      <point x="221" y="154" type="curve" smooth="yes"/>
      <point x="170" y="154"/>
      <point x="135" y="115"/>
      <point x="135" y="56" type="curve" smooth="yes"/>
      <point x="135" y="10"/>
      <point x="162" y="-8"/>
    </contour>
  </outline>
</glyph>
<glyph name="B" format="2">
  <advance width="691"/>
  <unicode hex="0042"/>
  <anchor x="279" y="0" name="bottom"/>
  <anchor x="431" y="714" name="top"/>
  <anchor x="752" y="714" name="topright"/>
  <outline>
    <contour>
      <point x="-28" y="0" type="line"/>
      <point x="337" y="0" type="line" smooth="yes"/>
      <point x="526" y="0"/>
      <point x="625" y="80"/>
      <point x="625" y="220" type="curve" smooth="yes"/>
      <point x="625" y="314"/>
      <point x="557" y="369"/>
      <point x="421" y="375" type="curve"/>
      <point x="421" y="377" type="line"/>
      <point x="579" y="387"/>
      <point x="667" y="449"/>
      <point x="667" y="564" type="curve" smooth="yes"/>
      <point x="667" y="662"/>
      <point x="597" y="714"/>
      <point x="433" y="714" type="curve" smooth="yes"/>
      <point x="122" y="714" type="line"/>
      <point x="120" y="704" type="line"/>
      <point x="133" y="704" type="line" smooth="yes"/>
      <point x="175" y="704"/>
      <point x="205" y="699"/>
      <point x="205" y="670" type="curve" smooth="yes"/>
      <point x="205" y="665"/>
      <point x="201" y="650"/>
      <point x="199" y="637" type="curve" smooth="yes"/>
      <point x="80" y="70" type="line" smooth="yes"/>
      <point x="69" y="18"/>
      <point x="30" y="10"/>
      <point x="-12" y="10" type="curve" smooth="yes"/>
      <point x="-25" y="10" type="line"/>
    </contour>
    <contour>
      <point x="225" y="10" type="line"/>
      <point x="302" y="371" type="line"/>
      <point x="349" y="371" type="line" smooth="yes"/>
      <point x="417" y="371"/>
      <point x="461" y="338"/>
      <point x="461" y="249" type="curve" smooth="yes"/>
      <point x="461" y="117"/>
      <point x="410" y="10"/>
      <point x="294" y="10" type="curve" smooth="yes"/>
    </contour>
    <contour>
      <point x="304" y="381" type="line"/>
      <point x="371" y="704" type="line"/>
      <point x="405" y="704" type="line" smooth="yes"/>
      <point x="474" y="704"/>
      <point x="502" y="665"/>
      <point x="502" y="587" type="curve" smooth="yes"/>
      <point x="502" y="483"/>
      <point x="461" y="381"/>
      <point x="357" y="381" type="curve" smooth="yes"/>
    </contour>
  </outline>
</glyph>
<glyph name="C" format="2">
  <advance width="669"/>
  <unicode hex="0043"/>
  <anchor x="346" y="0" name="bottom"/>
  <anchor x="498" y="714" name="top"/>
  <anchor x="744" y="714" name="topright"/>
  <outline>
    <contour>
      <point x="367" y="-10" type="curve" smooth="yes"/>
      <point x="518" y="-10"/>
      <point x="601" y="64"/>
      <point x="601" y="131" type="curve" smooth="yes"/>
      <point x="601" y="146"/>
      <point x="589" y="163"/>
      <point x="577" y="165" type="curve"/>
      <point x="541" y="68"/>
      <point x="503" y="3"/>
      <point x="396" y="3" type="curve" smooth="yes"/>
      <point x="286" y="3"/>
      <point x="230" y="76"/>
      <point x="230" y="262" type="curve" smooth="yes"/>
      <point x="230" y="531"/>
      <point x="353" y="717"/>
      <point x="481" y="717" type="curve" smooth="yes"/>
      <point x="562" y="717"/>
      <point x="566" y="642"/>
      <point x="566" y="519" type="curve"/>
      <point x="645" y="519"/>
      <point x="705" y="551"/>
      <point x="705" y="614" type="curve" smooth="yes"/>
      <point x="705" y="681"/>
      <point x="639" y="728"/>
      <point x="494" y="728" type="curve" smooth="yes"/>
      <point x="173" y="728"/>
      <point x="64" y="454"/>
      <point x="64" y="279" type="curve" smooth="yes"/>
      <point x="64" y="88"/>
      <point x="176" y="-10"/>
    </contour>
  </outline>
</glyph>
<glyph name="D" format="2">
  <advance width="773"/>
  <unicode hex="0044"/>
  <anchor x="322" y="0" name="bottom"/>
  <anchor x="417" y="357" name="center"/>
  <anchor x="474" y="714" name="top"/>
  <anchor x="839" y="714" name="topright"/>
  <outline>
    <contour>
      <point x="-29" y="0" type="line"/>
      <point x="308" y="0" type="line" smooth="yes"/>
      <point x="625" y="0"/>
      <point x="745" y="224"/>
      <point x="745" y="442" type="curve" smooth="yes"/>
      <point x="745" y="619"/>
      <point x="643" y="714"/>
      <point x="442" y="714" type="curve" smooth="yes"/>
      <point x="122" y="714" type="line"/>
      <point x="120" y="704" type="line"/>
      <point x="133" y="704" type="line" smooth="yes"/>
      <point x="175" y="704"/>
      <point x="205" y="699"/>
      <point x="205" y="670" type="curve" smooth="yes"/>
      <point x="205" y="662"/>
      <point x="201" y="648"/>
      <point x="198" y="632" type="curve" smooth="yes"/>
      <point x="80" y="70" type="line" smooth="yes"/>
      <point x="69" y="18"/>
      <point x="29" y="10"/>
      <point x="-12" y="10" type="curve" smooth="yes"/>
      <point x="-26" y="10" type="line"/>
    </contour>
    <contour>
      <point x="270" y="10" type="curve" smooth="yes"/>
      <point x="224" y="10" type="line"/>
      <point x="370" y="704" type="line"/>
      <point x="413" y="704" type="line" smooth="yes"/>
      <point x="520" y="704"/>
      <point x="577" y="646"/>
      <point x="577" y="490" type="curve" smooth="yes"/>
      <point x="577" y="253"/>
      <point x="495" y="10"/>
    </contour>
  </outline>
</glyph>
<glyph name="E" format="2">
  <advance width="635"/>
  <unicode hex="0045"/>
  <anchor x="262" y="0" name="bottom"/>
  <anchor x="434" y="714" name="top"/>
  <anchor x="716" y="714" name="topright"/>
  <outline>
    <contour>
      <point x="-28" y="0" type="line"/>
      <point x="547" y="0" type="line"/>
      <point x="593" y="186" type="line"/>
      <point x="583" y="186" type="line"/>
      <point x="567" y="138" type="line" smooth="yes"/>
      <point x="548" y="83"/>
      <point x="506" y="10"/>
      <point x="397" y="10" type="curve" smooth="yes"/>
      <point x="224" y="10" type="line"/>
      <point x="301" y="371" type="line"/>
      <point x="528" y="371" type="line"/>
      <point x="529" y="381" type="line"/>
      <point x="303" y="381" type="line"/>
      <point x="371" y="704" type="line"/>
      <point x="529" y="704" type="line" smooth="yes"/>
      <point x="601" y="704"/>
      <point x="628" y="654"/>
      <point x="628" y="595" type="curve" smooth="yes"/>
      <point x="628" y="575"/>
      <point x="625" y="552"/>
      <point x="621" y="528" type="curve"/>
      <point x="631" y="528" type="line"/>
      <point x="666" y="714" type="line"/>
      <point x="122" y="714" type="line"/>
      <point x="120" y="704" type="line"/>
      <point x="133" y="704" type="line" smooth="yes"/>
      <point x="175" y="704"/>
      <point x="204" y="698"/>
      <point x="204" y="667" type="curve" smooth="yes"/>
      <point x="204" y="659"/>
      <point x="202" y="650"/>
      <point x="200" y="640" type="curve" smooth="yes"/>
      <point x="79" y="70" type="line" smooth="yes"/>
      <point x="68" y="18"/>
      <point x="30" y="10"/>
      <point x="-13" y="10" type="curve" smooth="yes"/>
      <point x="-26" y="10" type="line"/>
    </contour>
  </outline>
</glyph>
<glyph name="F" format="2">
  <advance width="613"/>
  <unicode hex="0046"/>
  <anchor x="144" y="0" name="bottom"/>
  <anchor x="402" y="714" name="top"/>
  <anchor x="692" y="714" name="topright"/>
  <outline>
    <contour>
      <point x="-28" y="0" type="line"/>
      <point x="325" y="0" type="line"/>
      <point x="328" y="10" type="line"/>
      <point x="306" y="10" type="line" smooth="yes"/>
      <point x="259" y="10"/>
      <point x="235" y="18"/>
      <point x="235" y="53" type="curve" smooth="yes"/>
      <point x="235" y="59"/>
      <point x="236" y="67"/>
      <point x="238" y="75" type="curve" smooth="yes"/>
      <point x="296" y="346" type="line"/>
      <point x="534" y="346" type="line"/>
      <point x="536" y="357" type="line"/>
      <point x="298" y="357" type="line"/>
      <point x="372" y="704" type="line"/>
      <point x="523" y="704" type="line" smooth="yes"/>
      <point x="606" y="704"/>
      <point x="637" y="656"/>
      <point x="635" y="588" type="curve" smooth="yes"/>
      <point x="635" y="579"/>
      <point x="632" y="555"/>
      <point x="628" y="528" type="curve"/>
      <point x="638" y="528" type="line"/>
      <point x="673" y="714" type="line"/>
      <point x="122" y="714" type="line"/>
      <point x="120" y="704" type="line"/>
      <point x="133" y="704" type="line" smooth="yes"/>
      <point x="178" y="704"/>
      <point x="201" y="694"/>
      <point x="201" y="658" type="curve" smooth="yes"/>
      <point x="201" y="649"/>
      <point x="199" y="634"/>
      <point x="196" y="620" type="curve" smooth="yes"/>
      <point x="80" y="70" type="line"/>
      <point x="69" y="21"/>
      <point x="41" y="10"/>
      <point x="-13" y="10" type="curve" smooth="yes"/>
      <point x="-26" y="10" type="line"/>
    </contour>
  </outline>
</glyph>
<glyph name="G" format="2">
  <advance width="795"/>
  <unicode hex="0047"/>
  <anchor x="347" y="0" name="bottom"/>
  <anchor x="508" y="714" name="top"/>
  <anchor x="870" y="714" name="topright"/>
  <outline>
    <contour>
      <point x="370" y="-10" type="curve" smooth="yes"/>
      <point x="457" y="-10"/>
      <point x="539" y="5"/>
      <point x="621" y="36" type="curve"/>
      <point x="669" y="260" type="line" smooth="yes"/>
      <point x="680" y="313"/>
      <point x="717" y="321"/>
      <point x="760" y="321" type="curve" smooth="yes"/>
      <point x="765" y="321" type="line"/>
      <point x="766" y="331" type="line"/>
      <point x="433" y="331" type="line"/>
      <point x="431" y="321" type="line"/>
      <point x="444" y="321" type="line" smooth="yes"/>
      <point x="487" y="321"/>
      <point x="516" y="316"/>
      <point x="516" y="287" type="curve" smooth="yes"/>
      <point x="516" y="282"/>
      <point x="513" y="269"/>
      <point x="510" y="253" type="curve" smooth="yes"/>
      <point x="458" y="9" type="line"/>
      <point x="443" y="5"/>
      <point x="422" y="1"/>
      <point x="393" y="1" type="curve" smooth="yes"/>
      <point x="286" y="1"/>
      <point x="231" y="64"/>
      <point x="231" y="220" type="curve" smooth="yes"/>
      <point x="231" y="523"/>
      <point x="358" y="714"/>
      <point x="506" y="714" type="curve" smooth="yes"/>
      <point x="601" y="714"/>
      <point x="615" y="656"/>
      <point x="615" y="512" type="curve"/>
      <point x="694" y="512"/>
      <point x="756" y="536"/>
      <point x="756" y="605" type="curve" smooth="yes"/>
      <point x="756" y="675"/>
      <point x="694" y="724"/>
      <point x="513" y="724" type="curve" smooth="yes"/>
      <point x="176" y="724"/>
      <point x="66" y="481"/>
      <point x="66" y="280" type="curve" smooth="yes"/>
      <point x="66" y="93"/>
      <point x="170" y="-10"/>
    </contour>
  </outline>
</glyph>
<glyph name="H" format="2">
  <advance width="812"/>
  <unicode hex="0048"/>
  <anchor x="354" y="0" name="bottom"/>
  <anchor x="449" y="357" name="center"/>
  <anchor x="506" y="714" name="top"/>
  <anchor x="895" y="714" name="topright"/>
  <outline>
    <contour>
      <point x="-28" y="0" type="line"/>
      <point x="311" y="0" type="line"/>
      <point x="313" y="10" type="line"/>
      <point x="300" y="10" type="line" smooth="yes"/>
      <point x="251" y="10"/>
      <point x="233" y="18"/>
      <point x="233" y="44" type="curve" smooth="yes"/>
      <point x="233" y="49"/>
      <point x="235" y="60"/>
      <point x="238" y="72" type="curve" smooth="yes"/>
      <point x="301" y="368" type="line"/>
      <point x="562" y="368" type="line"/>
      <point x="501" y="82" type="line" smooth="yes"/>
      <point x="487" y="18"/>
      <point x="450" y="10"/>
      <point x="410" y="10" type="curve" smooth="yes"/>
      <point x="397" y="10" type="line"/>
      <point x="395" y="0" type="line"/>
      <point x="735" y="0" type="line"/>
      <point x="737" y="10" type="line"/>
      <point x="724" y="10" type="line" smooth="yes"/>
      <point x="668" y="10"/>
      <point x="652" y="22"/>
      <point x="652" y="44" type="curve" smooth="yes"/>
      <point x="652" y="49"/>
      <point x="653" y="60"/>
      <point x="658" y="82" type="curve" smooth="yes"/>
      <point x="775" y="636" type="line" smooth="yes"/>
      <point x="788" y="696"/>
      <point x="827" y="704"/>
      <point x="871" y="704" type="curve" smooth="yes"/>
      <point x="884" y="704" type="line"/>
      <point x="886" y="714" type="line"/>
      <point x="546" y="714" type="line"/>
      <point x="544" y="704" type="line"/>
      <point x="557" y="704" type="line" smooth="yes"/>
      <point x="609" y="704"/>
      <point x="624" y="693"/>
      <point x="624" y="671" type="curve" smooth="yes"/>
      <point x="624" y="666"/>
      <point x="622" y="654"/>
      <point x="618" y="636" type="curve" smooth="yes"/>
      <point x="563" y="378" type="line"/>
      <point x="303" y="378" type="line"/>
      <point x="357" y="643" type="line" smooth="yes"/>
      <point x="368" y="696"/>
      <point x="405" y="704"/>
      <point x="447" y="704" type="curve" smooth="yes"/>
      <point x="460" y="704" type="line"/>
      <point x="462" y="714" type="line"/>
      <point x="122" y="714" type="line"/>
      <point x="120" y="704" type="line"/>
      <point x="133" y="704" type="line" smooth="yes"/>
      <point x="191" y="704"/>
      <point x="205" y="694"/>
      <point x="205" y="671" type="curve" smooth="yes"/>
      <point x="205" y="667"/>
      <point x="203" y="654"/>
      <point x="199" y="636" type="curve" smooth="yes"/>
      <point x="80" y="70" type="line" smooth="yes"/>
      <point x="69" y="18"/>
      <point x="29" y="10"/>
      <point x="-13" y="10" type="curve" smooth="yes"/>
      <point x="-26" y="10" type="line"/>
    </contour>
  </outline>
</glyph>
<glyph name="J" format="2">
  <advance width="401"/>
  <unicode hex="004A"/>
  <anchor x="-70" y="-240" name="bottom"/>
  <anchor x="296" y="714" name="top"/>
  <anchor x="476" y="714" name="topright"/>
  <outline>
    <contour>
      <point x="-70" y="-240" type="curve" smooth="yes"/>
      <point x="76" y="-240"/>
      <point x="190" y="-175"/>
      <point x="226" y="-3" type="curve" smooth="yes"/>
      <point x="362" y="643" type="line" smooth="yes"/>
      <point x="373" y="696"/>
      <point x="412" y="704"/>
      <point x="457" y="704" type="curve" smooth="yes"/>
      <point x="470" y="704" type="line"/>
      <point x="472" y="714" type="line"/>
      <point x="127" y="714" type="line"/>
      <point x="124" y="704" type="line"/>
      <point x="137" y="704" type="line" smooth="yes"/>
      <point x="179" y="704"/>
      <point x="209" y="699"/>
      <point x="209" y="670" type="curve" smooth="yes"/>
      <point x="209" y="665"/>
      <point x="207" y="654"/>
      <point x="205" y="647" type="curve" smooth="yes"/>
      <point x="62" y="-33" type="line" smooth="yes"/>
      <point x="31" y="-188"/>
      <point x="-19" y="-228"/>
      <point x="-90" y="-228" type="curve" smooth="yes"/>
      <point x="-110" y="-228"/>
      <point x="-137" y="-224"/>
      <point x="-155" y="-219" type="curve"/>
      <point x="-158" y="-229" type="line"/>
      <point x="-132" y="-236"/>
      <point x="-108" y="-240"/>
    </contour>
  </outline>
</glyph>
<glyph name="M" format="2">
  <advance width="946"/>
  <unicode hex="004D"/>
  <anchor x="414" y="0" name="bottom"/>
  <anchor x="566" y="714" name="top"/>
  <anchor x="1022" y="714" name="topright"/>
  <outline>
    <contour>
      <point x="-28" y="0" type="line"/>
      <point x="224" y="0" type="line"/>
      <point x="226" y="10" type="line"/>
      <point x="217" y="10" type="line" smooth="yes"/>
      <point x="153" y="10"/>
      <point x="119" y="14"/>
      <point x="119" y="49" type="curve" smooth="yes"/>
      <point x="119" y="55"/>
      <point x="120" y="66"/>
      <point x="122" y="75" type="curve" smooth="yes"/>
      <point x="250" y="674" type="line"/>
      <point x="354" y="0" type="line"/>
      <point x="401" y="0" type="line"/>
      <point x="762" y="670" type="line"/>
      <point x="636" y="71" type="line" smooth="yes"/>
      <point x="626" y="22"/>
      <point x="599" y="10"/>
      <point x="542" y="10" type="curve" smooth="yes"/>
      <point x="529" y="10" type="line"/>
      <point x="527" y="0" type="line"/>
      <point x="868" y="0" type="line"/>
      <point x="871" y="10" type="line"/>
      <point x="858" y="10" type="line" smooth="yes"/>
      <point x="816" y="10"/>
      <point x="786" y="15"/>
      <point x="786" y="44" type="curve" smooth="yes"/>
      <point x="786" y="49"/>
      <point x="788" y="60"/>
      <point x="790" y="73" type="curve" smooth="yes"/>
      <point x="910" y="643" type="line" smooth="yes"/>
      <point x="921" y="696"/>
      <point x="961" y="704"/>
      <point x="1004" y="704" type="curve" smooth="yes"/>
      <point x="1017" y="704" type="line"/>
      <point x="1019" y="714" type="line"/>
      <point x="774" y="714" type="line"/>
      <point x="478" y="165" type="line"/>
      <point x="399" y="714" type="line"/>
      <point x="122" y="714" type="line"/>
      <point x="120" y="704" type="line"/>
      <point x="155" y="704" type="line" smooth="yes"/>
      <point x="203" y="704"/>
      <point x="237" y="699"/>
      <point x="237" y="670" type="curve" smooth="yes"/>
      <point x="237" y="663"/>
      <point x="235" y="654"/>
      <point x="231" y="636" type="curve" smooth="yes"/>
      <point x="111" y="70" type="line" smooth="yes"/>
      <point x="99" y="18"/>
      <point x="56" y="10"/>
      <point x="9" y="10" type="curve" smooth="yes"/>
      <point x="-26" y="10" type="line"/>
    </contour>
  </outline>
</glyph>
<glyph name="N" format="2">
  <advance width="779"/>
  <unicode hex="004E"/>
  <anchor x="332" y="0" name="bottom"/>
  <anchor x="504" y="714" name="top"/>
  <anchor x="858" y="714" name="topright"/>
  <outline>
    <contour>
      <point x="-28" y="0" type="line"/>
      <point x="224" y="0" type="line"/>
      <point x="226" y="10" type="line"/>
      <point x="217" y="10" type="line" smooth="yes"/>
      <point x="156" y="10"/>
      <point x="116" y="17"/>
      <point x="116" y="45" type="curve" smooth="yes"/>
      <point x="116" y="52"/>
      <point x="117" y="62"/>
      <point x="120" y="77" type="curve" smooth="yes"/>
      <point x="242" y="647" type="line"/>
      <point x="532" y="0" type="line"/>
      <point x="589" y="0" type="line"/>
      <point x="724" y="644" type="line" smooth="yes"/>
      <point x="736" y="699"/>
      <point x="779" y="704"/>
      <point x="825" y="704" type="curve" smooth="yes"/>
      <point x="862" y="704" type="line"/>
      <point x="864" y="714" type="line"/>
      <point x="612" y="714" type="line"/>
      <point x="610" y="704" type="line"/>
      <point x="636" y="704" type="line" smooth="yes"/>
      <point x="688" y="704"/>
      <point x="716" y="696"/>
      <point x="716" y="666" type="curve" smooth="yes"/>
      <point x="716" y="659"/>
      <point x="714" y="648"/>
      <point x="712" y="639" type="curve" smooth="yes"/>
      <point x="612" y="162" type="line"/>
      <point x="375" y="714" type="line"/>
      <point x="122" y="714" type="line"/>
      <point x="120" y="704" type="line"/>
      <point x="155" y="704" type="line" smooth="yes"/>
      <point x="202" y="704"/>
      <point x="235" y="699"/>
      <point x="235" y="670" type="curve" smooth="yes"/>
      <point x="235" y="663"/>
      <point x="232" y="651"/>
      <point x="229" y="636" type="curve" smooth="yes"/>
      <point x="108" y="70" type="line" smooth="yes"/>
      <point x="97" y="17"/>
      <point x="55" y="10"/>
      <point x="8" y="10" type="curve" smooth="yes"/>
      <point x="-26" y="10" type="line"/>
    </contour>
  </outline>
</glyph>
<glyph name="O" format="2">
  <advance width="792"/>
  <unicode hex="004F"/>
  <anchor x="341" y="0" name="bottom"/>
  <anchor x="436" y="357" name="center"/>
  <anchor x="493" y="714" name="top"/>
  <anchor x="868" y="714" name="topright"/>
  <outline>
    <contour>
      <point x="355" y="-11" type="curve" smooth="yes"/>
      <point x="689" y="-11"/>
      <point x="767" y="315"/>
      <point x="767" y="439" type="curve" smooth="yes"/>
      <point x="767" y="647"/>
      <point x="642" y="725"/>
      <point x="486" y="725" type="curve" smooth="yes"/>
      <point x="148" y="725"/>
      <point x="64" y="425"/>
      <point x="64" y="285" type="curve" smooth="yes"/>
      <point x="64" y="75"/>
      <point x="181" y="-11"/>
    </contour>
    <contour>
      <point x="356" y="-1" type="curve" smooth="yes"/>
      <point x="277" y="-1"/>
      <point x="228" y="55"/>
      <point x="228" y="215" type="curve" smooth="yes"/>
      <point x="228" y="470"/>
      <point x="323" y="715"/>
      <point x="486" y="715" type="curve" smooth="yes"/>
      <point x="567" y="715"/>
      <point x="605" y="669"/>
      <point x="605" y="490" type="curve" smooth="yes"/>
      <point x="605" y="269"/>
      <point x="522" y="-1"/>
    </contour>
  </outline>
</glyph>
<glyph name="P" format="2">
  <advance width="657"/>
  <unicode hex="0050"/>
  <anchor x="143" y="0" name="bottom"/>
  <anchor x="422" y="714" name="top"/>
  <anchor x="734" y="714" name="topright"/>
  <outline>
    <contour>
      <point x="-28" y="0" type="line"/>
      <point x="328" y="0" type="line"/>
      <point x="330" y="10" type="line"/>
      <point x="297" y="10" type="line" smooth="yes"/>
      <point x="260" y="10"/>
      <point x="232" y="15"/>
      <point x="232" y="44" type="curve" smooth="yes"/>
      <point x="232" y="51"/>
      <point x="235" y="63"/>
      <point x="238" y="77" type="curve" smooth="yes"/>
      <point x="281" y="273" type="line"/>
      <point x="345" y="273" type="line" smooth="yes"/>
      <point x="615" y="273"/>
      <point x="664" y="420"/>
      <point x="664" y="522" type="curve" smooth="yes"/>
      <point x="664" y="650"/>
      <point x="575" y="714"/>
      <point x="412" y="714" type="curve" smooth="yes"/>
      <point x="122" y="714" type="line"/>
      <point x="120" y="704" type="line"/>
      <point x="133" y="704" type="line" smooth="yes"/>
      <point x="175" y="704"/>
      <point x="205" y="699"/>
      <point x="205" y="670" type="curve" smooth="yes"/>
      <point x="205" y="663"/>
      <point x="203" y="652"/>
      <point x="199" y="636" type="curve" smooth="yes"/>
      <point x="79" y="70" type="line" smooth="yes"/>
      <point x="68" y="18"/>
      <point x="29" y="10"/>
      <point x="-13" y="10" type="curve" smooth="yes"/>
      <point x="-26" y="10" type="line"/>
    </contour>
    <contour>
      <point x="283" y="283" type="line"/>
      <point x="374" y="704" type="line"/>
      <point x="398" y="704" type="line" smooth="yes"/>
      <point x="460" y="704"/>
      <point x="500" y="667"/>
      <point x="500" y="556" type="curve" smooth="yes"/>
      <point x="500" y="439"/>
      <point x="459" y="283"/>
      <point x="312" y="283" type="curve" smooth="yes"/>
    </contour>
  </outline>
</glyph>
<glyph name="Q" format="2">
  <advance width="798"/>
  <unicode hex="0051"/>
  <anchor x="293" y="-234" name="bottom"/>
  <anchor x="417" y="357" name="center"/>
  <anchor x="495" y="714" name="top"/>
  <anchor x="868" y="714" name="topright"/>
  <outline>
    <contour>
      <point x="485" y="-234" type="curve" smooth="yes"/>
      <point x="525" y="-234"/>
      <point x="553" y="-230"/>
      <point x="588" y="-217" type="curve"/>
      <point x="586" y="-207" type="line"/>
      <point x="574" y="-210"/>
      <point x="563" y="-212"/>
      <point x="547" y="-212" type="curve" smooth="yes"/>
      <point x="496" y="-212"/>
      <point x="456" y="-181"/>
      <point x="442" y="-5" type="curve"/>
      <point x="710" y="39"/>
      <point x="772" y="309"/>
      <point x="772" y="423" type="curve" smooth="yes"/>
      <point x="772" y="641"/>
      <point x="642" y="725"/>
      <point x="486" y="725" type="curve" smooth="yes"/>
      <point x="148" y="725"/>
      <point x="69" y="445"/>
      <point x="69" y="305" type="curve" smooth="yes"/>
      <point x="69" y="125"/>
      <point x="150" y="28"/>
      <point x="274" y="-1" type="curve"/>
      <point x="281" y="-168"/>
      <point x="366" y="-234"/>
    </contour>
    <contour>
      <point x="365" y="-1" type="curve" smooth="yes"/>
      <point x="286" y="-1"/>
      <point x="233" y="65"/>
      <point x="233" y="225" type="curve" smooth="yes"/>
      <point x="233" y="480"/>
      <point x="323" y="715"/>
      <point x="486" y="715" type="curve" smooth="yes"/>
      <point x="567" y="715"/>
      <point x="610" y="659"/>
      <point x="610" y="480" type="curve" smooth="yes"/>
      <point x="610" y="259"/>
      <point x="531" y="-1"/>
    </contour>
  </outline>
</glyph>
<glyph name="R" format="2">
  <advance width="723"/>
  <unicode hex="0052"/>
  <anchor x="292" y="0" name="bottom"/>
  <anchor x="434" y="714" name="top"/>
  <anchor x="778" y="714" name="topright"/>
  <outline>
    <contour>
      <point x="-28" y="0" type="line"/>
      <point x="336" y="0" type="line"/>
      <point x="339" y="10" type="line"/>
      <point x="306" y="10" type="line" smooth="yes"/>
      <point x="264" y="10"/>
      <point x="233" y="15"/>
      <point x="233" y="44" type="curve" smooth="yes"/>
      <point x="233" y="51"/>
      <point x="235" y="64"/>
      <point x="239" y="84" type="curve" smooth="yes"/>
      <point x="293" y="338" type="line"/>
      <point x="350" y="338" type="line"/>
      <point x="406" y="130" type="line" smooth="yes"/>
      <point x="436" y="19"/>
      <point x="498" y="0"/>
      <point x="634" y="0" type="curve" smooth="yes"/>
      <point x="661" y="0" type="line"/>
      <point x="663" y="10" type="line"/>
      <point x="656" y="10" type="line" smooth="yes"/>
      <point x="616" y="10"/>
      <point x="606" y="40"/>
      <point x="574" y="126" type="curve" smooth="yes"/>
      <point x="494" y="345" type="line"/>
      <point x="571" y="359"/>
      <point x="682" y="415"/>
      <point x="682" y="547" type="curve" smooth="yes"/>
      <point x="682" y="659"/>
      <point x="603" y="714"/>
      <point x="443" y="714" type="curve" smooth="yes"/>
      <point x="122" y="714" type="line"/>
      <point x="120" y="704" type="line"/>
      <point x="133" y="704" type="line" smooth="yes"/>
      <point x="175" y="704"/>
      <point x="205" y="699"/>
      <point x="205" y="670" type="curve" smooth="yes"/>
      <point x="205" y="665"/>
      <point x="203" y="654"/>
      <point x="199" y="636" type="curve" smooth="yes"/>
      <point x="81" y="84" type="line" smooth="yes"/>
      <point x="66" y="16"/>
      <point x="29" y="10"/>
      <point x="-13" y="10" type="curve" smooth="yes"/>
      <point x="-26" y="10" type="line"/>
    </contour>
    <contour>
      <point x="344" y="348" type="curve" smooth="yes"/>
      <point x="294" y="348" type="line"/>
      <point x="372" y="704" type="line"/>
      <point x="414" y="704" type="line" smooth="yes"/>
      <point x="478" y="704"/>
      <point x="511" y="673"/>
      <point x="511" y="571" type="curve" smooth="yes"/>
      <point x="511" y="429"/>
      <point x="448" y="348"/>
    </contour>
  </outline>
</glyph>
<glyph name="S" format="2">
  <advance width="586"/>
  <unicode hex="0053"/>
  <anchor x="236" y="0" name="bottom"/>
  <anchor x="388" y="714" name="top"/>
  <anchor x="661" y="714" name="topright"/>
  <outline>
    <contour>
      <point x="251" y="-10" type="curve" smooth="yes"/>
      <point x="456" y="-10"/>
      <point x="536" y="107"/>
      <point x="536" y="221" type="curve" smooth="yes"/>
      <point x="536" y="313"/>
      <point x="491" y="365"/>
      <point x="390" y="419" type="curve" smooth="yes"/>
      <point x="301" y="468"/>
      <point x="249" y="493"/>
      <point x="249" y="586" type="curve" smooth="yes"/>
      <point x="249" y="664"/>
      <point x="299" y="714"/>
      <point x="376" y="714" type="curve" smooth="yes"/>
      <point x="467" y="714"/>
      <point x="474" y="638"/>
      <point x="474" y="525" type="curve"/>
      <point x="560" y="525"/>
      <point x="595" y="558"/>
      <point x="595" y="612" type="curve" smooth="yes"/>
      <point x="595" y="675"/>
      <point x="523" y="724"/>
      <point x="378" y="724" type="curve" smooth="yes"/>
      <point x="184" y="724"/>
      <point x="115" y="609"/>
      <point x="115" y="509" type="curve" smooth="yes"/>
      <point x="115" y="406"/>
      <point x="162" y="356"/>
      <point x="270" y="298" type="curve" smooth="yes"/>
      <point x="372" y="243"/>
      <point x="404" y="209"/>
      <point x="404" y="134" type="curve" smooth="yes"/>
      <point x="404" y="75"/>
      <point x="371" y="0"/>
      <point x="264" y="0" type="curve" smooth="yes"/>
      <point x="152" y="0"/>
      <point x="139" y="96"/>
      <point x="139" y="230" type="curve"/>
      <point x="66" y="230"/>
      <point x="14" y="199"/>
      <point x="14" y="136" type="curve" smooth="yes"/>
      <point x="14" y="53"/>
      <point x="96" y="-10"/>
    </contour>
  </outline>
</glyph>
<glyph name="T" format="2">
  <advance width="653"/>
  <unicode hex="0054"/>
  <anchor x="269" y="0" name="bottom"/>
  <anchor x="352" y="357" name="center"/>
  <anchor x="419" y="714" name="top"/>
  <anchor x="724" y="714" name="topright"/>
  <outline>
    <contour>
      <point x="102" y="0" type="line"/>
      <point x="442" y="0" type="line"/>
      <point x="444" y="10" type="line"/>
      <point x="435" y="10" type="line" smooth="yes"/>
      <point x="390" y="10"/>
      <point x="361" y="19"/>
      <point x="361" y="49" type="curve" smooth="yes"/>
      <point x="361" y="55"/>
      <point x="362" y="63"/>
      <point x="366" y="79" type="curve" smooth="yes"/>
      <point x="499" y="704" type="line"/>
      <point x="580" y="704" type="line" smooth="yes"/>
      <point x="657" y="704"/>
      <point x="696" y="674"/>
      <point x="696" y="602" type="curve" smooth="yes"/>
      <point x="696" y="583"/>
      <point x="691" y="542"/>
      <point x="687" y="520" type="curve"/>
      <point x="697" y="520" type="line"/>
      <point x="732" y="714" type="line"/>
      <point x="110" y="714" type="line"/>
      <point x="64" y="520" type="line"/>
      <point x="74" y="520" type="line"/>
      <point x="91" y="573" type="line" smooth="yes"/>
      <point x="118" y="662"/>
      <point x="181" y="704"/>
      <point x="265" y="704" type="curve" smooth="yes"/>
      <point x="340" y="704" type="line"/>
      <point x="207" y="72" type="line" smooth="yes"/>
      <point x="197" y="25"/>
      <point x="159" y="10"/>
      <point x="112" y="10" type="curve" smooth="yes"/>
      <point x="103" y="10" type="line"/>
    </contour>
  </outline>
</glyph>
<glyph name="X" format="2">
  <advance width="733"/>
  <unicode hex="0058"/>
  <anchor x="310" y="0" name="bottom"/>
  <anchor x="462" y="714" name="top"/>
  <anchor x="838" y="714" name="topright"/>
  <outline>
    <contour>
      <point x="-42" y="0" type="line"/>
      <point x="202" y="0" type="line"/>
      <point x="204" y="10" type="line"/>
      <point x="160" y="11" type="line" smooth="yes"/>
      <point x="115" y="11"/>
      <point x="101" y="24"/>
      <point x="101" y="43" type="curve" smooth="yes"/>
      <point x="101" y="62"/>
      <point x="116" y="81"/>
      <point x="140" y="108" type="curve" smooth="yes"/>
      <point x="373" y="359" type="line"/>
      <point x="331" y="320" type="line"/>
      <point x="405" y="126" type="line" smooth="yes"/>
      <point x="421" y="84"/>
      <point x="428" y="64"/>
      <point x="428" y="45" type="curve" smooth="yes"/>
      <point x="428" y="23"/>
      <point x="412" y="10"/>
      <point x="372" y="10" type="curve" smooth="yes"/>
      <point x="342" y="10" type="line"/>
      <point x="340" y="0" type="line"/>
      <point x="671" y="0" type="line"/>
      <point x="673" y="10" type="line"/>
      <point x="659" y="10" type="line" smooth="yes"/>
      <point x="637" y="10"/>
      <point x="622" y="22"/>
      <point x="606" y="63" type="curve" smooth="yes"/>
      <point x="465" y="422" type="line"/>
      <point x="425" y="373" type="line"/>
      <point x="656" y="633" type="line" smooth="yes"/>
      <point x="705" y="688"/>
      <point x="745" y="704"/>
      <point x="787" y="704" type="curve" smooth="yes"/>
      <point x="796" y="704" type="line"/>
      <point x="798" y="714" type="line"/>
      <point x="570" y="714" type="line"/>
      <point x="568" y="704" type="line"/>
      <point x="578" y="704" type="line" smooth="yes"/>
      <point x="640" y="704"/>
      <point x="659" y="696"/>
      <point x="659" y="673" type="curve" smooth="yes"/>
      <point x="659" y="656"/>
      <point x="646" y="638"/>
      <point x="629" y="618" type="curve" smooth="yes"/>
      <point x="423" y="386" type="line"/>
      <point x="463" y="426" type="line"/>
      <point x="394" y="616" type="line" smooth="yes"/>
      <point x="383" y="645"/>
      <point x="376" y="663"/>
      <point x="376" y="676" type="curve" smooth="yes"/>
      <point x="376" y="694"/>
      <point x="390" y="704"/>
      <point x="423" y="704" type="curve" smooth="yes"/>
      <point x="460" y="704" type="line"/>
      <point x="462" y="714" type="line"/>
      <point x="130" y="714" type="line"/>
      <point x="128" y="704" type="line"/>
      <point x="142" y="704" type="line" smooth="yes"/>
      <point x="168" y="704"/>
      <point x="183" y="698"/>
      <point x="201" y="653" type="curve" smooth="yes"/>
      <point x="330" y="323" type="line"/>
      <point x="371" y="373" type="line"/>
      <point x="103" y="82" type="line" smooth="yes"/>
      <point x="51" y="25"/>
      <point x="16" y="10"/>
      <point x="-30" y="10" type="curve" smooth="yes"/>
      <point x="-40" y="10" type="line"/>
    </contour>
  </outline>
</glyph>
<glyph name="Y" format="2">
  <advance width="693"/>
  <unicode hex="0059"/>
  <anchor x="289" y="0" name="bottom"/>
  <anchor x="441" y="714" name="top"/>
  <anchor x="827" y="714" name="topright"/>
  <outline>
    <contour>
      <point x="107" y="0" type="line"/>
      <point x="476" y="0" type="line"/>
      <point x="478" y="10" type="line"/>
      <point x="454" y="10" type="line" smooth="yes"/>
      <point x="412" y="10"/>
      <point x="381" y="15"/>
      <point x="381" y="44" type="curve" smooth="yes"/>
      <point x="381" y="49"/>
      <point x="383" y="58"/>
      <point x="386" y="72" type="curve" smooth="yes"/>
      <point x="426" y="267" type="line"/>
      <point x="662" y="639" type="line" smooth="yes"/>
      <point x="692" y="687"/>
      <point x="715" y="704"/>
      <point x="752" y="704" type="curve" smooth="yes"/>
      <point x="785" y="704" type="line"/>
      <point x="787" y="714" type="line"/>
      <point x="538" y="714" type="line"/>
      <point x="537" y="704" type="line"/>
      <point x="596" y="704" type="line" smooth="yes"/>
      <point x="640" y="704"/>
      <point x="655" y="695"/>
      <point x="655" y="671" type="curve" smooth="yes"/>
      <point x="655" y="654"/>
      <point x="649" y="637"/>
      <point x="630" y="607" type="curve" smooth="yes"/>
      <point x="484" y="374" type="line" smooth="yes"/>
      <point x="456" y="331"/>
      <point x="438" y="304"/>
      <point x="423" y="279" type="curve"/>
      <point x="416" y="314"/>
      <point x="406" y="347"/>
      <point x="393" y="392" type="curve" smooth="yes"/>
      <point x="334" y="610" type="line" smooth="yes"/>
      <point x="325" y="640"/>
      <point x="322" y="663"/>
      <point x="322" y="675" type="curve" smooth="yes"/>
      <point x="322" y="693"/>
      <point x="334" y="704"/>
      <point x="363" y="704" type="curve" smooth="yes"/>
      <point x="419" y="704" type="line"/>
      <point x="421" y="714" type="line"/>
      <point x="95" y="714" type="line"/>
      <point x="93" y="704" type="line"/>
      <point x="106" y="704" type="line" smooth="yes"/>
      <point x="136" y="704"/>
      <point x="144" y="691"/>
      <point x="156" y="651" type="curve" smooth="yes"/>
      <point x="270" y="279" type="line"/>
      <point x="227" y="71" type="line" smooth="yes"/>
      <point x="215" y="19"/>
      <point x="178" y="10"/>
      <point x="136" y="10" type="curve" smooth="yes"/>
      <point x="109" y="10" type="line"/>
    </contour>
  </outline>
</glyph>
<glyph name="bracketright" format="2">
  <advance width="368"/>
  <unicode hex="005D"/>
  <outline>
    <contour>
      <point x="-53" y="-128" type="line"/>
      <point x="224" y="-128" type="line"/>
      <point x="413" y="760" type="line"/>
      <point x="135" y="760" type="line"/>
      <point x="134" y="750" type="line"/>
      <point x="177" y="750" type="line" smooth="yes"/>
      <point x="215" y="750"/>
      <point x="245" y="744"/>
      <point x="245" y="703" type="curve" smooth="yes"/>
      <point x="245" y="696"/>
      <point x="243" y="680"/>
      <point x="240" y="663" type="curve" smooth="yes"/>
      <point x="89" y="-46" type="line" smooth="yes"/>
      <point x="77" y="-103"/>
      <point x="46" y="-118"/>
      <point x="-8" y="-118" type="curve" smooth="yes"/>
      <point x="-51" y="-118" type="line"/>
    </contour>
  </outline>
</glyph>
<glyph name="grave" format="2">
  <advance width="306"/>
  <unicode hex="0060"/>
  <outline>
    <contour>
      <point x="327" y="606" type="curve"/>
      <point x="338" y="606" type="line"/>
      <point x="340" y="614" type="line"/>
      <point x="314" y="651"/>
      <point x="283" y="724"/>
      <point x="268" y="766" type="curve"/>
      <point x="147" y="766" type="line"/>
      <point x="144" y="756" type="line"/>
      <point x="174" y="713"/>
      <point x="269" y="638"/>
    </contour>
  </outline>
</glyph>
<glyph name="c" format="2">
  <advance width="519"/>
  <unicode hex="0063"/>
  <anchor x="228" y="0" name="bottom"/>
  <anchor x="348" y="536" name="top"/>
  <anchor x="560" y="536" name="topright"/>
  <outline>
    <contour>
      <point x="268" y="-10" type="curve" smooth="yes"/>
      <point x="404" y="-10"/>
      <point x="453" y="54"/>
      <point x="453" y="106" type="curve" smooth="yes"/>
      <point x="453" y="130"/>
      <point x="440" y="142"/>
      <point x="426" y="148" type="curve"/>
      <point x="399" y="36"/>
      <point x="341" y="3"/>
      <point x="296" y="3" type="curve" smooth="yes"/>
      <point x="226" y="3"/>
      <point x="188" y="53"/>
      <point x="188" y="173" type="curve" smooth="yes"/>
      <point x="188" y="314"/>
      <point x="245" y="534"/>
      <point x="336" y="534" type="curve" smooth="yes"/>
      <point x="377" y="534"/>
      <point x="398" y="500"/>
      <point x="398" y="413" type="curve" smooth="yes"/>
      <point x="398" y="389"/>
      <point x="397" y="371"/>
      <point x="396" y="356" type="curve"/>
      <point x="493" y="356"/>
      <point x="523" y="393"/>
      <point x="523" y="440" type="curve" smooth="yes"/>
      <point x="523" y="497"/>
      <point x="475" y="546"/>
      <point x="348" y="546" type="curve" smooth="yes"/>
      <point x="120" y="546"/>
      <point x="35" y="335"/>
      <point x="35" y="209" type="curve" smooth="yes"/>
      <point x="35" y="56"/>
      <point x="128" y="-10"/>
    </contour>
  </outline>
</glyph>
<glyph name="d" format="2">
  <advance width="643"/>
  <unicode hex="0064"/>
  <anchor x="267" y="0" name="bottom"/>
  <anchor x="381" y="268" name="center"/>
  <anchor x="429" y="760" name="top"/>
  <anchor x="701" y="760" name="topright"/>
  <outline>
    <contour>
      <point x="177" y="-10" type="curve" smooth="yes"/>
      <point x="259" y="-10"/>
      <point x="325" y="33"/>
      <point x="369" y="168" type="curve"/>
      <point x="373" y="168" type="line"/>
      <point x="369" y="146"/>
      <point x="366" y="122"/>
      <point x="366" y="85" type="curve" smooth="yes"/>
      <point x="366" y="21"/>
      <point x="406" y="-10"/>
      <point x="465" y="-10" type="curve" smooth="yes"/>
      <point x="534" y="-10"/>
      <point x="582" y="18"/>
      <point x="622" y="50" type="curve"/>
      <point x="616" y="59" type="line"/>
      <point x="598" y="44"/>
      <point x="566" y="23"/>
      <point x="540" y="23" type="curve" smooth="yes"/>
      <point x="515" y="23"/>
      <point x="502" y="43"/>
      <point x="502" y="82" type="curve" smooth="yes"/>
      <point x="502" y="110"/>
      <point x="515" y="173"/>
      <point x="522" y="203" type="curve" smooth="yes"/>
      <point x="641" y="760" type="line"/>
      <point x="401" y="760" type="line"/>
      <point x="399" y="750" type="line"/>
      <point x="416" y="750" type="line" smooth="yes"/>
      <point x="460" y="750"/>
      <point x="474" y="740"/>
      <point x="474" y="713" type="curve" smooth="yes"/>
      <point x="474" y="701"/>
      <point x="471" y="684"/>
      <point x="467" y="665" type="curve" smooth="yes"/>
      <point x="450" y="582" type="line" smooth="yes"/>
      <point x="448" y="570"/>
      <point x="442" y="541"/>
      <point x="439" y="524" type="curve"/>
      <point x="414" y="539"/>
      <point x="386" y="546"/>
      <point x="342" y="546" type="curve" smooth="yes"/>
      <point x="113" y="546"/>
      <point x="31" y="319"/>
      <point x="31" y="186" type="curve" smooth="yes"/>
      <point x="31" y="56"/>
      <point x="90" y="-10"/>
    </contour>
    <contour>
      <point x="242" y="24" type="curve" smooth="yes"/>
      <point x="211" y="24"/>
      <point x="184" y="58"/>
      <point x="184" y="140" type="curve" smooth="yes"/>
      <point x="184" y="322"/>
      <point x="258" y="533"/>
      <point x="372" y="533" type="curve" smooth="yes"/>
      <point x="397" y="533"/>
      <point x="420" y="523"/>
      <point x="435" y="510" type="curve"/>
      <point x="369" y="203" type="line" smooth="yes"/>
      <point x="353" y="130"/>
      <point x="302" y="24"/>
    </contour>
  </outline>
</glyph>
<glyph name="e" format="2">
  <advance width="524"/>
  <unicode hex="0065"/>
  <anchor x="230" y="0" name="bottom"/>
  <anchor x="355" y="536" name="top"/>
  <anchor x="571" y="536" name="topright"/>
  <outline>
    <contour>
      <point x="260" y="-10" type="curve" smooth="yes"/>
      <point x="393" y="-10"/>
      <point x="454" y="57"/>
      <point x="454" y="107" type="curve" smooth="yes"/>
      <point x="454" y="132"/>
      <point x="445" y="143"/>
      <point x="432" y="147" type="curve"/>
      <point x="406" y="61"/>
      <point x="361" y="1"/>
      <point x="283" y="1" type="curve" smooth="yes"/>
      <point x="221" y="1"/>
      <point x="186" y="56"/>
      <point x="186" y="187" type="curve" smooth="yes"/>
      <point x="186" y="200"/>
      <point x="188" y="233"/>
      <point x="190" y="248" type="curve"/>
      <point x="227" y="248" type="line" smooth="yes"/>
      <point x="398" y="248"/>
      <point x="525" y="324"/>
      <point x="525" y="428" type="curve" smooth="yes"/>
      <point x="525" y="506"/>
      <point x="467" y="546"/>
      <point x="369" y="546" type="curve" smooth="yes"/>
      <point x="117" y="546"/>
      <point x="33" y="331"/>
      <point x="33" y="197" type="curve" smooth="yes"/>
      <point x="33" y="57"/>
      <point x="115" y="-10"/>
    </contour>
    <contour>
      <point x="192" y="258" type="line"/>
      <point x="217" y="415"/>
      <point x="266" y="533"/>
      <point x="333" y="533" type="curve" smooth="yes"/>
      <point x="366" y="533"/>
      <point x="383" y="514"/>
      <point x="383" y="454" type="curve" smooth="yes"/>
      <point x="383" y="343"/>
      <point x="305" y="258"/>
      <point x="209" y="258" type="curve" smooth="yes"/>
    </contour>
  </outline>
</glyph>
<glyph name="g" format="2">
  <advance width="580"/>
  <unicode hex="0067"/>
  <anchor x="174" y="-240" name="bottom"/>
  <anchor x="339" y="536" name="top"/>
  <anchor x="665" y="536" name="topright"/>
  <outline>
    <contour>
      <point x="167" y="-240" type="curve" smooth="yes"/>
      <point x="397" y="-240"/>
      <point x="473" y="-129"/>
      <point x="473" y="-38" type="curve" smooth="yes"/>
      <point x="473" y="47"/>
      <point x="416" y="89"/>
      <point x="307" y="99" type="curve" smooth="yes"/>
      <point x="208" y="109" type="line" smooth="yes"/>
      <point x="157" y="114"/>
      <point x="135" y="122"/>
      <point x="135" y="147" type="curve" smooth="yes"/>
      <point x="135" y="167"/>
      <point x="150" y="181"/>
      <point x="184" y="196" type="curve"/>
      <point x="199" y="193"/>
      <point x="242" y="189"/>
      <point x="258" y="189" type="curve" smooth="yes"/>
      <point x="432" y="189"/>
      <point x="499" y="308"/>
      <point x="499" y="403" type="curve" smooth="yes"/>
      <point x="499" y="458"/>
      <point x="477" y="484"/>
      <point x="461" y="500" type="curve"/>
      <point x="475" y="515"/>
      <point x="491" y="522"/>
      <point x="507" y="522" type="curve" smooth="yes"/>
      <point x="540" y="522"/>
      <point x="555" y="502"/>
      <point x="555" y="458" type="curve"/>
      <point x="604" y="458"/>
      <point x="619" y="496"/>
      <point x="619" y="529" type="curve" smooth="yes"/>
      <point x="619" y="558"/>
      <point x="599" y="582"/>
      <point x="559" y="582" type="curve" smooth="yes"/>
      <point x="511" y="582"/>
      <point x="477" y="540"/>
      <point x="454" y="506" type="curve"/>
      <point x="428" y="528"/>
      <point x="384" y="546"/>
      <point x="322" y="546" type="curve" smooth="yes"/>
      <point x="145" y="546"/>
      <point x="80" y="427"/>
      <point x="80" y="333" type="curve" smooth="yes"/>
      <point x="80" y="261"/>
      <point x="114" y="220"/>
      <point x="171" y="199" type="curve"/>
      <point x="75" y="179"/>
      <point x="43" y="134"/>
      <point x="43" y="86" type="curve" smooth="yes"/>
      <point x="43" y="47"/>
      <point x="64" y="17"/>
      <point x="119" y="-4" type="curve"/>
      <point x="-1" y="-10"/>
      <point x="-66" y="-54"/>
      <point x="-66" y="-123" type="curve" smooth="yes"/>
      <point x="-66" y="-191"/>
      <point x="5" y="-240"/>
    </contour>
    <contour>
      <point x="176" y="-230" type="curve" smooth="yes"/>
      <point x="87" y="-230"/>
      <point x="47" y="-191"/>
      <point x="47" y="-128" type="curve" smooth="yes"/>
      <point x="47" y="-64"/>
      <point x="81" y="-28"/>
      <point x="130" y="-9" type="curve"/>
      <point x="228" y="-20" type="line" smooth="yes"/>
      <point x="307" y="-29"/>
      <point x="350" y="-47"/>
      <point x="350" y="-106" type="curve" smooth="yes"/>
      <point x="350" y="-180"/>
      <point x="280" y="-230"/>
    </contour>
    <contour>
      <point x="261" y="199" type="curve" smooth="yes"/>
      <point x="223" y="199"/>
      <point x="210" y="239"/>
      <point x="210" y="309" type="curve" smooth="yes"/>
      <point x="210" y="399"/>
      <point x="249" y="536"/>
      <point x="319" y="536" type="curve" smooth="yes"/>
      <point x="354" y="536"/>
      <point x="366" y="510"/>
      <point x="366" y="430" type="curve" smooth="yes"/>
      <point x="366" y="338"/>
      <point x="330" y="199"/>
    </contour>
  </outline>
</glyph>
<glyph name="h" format="2">
  <advance width="672"/>
  <unicode hex="0068"/>
  <anchor x="285" y="0" name="bottom"/>
  <anchor x="399" y="268" name="center"/>
  <anchor x="447" y="760" name="top"/>
  <anchor x="645" y="760" name="topright"/>
  <outline>
    <contour>
      <point x="496" y="-10" type="curve" smooth="yes"/>
      <point x="569" y="-10"/>
      <point x="621" y="25"/>
      <point x="653" y="59" type="curve"/>
      <point x="647" y="67" type="line"/>
      <point x="621" y="42"/>
      <point x="594" y="23"/>
      <point x="569" y="23" type="curve" smooth="yes"/>
      <point x="541" y="23"/>
      <point x="527" y="42"/>
      <point x="527" y="78" type="curve" smooth="yes"/>
      <point x="527" y="106"/>
      <point x="533" y="139"/>
      <point x="541" y="175" type="curve" smooth="yes"/>
      <point x="573" y="318" type="line" smooth="yes"/>
      <point x="581" y="353"/>
      <point x="591" y="397"/>
      <point x="591" y="431" type="curve" smooth="yes"/>
      <point x="591" y="496"/>
      <point x="557" y="546"/>
      <point x="473" y="546" type="curve" smooth="yes"/>
      <point x="374" y="546"/>
      <point x="319" y="486"/>
      <point x="273" y="394" type="curve"/>
      <point x="270" y="394" type="line"/>
      <point x="277" y="421"/>
      <point x="296" y="499"/>
      <point x="305" y="539" type="curve" smooth="yes"/>
      <point x="352" y="760" type="line"/>
      <point x="110" y="760" type="line"/>
      <point x="109" y="750" type="line"/>
      <point x="127" y="750" type="line" smooth="yes"/>
      <point x="168" y="750"/>
      <point x="183" y="738"/>
      <point x="183" y="710" type="curve" smooth="yes"/>
      <point x="183" y="701"/>
      <point x="180" y="684"/>
      <point x="175" y="665" type="curve" smooth="yes"/>
      <point x="35" y="0" type="line"/>
      <point x="185" y="0" type="line"/>
      <point x="258" y="320" type="line" smooth="yes"/>
      <point x="279" y="410"/>
      <point x="347" y="512"/>
      <point x="403" y="512" type="curve" smooth="yes"/>
      <point x="436" y="512"/>
      <point x="441" y="480"/>
      <point x="441" y="446" type="curve" smooth="yes"/>
      <point x="441" y="408"/>
      <point x="429" y="355"/>
      <point x="423" y="329" type="curve" smooth="yes"/>
      <point x="396" y="212" type="line" smooth="yes"/>
      <point x="384" y="161"/>
      <point x="379" y="134"/>
      <point x="379" y="98" type="curve" smooth="yes"/>
      <point x="379" y="31"/>
      <point x="420" y="-10"/>
    </contour>
  </outline>
</glyph>
<glyph name="i" format="2">
  <advance width="357"/>
  <unicode hex="0069"/>
  <anchor x="121" y="0" name="bottom"/>
  <anchor x="284" y="770" name="top"/>
  <anchor x="441" y="770" name="topright"/>
  <outline>
    <contour>
      <point x="185" y="-10" type="curve" smooth="yes"/>
      <point x="258" y="-10"/>
      <point x="306" y="25"/>
      <point x="338" y="59" type="curve"/>
      <point x="332" y="68" type="line"/>
      <point x="309" y="47"/>
      <point x="281" y="25"/>
      <point x="251" y="25" type="curve" smooth="yes"/>
      <point x="224" y="25"/>
      <point x="213" y="42"/>
      <point x="212" y="76" type="curve" smooth="yes"/>
      <point x="212" y="99"/>
      <point x="219" y="142"/>
      <point x="226" y="174" type="curve" smooth="yes"/>
      <point x="303" y="536" type="line"/>
      <point x="67" y="536" type="line"/>
      <point x="65" y="526" type="line"/>
      <point x="83" y="526" type="line" smooth="yes"/>
      <point x="121" y="526"/>
      <point x="136" y="518"/>
      <point x="136" y="489" type="curve" smooth="yes"/>
      <point x="136" y="475"/>
      <point x="133" y="458"/>
      <point x="129" y="441" type="curve" smooth="yes"/>
      <point x="84" y="223" type="line" smooth="yes"/>
      <point x="73" y="171"/>
      <point x="66" y="138"/>
      <point x="66" y="99" type="curve" smooth="yes"/>
      <point x="66" y="27"/>
      <point x="109" y="-10"/>
    </contour>
    <contour>
      <point x="235" y="626" type="curve" smooth="yes"/>
      <point x="277" y="626"/>
      <point x="318" y="651"/>
      <point x="318" y="705" type="curve" smooth="yes"/>
      <point x="318" y="751"/>
      <point x="285" y="766"/>
      <point x="248" y="766" type="curve" smooth="yes"/>
      <point x="205" y="766"/>
      <point x="167" y="745"/>
      <point x="167" y="686" type="curve" smooth="yes"/>
      <point x="167" y="644"/>
      <point x="196" y="626"/>
    </contour>
  </outline>
</glyph>
<glyph name="j" format="2">
  <advance width="339"/>
  <unicode hex="006A"/>
  <anchor x="-41" y="-240" name="bottom"/>
  <anchor x="277" y="770" name="top"/>
  <anchor x="425" y="770" name="topright"/>
  <outline>
    <contour>
      <point x="-41" y="-240" type="curve" smooth="yes"/>
      <point x="60" y="-240"/>
      <point x="152" y="-175"/>
      <point x="190" y="2" type="curve" smooth="yes"/>
      <point x="303" y="536" type="line"/>
      <point x="67" y="536" type="line"/>
      <point x="66" y="526" type="line"/>
      <point x="84" y="526" type="line" smooth="yes"/>
      <point x="122" y="526"/>
      <point x="136" y="517"/>
      <point x="136" y="486" type="curve" smooth="yes"/>
      <point x="136" y="474"/>
      <point x="133" y="459"/>
      <point x="129" y="441" type="curve" smooth="yes"/>
      <point x="29" y="-35" type="line" smooth="yes"/>
      <point x="0" y="-179"/>
      <point x="-28" y="-225"/>
      <point x="-92" y="-225" type="curve" smooth="yes"/>
      <point x="-106" y="-225"/>
      <point x="-128" y="-221"/>
      <point x="-137" y="-218" type="curve"/>
      <point x="-140" y="-228" type="line"/>
      <point x="-112" y="-235"/>
      <point x="-83" y="-240"/>
    </contour>
    <contour>
      <point x="235" y="626" type="curve" smooth="yes"/>
      <point x="286" y="626"/>
      <point x="318" y="650"/>
      <point x="318" y="705" type="curve" smooth="yes"/>
      <point x="318" y="751"/>
      <point x="285" y="766"/>
      <point x="248" y="766" type="curve" smooth="yes"/>
      <point x="205" y="766"/>
      <point x="167" y="745"/>
      <point x="167" y="686" type="curve" smooth="yes"/>
      <point x="167" y="643"/>
      <point x="196" y="626"/>
    </contour>
  </outline>
</glyph>
<glyph name="k" format="2">
  <advance width="624"/>
  <unicode hex="006B"/>
  <anchor x="255" y="0" name="bottom"/>
  <anchor x="417" y="760" name="top"/>
  <anchor x="645" y="760" name="topright"/>
  <outline>
    <contour>
      <point x="528" y="-6" type="curve" smooth="yes"/>
      <point x="575" y="-6" type="line"/>
      <point x="578" y="4" type="line"/>
      <point x="549" y="4"/>
      <point x="535" y="18"/>
      <point x="510" y="74" type="curve" smooth="yes"/>
      <point x="382" y="364" type="line"/>
      <point x="330" y="313" type="line"/>
      <point x="471" y="436" type="line" smooth="yes"/>
      <point x="539" y="494"/>
      <point x="597" y="526"/>
      <point x="646" y="526" type="curve"/>
      <point x="648" y="536" type="line"/>
      <point x="396" y="536" type="line"/>
      <point x="394" y="526" type="line"/>
      <point x="458" y="526"/>
      <point x="489" y="518"/>
      <point x="489" y="492" type="curve" smooth="yes"/>
      <point x="489" y="467"/>
      <point x="466" y="445"/>
      <point x="422" y="407" type="curve" smooth="yes"/>
      <point x="235" y="244" type="line"/>
      <point x="252" y="310"/>
      <point x="280" y="436"/>
      <point x="294" y="498" type="curve" smooth="yes"/>
      <point x="351" y="760" type="line"/>
      <point x="110" y="760" type="line"/>
      <point x="108" y="750" type="line"/>
      <point x="130" y="750" type="line" smooth="yes"/>
      <point x="164" y="750"/>
      <point x="182" y="744"/>
      <point x="182" y="712" type="curve" smooth="yes"/>
      <point x="182" y="702"/>
      <point x="179" y="685"/>
      <point x="175" y="665" type="curve" smooth="yes"/>
      <point x="34" y="0" type="line"/>
      <point x="184" y="0" type="line"/>
      <point x="232" y="229" type="line"/>
      <point x="316" y="302" type="line"/>
      <point x="270" y="265" type="line"/>
      <point x="333" y="105" type="line" smooth="yes"/>
      <point x="368" y="16"/>
      <point x="413" y="-6"/>
    </contour>
  </outline>
</glyph>
<glyph name="l" format="2">
  <advance width="354"/>
  <unicode hex="006C"/>
  <anchor x="134" y="0" name="bottom"/>
  <anchor x="248" y="268" name="center"/>
  <anchor x="296" y="760" name="top"/>
  <anchor x="452" y="760" name="topright"/>
  <outline>
    <contour>
      <point x="179" y="-10" type="curve" smooth="yes"/>
      <point x="252" y="-10"/>
      <point x="303" y="27"/>
      <point x="335" y="59" type="curve"/>
      <point x="329" y="68" type="line"/>
      <point x="306" y="47"/>
      <point x="276" y="25"/>
      <point x="249" y="25" type="curve" smooth="yes"/>
      <point x="220" y="25"/>
      <point x="210" y="42"/>
      <point x="209" y="76" type="curve" smooth="yes"/>
      <point x="209" y="99"/>
      <point x="216" y="142"/>
      <point x="223" y="174" type="curve" smooth="yes"/>
      <point x="350" y="760" type="line"/>
      <point x="110" y="760" type="line"/>
      <point x="108" y="750" type="line"/>
      <point x="129" y="750" type="line" smooth="yes"/>
      <point x="167" y="750"/>
      <point x="182" y="738"/>
      <point x="182" y="711" type="curve" smooth="yes"/>
      <point x="182" y="701"/>
      <point x="179" y="681"/>
      <point x="175" y="663" type="curve" smooth="yes"/>
      <point x="82" y="228" type="line" smooth="yes"/>
      <point x="71" y="175"/>
      <point x="63" y="133"/>
      <point x="63" y="98" type="curve" smooth="yes"/>
      <point x="63" y="29"/>
      <point x="100" y="-10"/>
    </contour>
  </outline>
</glyph>
<glyph name="m" format="2">
  <advance width="971"/>
  <unicode hex="006D"/>
  <anchor x="428" y="0" name="bottom"/>
  <anchor x="542" y="536" name="top"/>
  <anchor x="1007" y="536" name="topright"/>
  <outline>
    <contour>
      <point x="793" y="-9" type="curve" smooth="yes"/>
      <point x="869" y="-9"/>
      <point x="920" y="25"/>
      <point x="952" y="59" type="curve"/>
      <point x="946" y="67" type="line"/>
      <point x="927" y="49"/>
      <point x="897" y="23"/>
      <point x="866" y="23" type="curve" smooth="yes"/>
      <point x="841" y="23"/>
      <point x="826" y="42"/>
      <point x="826" y="79" type="curve" smooth="yes"/>
      <point x="826" y="107"/>
      <point x="832" y="139"/>
      <point x="840" y="175" type="curve" smooth="yes"/>
      <point x="873" y="321" type="line" smooth="yes"/>
      <point x="881" y="356"/>
      <point x="890" y="403"/>
      <point x="890" y="439" type="curve" smooth="yes"/>
      <point x="890" y="501"/>
      <point x="859" y="549"/>
      <point x="772" y="549" type="curve" smooth="yes"/>
      <point x="681" y="549"/>
      <point x="632" y="505"/>
      <point x="585" y="408" type="curve"/>
      <point x="583" y="408" type="line"/>
      <point x="583" y="414"/>
      <point x="583" y="426"/>
      <point x="583" y="435" type="curve" smooth="yes"/>
      <point x="583" y="498"/>
      <point x="553" y="549"/>
      <point x="467" y="549" type="curve" smooth="yes"/>
      <point x="392" y="549"/>
      <point x="334" y="516"/>
      <point x="282" y="412" type="curve"/>
      <point x="279" y="412" type="line"/>
      <point x="299" y="536" type="line"/>
      <point x="67" y="536" type="line"/>
      <point x="66" y="526" type="line"/>
      <point x="84" y="526" type="line" smooth="yes"/>
      <point x="119" y="526"/>
      <point x="137" y="518"/>
      <point x="137" y="489" type="curve" smooth="yes"/>
      <point x="137" y="478"/>
      <point x="133" y="458"/>
      <point x="130" y="441" type="curve" smooth="yes"/>
      <point x="37" y="0" type="line"/>
      <point x="187" y="0" type="line"/>
      <point x="264" y="332" type="line" smooth="yes"/>
      <point x="280" y="403"/>
      <point x="334" y="509"/>
      <point x="396" y="509" type="curve" smooth="yes"/>
      <point x="429" y="509"/>
      <point x="436" y="479"/>
      <point x="436" y="449" type="curve" smooth="yes"/>
      <point x="436" y="427"/>
      <point x="429" y="376"/>
      <point x="418" y="329" type="curve" smooth="yes"/>
      <point x="392" y="218" type="line" smooth="yes"/>
      <point x="378" y="157"/>
      <point x="355" y="53"/>
      <point x="350" y="0" type="curve"/>
      <point x="504" y="0" type="line"/>
      <point x="508" y="48"/>
      <point x="522" y="128"/>
      <point x="537" y="192" type="curve" smooth="yes"/>
      <point x="570" y="336" type="line" smooth="yes"/>
      <point x="584" y="398"/>
      <point x="639" y="512"/>
      <point x="702" y="512" type="curve" smooth="yes"/>
      <point x="740" y="512"/>
      <point x="742" y="475"/>
      <point x="742" y="447" type="curve" smooth="yes"/>
      <point x="742" y="411"/>
      <point x="729" y="356"/>
      <point x="723" y="330" type="curve" smooth="yes"/>
      <point x="695" y="213" type="line" smooth="yes"/>
      <point x="684" y="168"/>
      <point x="677" y="132"/>
      <point x="677" y="99" type="curve" smooth="yes"/>
      <point x="677" y="30"/>
      <point x="715" y="-9"/>
    </contour>
  </outline>
</glyph>
<glyph name="p" format="2">
  <advance width="629"/>
  <unicode hex="0070"/>
  <anchor x="92" y="-240" name="bottom"/>
  <anchor x="384" y="536" name="top"/>
  <anchor x="667" y="536" name="topright"/>
  <outline>
    <contour>
      <point x="-15" y="-240" type="line"/>
      <point x="239" y="-240" type="line"/>
      <point x="241" y="-230" type="line"/>
      <point x="208" y="-230" type="line" smooth="yes"/>
      <point x="170" y="-230"/>
      <point x="150" y="-224"/>
      <point x="150" y="-192" type="curve" smooth="yes"/>
      <point x="150" y="-180"/>
      <point x="153" y="-161"/>
      <point x="156" y="-145" type="curve" smooth="yes"/>
      <point x="178" y="-35" type="line" smooth="yes"/>
      <point x="183" y="-12"/>
      <point x="185" y="0"/>
      <point x="189" y="18" type="curve"/>
      <point x="211" y="2"/>
      <point x="240" y="-10"/>
      <point x="285" y="-10" type="curve" smooth="yes"/>
      <point x="500" y="-10"/>
      <point x="601" y="211"/>
      <point x="601" y="365" type="curve" smooth="yes"/>
      <point x="601" y="491"/>
      <point x="538" y="546"/>
      <point x="452" y="546" type="curve" smooth="yes"/>
      <point x="350" y="546"/>
      <point x="297" y="483"/>
      <point x="261" y="381" type="curve"/>
      <point x="257" y="381" type="line"/>
      <point x="284" y="536" type="line"/>
      <point x="67" y="536" type="line"/>
      <point x="65" y="526" type="line"/>
      <point x="84" y="526" type="line" smooth="yes"/>
      <point x="122" y="526"/>
      <point x="137" y="517"/>
      <point x="137" y="487" type="curve" smooth="yes"/>
      <point x="137" y="479"/>
      <point x="134" y="462"/>
      <point x="130" y="441" type="curve" smooth="yes"/>
    </contour>
    <contour>
      <point x="261" y="3" type="curve" smooth="yes"/>
      <point x="229" y="3"/>
      <point x="205" y="16"/>
      <point x="193" y="29" type="curve"/>
      <point x="261" y="348" type="line" smooth="yes"/>
      <point x="276" y="417"/>
      <point x="327" y="511"/>
      <point x="384" y="511" type="curve" smooth="yes"/>
      <point x="429" y="511"/>
      <point x="444" y="468"/>
      <point x="444" y="393" type="curve" smooth="yes"/>
      <point x="444" y="224"/>
      <point x="374" y="3"/>
    </contour>
  </outline>
</glyph>
<glyph name="q" format="2">
  <advance width="615"/>
  <unicode hex="0071"/>
  <anchor x="196" y="-240" name="bottom"/>
  <anchor x="361" y="536" name="top"/>
  <anchor x="656" y="536" name="topright"/>
  <outline>
    <contour>
      <point x="287" y="-240" type="line"/>
      <point x="522" y="-240" type="line"/>
      <point x="524" y="-229" type="line"/>
      <point x="493" y="-229" type="line" smooth="yes"/>
      <point x="459" y="-229"/>
      <point x="439" y="-220"/>
      <point x="439" y="-191" type="curve" smooth="yes"/>
      <point x="439" y="-182"/>
      <point x="442" y="-163"/>
      <point x="446" y="-144" type="curve" smooth="yes"/>
      <point x="592" y="546" type="line"/>
      <point x="549" y="546" type="line"/>
      <point x="446" y="517" type="line"/>
      <point x="427" y="532"/>
      <point x="399" y="546"/>
      <point x="339" y="546" type="curve" smooth="yes"/>
      <point x="121" y="546"/>
      <point x="28" y="312"/>
      <point x="28" y="173" type="curve" smooth="yes"/>
      <point x="28" y="68"/>
      <point x="76" y="-10"/>
      <point x="174" y="-10" type="curve" smooth="yes"/>
      <point x="263" y="-10"/>
      <point x="318" y="32"/>
      <point x="364" y="160" type="curve"/>
      <point x="368" y="160" type="line"/>
      <point x="362" y="132"/>
      <point x="333" y="1"/>
      <point x="325" y="-40" type="curve" smooth="yes"/>
    </contour>
    <contour>
      <point x="245" y="23" type="curve" smooth="yes"/>
      <point x="209" y="23"/>
      <point x="182" y="53"/>
      <point x="182" y="146" type="curve" smooth="yes"/>
      <point x="182" y="329"/>
      <point x="254" y="533"/>
      <point x="371" y="533" type="curve" smooth="yes"/>
      <point x="398" y="533"/>
      <point x="419" y="524"/>
      <point x="434" y="511" type="curve"/>
      <point x="369" y="210" type="line" smooth="yes"/>
      <point x="351" y="126"/>
      <point x="297" y="23"/>
    </contour>
  </outline>
</glyph>
<glyph name="r" format="2">
  <advance width="546"/>
  <unicode hex="0072"/>
  <anchor x="109" y="0" name="bottom"/>
  <anchor x="334" y="536" name="top"/>
  <anchor x="590" y="536" name="topright"/>
  <outline>
    <contour>
      <point x="38" y="0" type="line"/>
      <point x="188" y="0" type="line"/>
      <point x="258" y="308" type="line" smooth="yes"/>
      <point x="284" y="422"/>
      <point x="331" y="510"/>
      <point x="383" y="510" type="curve" smooth="yes"/>
      <point x="416" y="510"/>
      <point x="434" y="491"/>
      <point x="434" y="426" type="curve" smooth="yes"/>
      <point x="434" y="409"/>
      <point x="433" y="388"/>
      <point x="430" y="364" type="curve"/>
      <point x="505" y="364"/>
      <point x="549" y="395"/>
      <point x="549" y="461" type="curve" smooth="yes"/>
      <point x="549" y="514"/>
      <point x="515" y="546"/>
      <point x="443" y="546" type="curve" smooth="yes"/>
      <point x="355" y="546"/>
      <point x="307" y="495"/>
      <point x="268" y="379" type="curve"/>
      <point x="265" y="379" type="line"/>
      <point x="291" y="536" type="line"/>
      <point x="67" y="536" type="line"/>
      <point x="65" y="526" type="line"/>
      <point x="85" y="526" type="line" smooth="yes"/>
      <point x="117" y="526"/>
      <point x="138" y="516"/>
      <point x="138" y="491" type="curve" smooth="yes"/>
      <point x="138" y="477"/>
      <point x="135" y="459"/>
      <point x="131" y="440" type="curve" smooth="yes"/>
    </contour>
  </outline>
</glyph>
<glyph name="s" format="2">
  <advance width="514"/>
  <unicode hex="0073"/>
  <anchor x="201" y="0" name="bottom"/>
  <anchor x="315" y="536" name="top"/>
  <anchor x="551" y="536" name="topright"/>
  <outline>
    <contour>
      <point x="206" y="-10" type="curve" smooth="yes"/>
      <point x="378" y="-10"/>
      <point x="449" y="74"/>
      <point x="449" y="175" type="curve" smooth="yes"/>
      <point x="449" y="250"/>
      <point x="409" y="286"/>
      <point x="315" y="327" type="curve" smooth="yes"/>
      <point x="234" y="362"/>
      <point x="205" y="388"/>
      <point x="205" y="440" type="curve" smooth="yes"/>
      <point x="205" y="494"/>
      <point x="238" y="536"/>
      <point x="294" y="536" type="curve" smooth="yes"/>
      <point x="352" y="536"/>
      <point x="373" y="496"/>
      <point x="373" y="422" type="curve" smooth="yes"/>
      <point x="373" y="408"/>
      <point x="372" y="393"/>
      <point x="371" y="376" type="curve"/>
      <point x="441" y="376"/>
      <point x="488" y="399"/>
      <point x="488" y="452" type="curve" smooth="yes"/>
      <point x="488" y="501"/>
      <point x="444" y="546"/>
      <point x="304" y="546" type="curve" smooth="yes"/>
      <point x="154" y="546"/>
      <point x="78" y="478"/>
      <point x="78" y="381" type="curve" smooth="yes"/>
      <point x="78" y="298"/>
      <point x="129" y="260"/>
      <point x="215" y="224" type="curve" smooth="yes"/>
      <point x="297" y="190"/>
      <point x="327" y="162"/>
      <point x="327" y="103" type="curve" smooth="yes"/>
      <point x="327" y="45"/>
      <point x="295" y="0"/>
      <point x="227" y="0" type="curve" smooth="yes"/>
      <point x="161" y="0"/>
      <point x="122" y="48"/>
      <point x="122" y="149" type="curve" smooth="yes"/>
      <point x="122" y="160"/>
      <point x="123" y="172"/>
      <point x="124" y="185" type="curve"/>
      <point x="61" y="185"/>
      <point x="17" y="162"/>
      <point x="17" y="100" type="curve" smooth="yes"/>
      <point x="17" y="31"/>
      <point x="97" y="-10"/>
    </contour>
  </outline>
</glyph>
<glyph name="t" format="2">
  <advance width="417"/>
  <unicode hex="0074"/>
  <anchor x="180" y="0" name="bottom"/>
  <anchor x="284" y="268" name="center"/>
  <anchor x="298" y="687" name="top"/>
  <anchor x="454" y="701" name="topright"/>
  <outline>
    <contour>
      <point x="195" y="-10" type="curve" smooth="yes"/>
      <point x="268" y="-10"/>
      <point x="317" y="11"/>
      <point x="371" y="53" type="curve"/>
      <point x="367" y="62" type="line"/>
      <point x="334" y="36"/>
      <point x="299" y="16"/>
      <point x="260" y="16" type="curve" smooth="yes"/>
      <point x="224" y="16"/>
      <point x="211" y="41"/>
      <point x="211" y="71" type="curve" smooth="yes"/>
      <point x="211" y="101"/>
      <point x="220" y="149"/>
      <point x="226" y="178" type="curve" smooth="yes"/>
      <point x="303" y="526" type="line"/>
      <point x="425" y="526" type="line"/>
      <point x="426" y="536" type="line"/>
      <point x="305" y="536" type="line"/>
      <point x="340" y="701" type="line"/>
      <point x="332" y="701" type="line"/>
      <point x="291" y="587"/>
      <point x="193" y="536"/>
      <point x="70" y="536" type="curve"/>
      <point x="68" y="526" type="line"/>
      <point x="150" y="526" type="line"/>
      <point x="77" y="191" type="line" smooth="yes"/>
      <point x="70" y="161"/>
      <point x="66" y="135"/>
      <point x="66" y="103" type="curve" smooth="yes"/>
      <point x="67" y="31"/>
      <point x="118" y="-10"/>
    </contour>
  </outline>
</glyph>
<glyph name="x" format="2">
  <advance width="594"/>
  <unicode hex="0078"/>
  <anchor x="245" y="0" name="bottom"/>
  <anchor x="359" y="536" name="top"/>
  <anchor x="641" y="536" name="topright"/>
  <outline>
    <contour>
      <point x="-22" y="0" type="line"/>
      <point x="85" y="0" type="line"/>
      <point x="247" y="228" type="line"/>
      <point x="326" y="0" type="line"/>
      <point x="527" y="0" type="line"/>
      <point x="529" y="10" type="line"/>
      <point x="519" y="10" type="line" smooth="yes"/>
      <point x="493" y="10"/>
      <point x="482" y="18"/>
      <point x="456" y="81" type="curve" smooth="yes"/>
      <point x="358" y="320" type="line"/>
      <point x="455" y="444" type="line" smooth="yes"/>
      <point x="506" y="509"/>
      <point x="540" y="526"/>
      <point x="593" y="526" type="curve" smooth="yes"/>
      <point x="605" y="526" type="line"/>
      <point x="607" y="536" type="line"/>
      <point x="501" y="536" type="line"/>
      <point x="353" y="330" type="line"/>
      <point x="283" y="536" type="line"/>
      <point x="87" y="536" type="line"/>
      <point x="85" y="526" type="line"/>
      <point x="97" y="526" type="line" smooth="yes"/>
      <point x="125" y="526"/>
      <point x="136" y="512"/>
      <point x="151" y="474" type="curve" smooth="yes"/>
      <point x="243" y="239" type="line"/>
      <point x="126" y="91" type="line" smooth="yes"/>
      <point x="74" y="25"/>
      <point x="40" y="10"/>
      <point x="-11" y="10" type="curve" smooth="yes"/>
      <point x="-21" y="10" type="line"/>
    </contour>
  </outline>
</glyph>
<glyph name="y" format="2">
  <advance width="549"/>
  <unicode hex="0079"/>
  <anchor x="66" y="-240" name="bottom"/>
  <anchor x="329" y="536" name="top"/>
  <anchor x="606" y="536" name="topright"/>
  <outline>
    <contour>
      <point x="-42" y="-240" type="curve" smooth="yes"/>
      <point x="149" y="-240"/>
      <point x="222" y="-137"/>
      <point x="366" y="67" type="curve" smooth="yes"/>
      <point x="463" y="205"/>
      <point x="532" y="347"/>
      <point x="532" y="457" type="curve" smooth="yes"/>
      <point x="532" y="512"/>
      <point x="508" y="546"/>
      <point x="458" y="546" type="curve" smooth="yes"/>
      <point x="410" y="546"/>
      <point x="382" y="517"/>
      <point x="382" y="459" type="curve"/>
      <point x="440" y="459"/>
      <point x="480" y="436"/>
      <point x="480" y="371" type="curve" smooth="yes"/>
      <point x="480" y="259"/>
      <point x="420" y="159"/>
      <point x="323" y="25" type="curve"/>
      <point x="321" y="25" type="line"/>
      <point x="315" y="68"/>
      <point x="301" y="156"/>
      <point x="291" y="208" type="curve" smooth="yes"/>
      <point x="228" y="536" type="line"/>
      <point x="18" y="536" type="line"/>
      <point x="16" y="526" type="line"/>
      <point x="26" y="526" type="line" smooth="yes"/>
      <point x="57" y="526"/>
      <point x="68" y="513"/>
      <point x="78" y="473" type="curve" smooth="yes"/>
      <point x="220" y="-107" type="line"/>
      <point x="148" y="-193"/>
      <point x="66" y="-220"/>
      <point x="-35" y="-220" type="curve" smooth="yes"/>
      <point x="-96" y="-220"/>
      <point x="-139" y="-212"/>
      <point x="-159" y="-206" type="curve"/>
      <point x="-163" y="-215" type="line"/>
      <point x="-135" y="-228"/>
      <point x="-94" y="-240"/>
    </contour>
  </outline>
</glyph>
<glyph name="braceright" format="2">
  <advance width="441"/>
  <unicode hex="007D"/>
  <outline>
    <contour>
      <point x="-59" y="-124" type="line"/>
      <point x="36" y="-124" type="line" smooth="yes"/>
      <point x="165" y="-124"/>
      <point x="218" y="-78"/>
      <point x="239" y="22" type="curve" smooth="yes"/>
      <point x="278" y="212" type="line" smooth="yes"/>
      <point x="293" y="292"/>
      <point x="342" y="311"/>
      <point x="415" y="312" type="curve"/>
      <point x="417" y="322" type="line"/>
      <point x="361" y="324"/>
      <point x="322" y="337"/>
      <point x="320" y="393" type="curve" smooth="yes"/>
      <point x="319" y="403"/>
      <point x="321" y="414"/>
      <point x="324" y="427" type="curve" smooth="yes"/>
      <point x="357" y="582" type="line" smooth="yes"/>
      <point x="367" y="626"/>
      <point x="368" y="640"/>
      <point x="368" y="652" type="curve" smooth="yes"/>
      <point x="368" y="720"/>
      <point x="320" y="761"/>
      <point x="224" y="761" type="curve" smooth="yes"/>
      <point x="129" y="761" type="line"/>
      <point x="127" y="751" type="line"/>
      <point x="165" y="751" type="line" smooth="yes"/>
      <point x="204" y="751"/>
      <point x="221" y="727"/>
      <point x="221" y="692" type="curve" smooth="yes"/>
      <point x="221" y="673"/>
      <point x="218" y="658"/>
      <point x="214" y="640" type="curve" smooth="yes"/>
      <point x="173" y="454" type="line" smooth="yes"/>
      <point x="171" y="445"/>
      <point x="169" y="436"/>
      <point x="169" y="427" type="curve" smooth="yes"/>
      <point x="169" y="382"/>
      <point x="200" y="330"/>
      <point x="315" y="322" type="curve"/>
      <point x="314" y="318" type="line"/>
      <point x="182" y="307"/>
      <point x="133" y="257"/>
      <point x="117" y="185" type="curve" smooth="yes"/>
      <point x="73" y="-13" type="line" smooth="yes"/>
      <point x="59" y="-81"/>
      <point x="41" y="-114"/>
      <point x="-19" y="-114" type="curve" smooth="yes"/>
      <point x="-58" y="-114" type="line"/>
    </contour>
  </outline>
</glyph>
<glyph name="cent" format="2">
  <advance width="559"/>
  <unicode hex="00A2"/>
  <anchor x="265" y="93" name="bottom"/>
  <anchor x="385" y="629" name="top"/>
  <anchor x="597" y="629" name="topright"/>
  <outline>
    <contour>
      <point x="273" y="0" type="line"/>
      <point x="283" y="0" type="line"/>
      <point x="423" y="714" type="line"/>
      <point x="413" y="714" type="line"/>
    </contour>
    <component base="c" xOffset="37" yOffset="93"/>
  </outline>
</glyph>
<glyph name="currency" format="2">
  <advance width="559"/>
  <unicode hex="00A4"/>
  <outline>
    <contour>
      <point x="137" y="146" type="line"/>
      <point x="195" y="204" type="line"/>
      <point x="224" y="184"/>
      <point x="260" y="173"/>
      <point x="298" y="173" type="curve" smooth="yes"/>
      <point x="336" y="173"/>
      <point x="372" y="185"/>
      <point x="402" y="205" type="curve"/>
      <point x="461" y="146" type="line"/>
      <point x="511" y="196" type="line"/>
      <point x="452" y="255" type="line"/>
      <point x="471" y="284"/>
      <point x="482" y="318"/>
      <point x="482" y="356" type="curve" smooth="yes"/>
      <point x="482" y="394"/>
      <point x="470" y="429"/>
      <point x="450" y="458" type="curve"/>
      <point x="511" y="520" type="line"/>
      <point x="461" y="571" type="line"/>
      <point x="399" y="509" type="line"/>
      <point x="370" y="529"/>
      <point x="335" y="540"/>
      <point x="298" y="540" type="curve" smooth="yes"/>
      <point x="260" y="540"/>
      <point x="226" y="529"/>
      <point x="197" y="510" type="curve"/>
      <point x="137" y="570" type="line"/>
      <point x="87" y="520" type="line"/>
      <point x="147" y="460" type="line"/>
      <point x="126" y="431"/>
      <point x="115" y="394"/>
      <point x="115" y="356" type="curve"/>
      <point x="115" y="318"/>
      <point x="125" y="284"/>
      <point x="144" y="255" type="curve"/>
      <point x="86" y="197" type="line"/>
    </contour>
    <contour>
      <point x="298" y="240" type="curve" smooth="yes"/>
      <point x="234" y="240"/>
      <point x="183" y="292"/>
      <point x="183" y="356" type="curve"/>
      <point x="183" y="422"/>
      <point x="234" y="473"/>
      <point x="298" y="473" type="curve" smooth="yes"/>
      <point x="364" y="473"/>
      <point x="413" y="422"/>
      <point x="413" y="356" type="curve" smooth="yes"/>
      <point x="413" y="292"/>
      <point x="364" y="240"/>
    </contour>
  </outline>
</glyph>
<glyph name="yen" format="2">
  <advance width="559"/>
  <unicode hex="00A5"/>
  <outline>
    <contour>
      <point x="43" y="0" type="line"/>
      <point x="402" y="0" type="line"/>
      <point x="404" y="10" type="line"/>
      <point x="379" y="10" type="line" smooth="yes"/>
      <point x="337" y="10"/>
      <point x="307" y="15"/>
      <point x="307" y="44" type="curve" smooth="yes"/>
      <point x="307" y="49"/>
      <point x="309" y="60"/>
      <point x="313" y="74" type="curve" smooth="yes"/>
      <point x="340" y="203" type="line"/>
      <point x="481" y="203" type="line"/>
      <point x="483" y="213" type="line"/>
      <point x="342" y="213" type="line"/>
      <point x="360" y="302" type="line"/>
      <point x="500" y="302" type="line"/>
      <point x="502" y="312" type="line"/>
      <point x="364" y="312" type="line"/>
      <point x="533" y="626" type="line" smooth="yes"/>
      <point x="566" y="686"/>
      <point x="595" y="704"/>
      <point x="636" y="704" type="curve" smooth="yes"/>
      <point x="641" y="704" type="line"/>
      <point x="643" y="714" type="line"/>
      <point x="437" y="714" type="line"/>
      <point x="435" y="704" type="line"/>
      <point x="462" y="704" type="line" smooth="yes"/>
      <point x="515" y="704"/>
      <point x="531" y="694"/>
      <point x="531" y="669" type="curve" smooth="yes"/>
      <point x="531" y="653"/>
      <point x="524" y="630"/>
      <point x="510" y="604" type="curve" smooth="yes"/>
      <point x="405" y="406" type="line" smooth="yes"/>
      <point x="390" y="378"/>
      <point x="368" y="340"/>
      <point x="355" y="313" type="curve"/>
      <point x="348" y="352"/>
      <point x="339" y="418"/>
      <point x="330" y="464" type="curve" smooth="yes"/>
      <point x="306" y="603" type="line" smooth="yes"/>
      <point x="299" y="640"/>
      <point x="296" y="663"/>
      <point x="296" y="675" type="curve" smooth="yes"/>
      <point x="296" y="695"/>
      <point x="310" y="704"/>
      <point x="342" y="704" type="curve" smooth="yes"/>
      <point x="365" y="704" type="line"/>
      <point x="367" y="714" type="line"/>
      <point x="96" y="714" type="line"/>
      <point x="94" y="704" type="line"/>
      <point x="100" y="704" type="line" smooth="yes"/>
      <point x="141" y="704"/>
      <point x="146" y="692"/>
      <point x="153" y="651" type="curve" smooth="yes"/>
      <point x="211" y="312" type="line"/>
      <point x="72" y="312" type="line"/>
      <point x="70" y="302" type="line"/>
      <point x="212" y="302" type="line"/>
      <point x="194" y="213" type="line"/>
      <point x="53" y="213" type="line"/>
      <point x="51" y="203" type="line"/>
      <point x="191" y="203" type="line"/>
      <point x="163" y="71" type="line" smooth="yes"/>
      <point x="152" y="19"/>
      <point x="114" y="10"/>
      <point x="72" y="10" type="curve" smooth="yes"/>
      <point x="45" y="10" type="line"/>
    </contour>
  </outline>
</glyph>
<glyph name="section" format="2">
  <advance width="544"/>
  <unicode hex="00A7"/>
  <outline>
    <contour>
      <point x="211" y="-115" type="curve" smooth="yes"/>
      <point x="370" y="-115"/>
      <point x="437" y="-19"/>
      <point x="437" y="76" type="curve" smooth="yes"/>
      <point x="437" y="126"/>
      <point x="418" y="161"/>
      <point x="403" y="178" type="curve"/>
      <point x="453" y="205"/>
      <point x="510" y="250"/>
      <point x="510" y="339" type="curve" smooth="yes"/>
      <point x="510" y="409"/>
      <point x="467" y="448"/>
      <point x="376" y="492" type="curve" smooth="yes"/>
      <point x="284" y="537"/>
      <point x="252" y="563"/>
      <point x="252" y="637" type="curve" smooth="yes"/>
      <point x="252" y="709"/>
      <point x="293" y="750"/>
      <point x="354" y="750" type="curve" smooth="yes"/>
      <point x="419" y="750"/>
      <point x="442" y="708"/>
      <point x="442" y="591" type="curve"/>
      <point x="501" y="591"/>
      <point x="540" y="611"/>
      <point x="540" y="664" type="curve" smooth="yes"/>
      <point x="540" y="723"/>
      <point x="486" y="760"/>
      <point x="365" y="760" type="curve" smooth="yes"/>
      <point x="239" y="760"/>
      <point x="149" y="696"/>
      <point x="149" y="581" type="curve" smooth="yes"/>
      <point x="149" y="540"/>
      <point x="163" y="509"/>
      <point x="180" y="489" type="curve"/>
      <point x="120" y="455"/>
      <point x="80" y="407"/>
      <point x="80" y="337" type="curve" smooth="yes"/>
      <point x="80" y="272"/>
      <point x="107" y="224"/>
      <point x="209" y="170" type="curve" smooth="yes"/>
      <point x="316" y="113"/>
      <point x="345" y="86"/>
      <point x="345" y="9" type="curve" smooth="yes"/>
      <point x="345" y="-56"/>
      <point x="299" y="-105"/>
      <point x="229" y="-105" type="curve" smooth="yes"/>
      <point x="142" y="-105"/>
      <point x="116" y="-53"/>
      <point x="116" y="80" type="curve"/>
      <point x="78" y="80"/>
      <point x="22" y="65"/>
      <point x="22" y="-3" type="curve" smooth="yes"/>
      <point x="22" y="-74"/>
      <point x="95" y="-115"/>
    </contour>
    <contour>
      <point x="397" y="184" type="curve"/>
      <point x="375" y="206"/>
      <point x="338" y="230"/>
      <point x="281" y="259" type="curve" smooth="yes"/>
      <point x="179" y="310"/>
      <point x="146" y="346"/>
      <point x="146" y="402" type="curve" smooth="yes"/>
      <point x="146" y="439"/>
      <point x="163" y="463"/>
      <point x="186" y="484" type="curve"/>
      <point x="211" y="455"/>
      <point x="251" y="430"/>
      <point x="312" y="399" type="curve" smooth="yes"/>
      <point x="400" y="354"/>
      <point x="432" y="325"/>
      <point x="432" y="268" type="curve" smooth="yes"/>
      <point x="432" y="229"/>
      <point x="417" y="203"/>
    </contour>
  </outline>
</glyph>
<glyph name="dieresis" format="2">
  <advance width="577"/>
  <unicode hex="00A8"/>
  <outline>
    <contour>
      <point x="480" y="620" type="curve" smooth="yes"/>
      <point x="508" y="620"/>
      <point x="538" y="640"/>
      <point x="538" y="699" type="curve" smooth="yes"/>
      <point x="538" y="740"/>
      <point x="516" y="760"/>
      <point x="484" y="760" type="curve" smooth="yes"/>
      <point x="447" y="760"/>
      <point x="425" y="729"/>
      <point x="425" y="681" type="curve" smooth="yes"/>
      <point x="425" y="640"/>
      <point x="446" y="620"/>
    </contour>
    <contour>
      <point x="272" y="620" type="curve" smooth="yes"/>
      <point x="301" y="620"/>
      <point x="331" y="640"/>
      <point x="331" y="699" type="curve" smooth="yes"/>
      <point x="331" y="740"/>
      <point x="309" y="760"/>
      <point x="277" y="760" type="curve" smooth="yes"/>
      <point x="241" y="760"/>
      <point x="218" y="729"/>
      <point x="218" y="681" type="curve" smooth="yes"/>
      <point x="218" y="640"/>
      <point x="239" y="620"/>
    </contour>
  </outline>
</glyph>
<glyph name="copyright" format="2">
  <advance width="845"/>
  <unicode hex="00A9"/>
  <outline>
    <contour>
      <point x="441" y="-10" type="curve" smooth="yes"/>
      <point x="655" y="-10"/>
      <point x="809" y="144"/>
      <point x="809" y="357" type="curve" smooth="yes"/>
      <point x="809" y="571"/>
      <point x="655" y="725"/>
      <point x="441" y="725" type="curve" smooth="yes"/>
      <point x="227" y="725"/>
      <point x="74" y="570"/>
      <point x="74" y="358" type="curve" smooth="yes"/>
      <point x="74" y="144"/>
      <point x="228" y="-10"/>
    </contour>
    <contour>
      <point x="449" y="124" type="curve" smooth="yes"/>
      <point x="547" y="124"/>
      <point x="605" y="171"/>
      <point x="605" y="212" type="curve" smooth="yes"/>
      <point x="605" y="228"/>
      <point x="597" y="239"/>
      <point x="585" y="245" type="curve"/>
      <point x="571" y="175"/>
      <point x="524" y="134"/>
      <point x="457" y="134" type="curve" smooth="yes"/>
      <point x="370" y="134"/>
      <point x="322" y="203"/>
      <point x="322" y="358" type="curve" smooth="yes"/>
      <point x="322" y="511"/>
      <point x="356" y="579"/>
      <point x="441" y="579" type="curve" smooth="yes"/>
      <point x="503" y="579"/>
      <point x="531" y="544"/>
      <point x="531" y="466" type="curve"/>
      <point x="571" y="466"/>
      <point x="602" y="485"/>
      <point x="602" y="517" type="curve" smooth="yes"/>
      <point x="602" y="562"/>
      <point x="541" y="590"/>
      <point x="460" y="590" type="curve" smooth="yes"/>
      <point x="315" y="590"/>
      <point x="237" y="502"/>
      <point x="237" y="358" type="curve" smooth="yes"/>
      <point x="237" y="217"/>
      <point x="307" y="124"/>
    </contour>
    <contour>
      <point x="443" y="0" type="curve" smooth="yes"/>
      <point x="242" y="0"/>
      <point x="86" y="146"/>
      <point x="86" y="358" type="curve" smooth="yes"/>
      <point x="86" y="565"/>
      <point x="235" y="715"/>
      <point x="441" y="715" type="curve" smooth="yes"/>
      <point x="648" y="715"/>
      <point x="797" y="564"/>
      <point x="797" y="358" type="curve" smooth="yes"/>
      <point x="797" y="151"/>
      <point x="647" y="0"/>
    </contour>
  </outline>
</glyph>
<glyph name="ordfeminine" format="2">
  <advance width="446"/>
  <unicode hex="00AA"/>
  <anchor x="242" y="381" name="bottom"/>
  <anchor x="314" y="722" name="top"/>
  <outline>
    <contour>
      <point x="174" y="381" type="curve" smooth="yes"/>
      <point x="233" y="381"/>
      <point x="283" y="427"/>
      <point x="309" y="496" type="curve"/>
      <point x="313" y="496" type="line"/>
      <point x="309" y="476"/>
      <point x="306" y="459"/>
      <point x="306" y="441" type="curve" smooth="yes"/>
      <point x="306" y="402"/>
      <point x="334" y="381"/>
      <point x="377" y="381" type="curve" smooth="yes"/>
      <point x="426" y="381"/>
      <point x="463" y="410"/>
      <point x="480" y="428" type="curve"/>
      <point x="475" y="436" type="line"/>
      <point x="460" y="424"/>
      <point x="442" y="408"/>
      <point x="421" y="408" type="curve" smooth="yes"/>
      <point x="404" y="408"/>
      <point x="399" y="420"/>
      <point x="399" y="446" type="curve" smooth="yes"/>
      <point x="399" y="458"/>
      <point x="405" y="480"/>
      <point x="412" y="507" type="curve" smooth="yes"/>
      <point x="463" y="711" type="line"/>
      <point x="420" y="711" type="line"/>
      <point x="364" y="697" type="line"/>
      <point x="349" y="708"/>
      <point x="332" y="718"/>
      <point x="299" y="718" type="curve" smooth="yes"/>
      <point x="146" y="718"/>
      <point x="77" y="587"/>
      <point x="77" y="493" type="curve" smooth="yes"/>
      <point x="77" y="431"/>
      <point x="107" y="381"/>
    </contour>
    <contour>
      <point x="230" y="416" type="curve" smooth="yes"/>
      <point x="209" y="416"/>
      <point x="194" y="432"/>
      <point x="194" y="499" type="curve" smooth="yes"/>
      <point x="194" y="587"/>
      <point x="235" y="707"/>
      <point x="305" y="707" type="curve" smooth="yes"/>
      <point x="322" y="707"/>
      <point x="338" y="703"/>
      <point x="349" y="693" type="curve"/>
      <point x="300" y="509" type="line" smooth="yes"/>
      <point x="289" y="466"/>
      <point x="254" y="416"/>
    </contour>
  </outline>
</glyph>
<glyph name="registered" format="2">
  <advance width="845"/>
  <unicode hex="00AE"/>
  <outline>
    <contour>
      <point x="441" y="-10" type="curve" smooth="yes"/>
      <point x="655" y="-10"/>
      <point x="809" y="144"/>
      <point x="809" y="357" type="curve" smooth="yes"/>
      <point x="809" y="571"/>
      <point x="655" y="725"/>
      <point x="441" y="725" type="curve" smooth="yes"/>
      <point x="227" y="725"/>
      <point x="74" y="570"/>
      <point x="74" y="358" type="curve" smooth="yes"/>
      <point x="74" y="144"/>
      <point x="228" y="-10"/>
    </contour>
    <contour>
      <point x="443" y="0" type="curve" smooth="yes"/>
      <point x="242" y="0"/>
      <point x="86" y="146"/>
      <point x="86" y="358" type="curve" smooth="yes"/>
      <point x="86" y="565"/>
      <point x="235" y="715"/>
      <point x="441" y="715" type="curve" smooth="yes"/>
      <point x="648" y="715"/>
      <point x="797" y="564"/>
      <point x="797" y="358" type="curve" smooth="yes"/>
      <point x="797" y="151"/>
      <point x="647" y="0"/>
    </contour>
    <contour>
      <point x="251" y="141" type="line"/>
      <point x="454" y="141" type="line"/>
      <point x="454" y="151" type="line"/>
      <point x="440" y="151" type="line" smooth="yes"/>
      <point x="414" y="151"/>
      <point x="391" y="155"/>
      <point x="391" y="187" type="curve" smooth="yes"/>
      <point x="391" y="342" type="line"/>
      <point x="429" y="342" type="line"/>
      <point x="551" y="141" type="line"/>
      <point x="655" y="141" type="line"/>
      <point x="655" y="151" type="line"/>
      <point x="643" y="151"/>
      <point x="630" y="160"/>
      <point x="611" y="189" type="curve" smooth="yes"/>
      <point x="510" y="347" type="line"/>
      <point x="567" y="361"/>
      <point x="610" y="391"/>
      <point x="610" y="458" type="curve" smooth="yes"/>
      <point x="610" y="535"/>
      <point x="553" y="579"/>
      <point x="434" y="579" type="curve" smooth="yes"/>
      <point x="251" y="579" type="line"/>
      <point x="251" y="569" type="line"/>
      <point x="264" y="569" type="line" smooth="yes"/>
      <point x="290" y="569"/>
      <point x="313" y="565"/>
      <point x="313" y="533" type="curve" smooth="yes"/>
      <point x="313" y="187" type="line" smooth="yes"/>
      <point x="313" y="155"/>
      <point x="290" y="151"/>
      <point x="264" y="151" type="curve" smooth="yes"/>
      <point x="251" y="151" type="line"/>
    </contour>
    <contour>
      <point x="391" y="352" type="line"/>
      <point x="391" y="569" type="line"/>
      <point x="430" y="569" type="line" smooth="yes"/>
      <point x="500" y="569"/>
      <point x="527" y="540"/>
      <point x="527" y="459" type="curve" smooth="yes"/>
      <point x="527" y="383"/>
      <point x="501" y="352"/>
      <point x="433" y="352" type="curve" smooth="yes"/>
    </contour>
  </outline>
</glyph>
<glyph name="degree" format="2">
  <advance width="400"/>
  <unicode hex="00B0"/>
  <outline>
    <contour>
      <point x="264" y="421" type="curve" smooth="yes"/>
      <point x="353" y="421"/>
      <point x="416" y="483"/>
      <point x="416" y="572" type="curve" smooth="yes"/>
      <point x="416" y="661"/>
      <point x="353" y="724"/>
      <point x="264" y="724" type="curve" smooth="yes"/>
      <point x="175" y="724"/>
      <point x="113" y="661"/>
      <point x="113" y="572" type="curve" smooth="yes"/>
      <point x="113" y="483"/>
      <point x="175" y="421"/>
    </contour>
    <contour>
      <point x="266" y="441" type="curve" smooth="yes"/>
      <point x="187" y="441"/>
      <point x="133" y="497"/>
      <point x="133" y="574" type="curve" smooth="yes"/>
      <point x="133" y="651"/>
      <point x="188" y="704"/>
      <point x="266" y="704" type="curve" smooth="yes"/>
      <point x="343" y="704"/>
      <point x="396" y="651"/>
      <point x="396" y="574" type="curve" smooth="yes"/>
      <point x="396" y="497"/>
      <point x="344" y="441"/>
    </contour>
  </outline>
</glyph>
<glyph name="twosuperior" format="2">
  <advance width="400"/>
  <unicode hex="00B2"/>
  <outline>
    <contour>
      <point x="73" y="386" type="line"/>
      <point x="379" y="386" type="line"/>
      <point x="407" y="526" type="line"/>
      <point x="397" y="526" type="line"/>
      <point x="389" y="500" type="line" smooth="yes"/>
      <point x="382" y="477"/>
      <point x="367" y="464"/>
      <point x="336" y="464" type="curve" smooth="yes"/>
      <point x="127" y="464" type="line"/>
      <point x="278" y="564" type="line" smooth="yes"/>
      <point x="382" y="633"/>
      <point x="438" y="663"/>
      <point x="438" y="733" type="curve" smooth="yes"/>
      <point x="438" y="787"/>
      <point x="385" y="824"/>
      <point x="302" y="824" type="curve" smooth="yes"/>
      <point x="205" y="824"/>
      <point x="146" y="785"/>
      <point x="146" y="731" type="curve" smooth="yes"/>
      <point x="146" y="701"/>
      <point x="175" y="680"/>
      <point x="222" y="680" type="curve"/>
      <point x="236" y="773"/>
      <point x="252" y="814"/>
      <point x="293" y="814" type="curve" smooth="yes"/>
      <point x="326" y="814"/>
      <point x="331" y="786"/>
      <point x="331" y="749" type="curve" smooth="yes"/>
      <point x="331" y="658"/>
      <point x="297" y="614"/>
      <point x="219" y="552" type="curve" smooth="yes"/>
      <point x="84" y="444" type="line"/>
    </contour>
  </outline>
</glyph>
<glyph name="threesuperior" format="2">
  <advance width="400"/>
  <unicode hex="00B3"/>
  <outline>
    <contour>
      <point x="219" y="380" type="curve" smooth="yes"/>
      <point x="334" y="380"/>
      <point x="419" y="428"/>
      <point x="419" y="515" type="curve" smooth="yes"/>
      <point x="419" y="577"/>
      <point x="367" y="604"/>
      <point x="285" y="608" type="curve"/>
      <point x="285" y="612" type="line"/>
      <point x="384" y="628"/>
      <point x="445" y="659"/>
      <point x="445" y="733" type="curve" smooth="yes"/>
      <point x="445" y="783"/>
      <point x="401" y="824"/>
      <point x="306" y="824" type="curve" smooth="yes"/>
      <point x="208" y="824"/>
      <point x="149" y="785"/>
      <point x="149" y="738" type="curve" smooth="yes"/>
      <point x="149" y="706"/>
      <point x="181" y="692"/>
      <point x="230" y="692" type="curve"/>
      <point x="246" y="779"/>
      <point x="261" y="814"/>
      <point x="301" y="814" type="curve" smooth="yes"/>
      <point x="328" y="814"/>
      <point x="338" y="788"/>
      <point x="338" y="752" type="curve" smooth="yes"/>
      <point x="338" y="661"/>
      <point x="286" y="614"/>
      <point x="227" y="614" type="curve" smooth="yes"/>
      <point x="197" y="614" type="line"/>
      <point x="195" y="604" type="line"/>
      <point x="227" y="604" type="line" smooth="yes"/>
      <point x="291" y="604"/>
      <point x="315" y="575"/>
      <point x="315" y="512" type="curve" smooth="yes"/>
      <point x="315" y="430"/>
      <point x="268" y="390"/>
      <point x="218" y="390" type="curve" smooth="yes"/>
      <point x="156" y="390"/>
      <point x="146" y="441"/>
      <point x="146" y="518" type="curve"/>
      <point x="104" y="518"/>
      <point x="72" y="497"/>
      <point x="72" y="461" type="curve" smooth="yes"/>
      <point x="72" y="411"/>
      <point x="122" y="380"/>
    </contour>
  </outline>
</glyph>
<glyph name="acute" format="2">
  <advance width="293"/>
  <unicode hex="00B4"/>
  <outline>
    <contour>
      <point x="112" y="606" type="line"/>
      <point x="125" y="606" type="line"/>
      <point x="200" y="642"/>
      <point x="323" y="724"/>
      <point x="356" y="756" type="curve"/>
      <point x="359" y="766" type="line"/>
      <point x="224" y="766" type="line"/>
      <point x="195" y="723"/>
      <point x="150" y="656"/>
      <point x="114" y="617" type="curve"/>
    </contour>
  </outline>
</glyph>
<glyph name="micro" format="2">
  <advance width="678"/>
  <unicode hex="00B5"/>
  <outline>
    <contour>
      <point x="79" y="-240" type="curve" smooth="yes"/>
      <point x="126" y="-240"/>
      <point x="174" y="-212"/>
      <point x="183" y="-153" type="curve"/>
      <point x="86" y="-148"/>
      <point x="45" y="-112"/>
      <point x="45" y="-41" type="curve" smooth="yes"/>
      <point x="45" y="13"/>
      <point x="63" y="75"/>
      <point x="78" y="133" type="curve"/>
      <point x="86" y="55"/>
      <point x="119" y="-10"/>
      <point x="228" y="-10" type="curve" smooth="yes"/>
      <point x="311" y="-10"/>
      <point x="360" y="56"/>
      <point x="394" y="147" type="curve"/>
      <point x="398" y="147" type="line"/>
      <point x="398" y="66"/>
      <point x="417" y="-10"/>
      <point x="511" y="-10" type="curve" smooth="yes"/>
      <point x="583" y="-10"/>
      <point x="630" y="25"/>
      <point x="662" y="59" type="curve"/>
      <point x="656" y="67" type="line"/>
      <point x="630" y="39"/>
      <point x="601" y="19"/>
      <point x="578" y="19" type="curve" smooth="yes"/>
      <point x="552" y="19"/>
      <point x="536" y="37"/>
      <point x="536" y="74" type="curve" smooth="yes"/>
      <point x="536" y="101"/>
      <point x="542" y="136"/>
      <point x="549" y="172" type="curve" smooth="yes"/>
      <point x="627" y="536" type="line"/>
      <point x="474" y="536" type="line"/>
      <point x="406" y="216" type="line" smooth="yes"/>
      <point x="382" y="103"/>
      <point x="319" y="11"/>
      <point x="270" y="11" type="curve" smooth="yes"/>
      <point x="234" y="11"/>
      <point x="219" y="33"/>
      <point x="219" y="73" type="curve" smooth="yes"/>
      <point x="219" y="102"/>
      <point x="224" y="147"/>
      <point x="232" y="182" type="curve" smooth="yes"/>
      <point x="308" y="536" type="line"/>
      <point x="155" y="536" type="line"/>
      <point x="89" y="225" type="line" smooth="yes"/>
      <point x="47" y="25"/>
      <point x="-2" y="-76"/>
      <point x="-2" y="-155" type="curve" smooth="yes"/>
      <point x="-2" y="-216"/>
      <point x="35" y="-240"/>
    </contour>
  </outline>
</glyph>
<glyph name="paragraph" format="2">
  <advance width="627"/>
  <unicode hex="00B6"/>
  <outline>
    <contour>
      <point x="193" y="-111" type="line"/>
      <point x="360" y="-111" type="line"/>
      <point x="360" y="750" type="line"/>
      <point x="444" y="750" type="line"/>
      <point x="444" y="-111" type="line"/>
      <point x="611" y="-111" type="line"/>
      <point x="611" y="-101" type="line"/>
      <point x="598" y="-101" type="line" smooth="yes"/>
      <point x="553" y="-101"/>
      <point x="516" y="-93"/>
      <point x="516" y="-30" type="curve" smooth="yes"/>
      <point x="516" y="678" type="line" smooth="yes"/>
      <point x="516" y="741"/>
      <point x="553" y="750"/>
      <point x="598" y="750" type="curve" smooth="yes"/>
      <point x="611" y="750" type="line"/>
      <point x="611" y="760" type="line"/>
      <point x="219" y="760" type="line" smooth="yes"/>
      <point x="106" y="760"/>
      <point x="64" y="689"/>
      <point x="64" y="582" type="curve" smooth="yes"/>
      <point x="64" y="478"/>
      <point x="100" y="386"/>
      <point x="217" y="386" type="curve" smooth="yes"/>
      <point x="288" y="386" type="line"/>
      <point x="288" y="-30" type="line" smooth="yes"/>
      <point x="288" y="-93"/>
      <point x="251" y="-101"/>
      <point x="206" y="-101" type="curve" smooth="yes"/>
      <point x="193" y="-101" type="line"/>
    </contour>
  </outline>
</glyph>
<glyph name="periodcentered" format="2">
  <advance width="304"/>
  <unicode hex="00B7"/>
  <outline>
    <contour>
      <point x="160" y="274" type="curve" smooth="yes"/>
      <point x="214" y="274"/>
      <point x="246" y="315"/>
      <point x="246" y="372" type="curve" smooth="yes"/>
      <point x="246" y="418"/>
      <point x="218" y="436"/>
      <point x="181" y="436" type="curve" smooth="yes"/>
      <point x="130" y="436"/>
      <point x="95" y="397"/>
      <point x="95" y="338" type="curve" smooth="yes"/>
      <point x="95" y="292"/>
      <point x="122" y="274"/>
    </contour>
  </outline>
</glyph>
<glyph name="cedilla" format="2">
  <advance width="333"/>
  <unicode hex="00B8"/>
  <outline>
    <contour>
      <point x="116" y="-240" type="curve" smooth="yes"/>
      <point x="205" y="-240"/>
      <point x="278" y="-203"/>
      <point x="278" y="-126" type="curve" smooth="yes"/>
      <point x="278" y="-78"/>
      <point x="243" y="-44"/>
      <point x="148" y="-39" type="curve"/>
      <point x="168" y="5" type="line"/>
      <point x="158" y="5" type="line"/>
      <point x="134" y="-49" type="line"/>
      <point x="166" y="-55"/>
      <point x="177" y="-78"/>
      <point x="177" y="-115" type="curve" smooth="yes"/>
      <point x="177" y="-190"/>
      <point x="144" y="-225"/>
      <point x="87" y="-225" type="curve" smooth="yes"/>
      <point x="69" y="-225"/>
      <point x="48" y="-222"/>
      <point x="28" y="-217" type="curve"/>
      <point x="26" y="-227" type="line"/>
      <point x="49" y="-234"/>
      <point x="74" y="-240"/>
    </contour>
  </outline>
</glyph>
<glyph name="onesuperior" format="2">
  <advance width="400"/>
  <unicode hex="00B9"/>
  <outline>
    <contour>
      <point x="84" y="387" type="line"/>
      <point x="366" y="387" type="line"/>
      <point x="369" y="397" type="line"/>
      <point x="328" y="397" type="line" smooth="yes"/>
      <point x="307" y="397"/>
      <point x="289" y="400"/>
      <point x="289" y="423" type="curve" smooth="yes"/>
      <point x="289" y="431"/>
      <point x="292" y="442"/>
      <point x="294" y="454" type="curve" smooth="yes"/>
      <point x="370" y="819" type="line"/>
      <point x="324" y="819" type="line"/>
      <point x="259" y="768"/>
      <point x="199" y="740"/>
      <point x="137" y="740" type="curve"/>
      <point x="137" y="713"/>
      <point x="147" y="691"/>
      <point x="171" y="691" type="curve" smooth="yes"/>
      <point x="202" y="691"/>
      <point x="223" y="715"/>
      <point x="258" y="764" type="curve"/>
      <point x="260" y="764" type="line"/>
      <point x="191" y="435" type="line" smooth="yes"/>
      <point x="184" y="401"/>
      <point x="163" y="397"/>
      <point x="138" y="397" type="curve" smooth="yes"/>
      <point x="87" y="397" type="line"/>
    </contour>
  </outline>
</glyph>
<glyph name="ordmasculine" format="2">
  <advance width="407"/>
  <unicode hex="00BA"/>
  <anchor x="227" y="388" name="bottom"/>
  <anchor x="303" y="724" name="top"/>
  <outline>
    <contour>
      <point x="228" y="381" type="curve" smooth="yes"/>
      <point x="383" y="381"/>
      <point x="453" y="511"/>
      <point x="453" y="595" type="curve" smooth="yes"/>
      <point x="453" y="681"/>
      <point x="385" y="719"/>
      <point x="302" y="719" type="curve" smooth="yes"/>
      <point x="153" y="719"/>
      <point x="75" y="597"/>
      <point x="75" y="507" type="curve" smooth="yes"/>
      <point x="75" y="425"/>
      <point x="136" y="381"/>
    </contour>
    <contour>
      <point x="237" y="391" type="curve" smooth="yes"/>
      <point x="201" y="391"/>
      <point x="188" y="420"/>
      <point x="188" y="502" type="curve" smooth="yes"/>
      <point x="188" y="613"/>
      <point x="232" y="709"/>
      <point x="295" y="709" type="curve" smooth="yes"/>
      <point x="334" y="709"/>
      <point x="341" y="678"/>
      <point x="341" y="598" type="curve" smooth="yes"/>
      <point x="341" y="495"/>
      <point x="309" y="391"/>
    </contour>
  </outline>
</glyph>
<glyph name="Aring" format="2">
  <advance width="753"/>
  <unicode hex="00C5"/>
  <anchor x="320" y="0" name="bottom"/>
  <anchor x="498" y="900" name="top"/>
  <anchor x="828" y="714" name="topright"/>
  <outline>
    <contour>
      <point x="-49" y="0" type="line"/>
      <point x="194" y="0" type="line"/>
      <point x="196" y="10" type="line"/>
      <point x="141" y="10" type="line" smooth="yes"/>
      <point x="99" y="10"/>
      <point x="81" y="18"/>
      <point x="81" y="38" type="curve" smooth="yes"/>
      <point x="81" y="52"/>
      <point x="87" y="68"/>
      <point x="105" y="102" type="curve" smooth="yes"/>
      <point x="326" y="503" type="line" smooth="yes"/>
      <point x="359" y="563"/>
      <point x="379" y="597"/>
      <point x="399" y="637" type="curve"/>
      <point x="402" y="595"/>
      <point x="407" y="553"/>
      <point x="413" y="494" type="curve" smooth="yes"/>
      <point x="458" y="84" type="line" smooth="yes"/>
      <point x="459" y="74"/>
      <point x="460" y="63"/>
      <point x="460" y="52" type="curve" smooth="yes"/>
      <point x="460" y="23"/>
      <point x="434" y="10"/>
      <point x="387" y="10" type="curve" smooth="yes"/>
      <point x="355" y="10" type="line"/>
      <point x="353" y="0" type="line"/>
      <point x="684" y="0" type="line"/>
      <point x="686" y="10" type="line"/>
      <point x="678" y="10" type="line" smooth="yes"/>
      <point x="637" y="10"/>
      <point x="626" y="22"/>
      <point x="617" y="83" type="curve" smooth="yes"/>
      <point x="530" y="706" type="line"/>
      <point x="498" y="702" type="line"/>
      <point x="467" y="702" type="line"/>
      <point x="432" y="714" type="line"/>
      <point x="86" y="88" type="line" smooth="yes"/>
      <point x="51" y="24"/>
      <point x="25" y="10"/>
      <point x="-12" y="10" type="curve" smooth="yes"/>
      <point x="-47" y="10" type="line"/>
    </contour>
    <contour>
      <point x="189" y="262" type="line"/>
      <point x="536" y="262" type="line"/>
      <point x="536" y="272" type="line"/>
      <point x="191" y="272" type="line"/>
    </contour>
    <component base="ring" xOffset="240" yOffset="109"/>
  </outline>
</glyph>
<glyph name="AE" format="2">
  <advance width="975"/>
  <unicode hex="00C6"/>
  <anchor x="428" y="0" name="bottom"/>
  <anchor x="709" y="714" name="top"/>
  <outline>
    <contour>
      <point x="-56" y="0" type="line"/>
      <point x="196" y="0" type="line"/>
      <point x="198" y="10" type="line"/>
      <point x="141" y="10" type="line" smooth="yes"/>
      <point x="105" y="10"/>
      <point x="86" y="21"/>
      <point x="86" y="42" type="curve" smooth="yes"/>
      <point x="86" y="58"/>
      <point x="92" y="73"/>
      <point x="111" y="102" type="curve" smooth="yes"/>
      <point x="222" y="262" type="line"/>
      <point x="459" y="262" type="line"/>
      <point x="419" y="70" type="line" smooth="yes"/>
      <point x="408" y="19"/>
      <point x="369" y="10"/>
      <point x="327" y="10" type="curve" smooth="yes"/>
      <point x="314" y="10" type="line"/>
      <point x="312" y="0" type="line"/>
      <point x="886" y="0" type="line"/>
      <point x="933" y="186" type="line"/>
      <point x="923" y="186" type="line"/>
      <point x="907" y="140" type="line" smooth="yes"/>
      <point x="884" y="72"/>
      <point x="833" y="10"/>
      <point x="726" y="10" type="curve" smooth="yes"/>
      <point x="563" y="10" type="line"/>
      <point x="640" y="371" type="line"/>
      <point x="872" y="371" type="line"/>
      <point x="873" y="381" type="line"/>
      <point x="642" y="381" type="line"/>
      <point x="711" y="704" type="line"/>
      <point x="859" y="704" type="line" smooth="yes"/>
      <point x="929" y="704"/>
      <point x="967" y="666"/>
      <point x="967" y="596" type="curve" smooth="yes"/>
      <point x="967" y="572"/>
      <point x="962" y="537"/>
      <point x="960" y="528" type="curve"/>
      <point x="970" y="528" type="line"/>
      <point x="1005" y="714" type="line"/>
      <point x="410" y="714" type="line"/>
      <point x="408" y="704" type="line"/>
      <point x="516" y="704" type="line"/>
      <point x="89" y="88" type="line" smooth="yes"/>
      <point x="50" y="33"/>
      <point x="15" y="10"/>
      <point x="-42" y="10" type="curve" smooth="yes"/>
      <point x="-55" y="10" type="line"/>
    </contour>
    <contour>
      <point x="230" y="272" type="line"/>
      <point x="393" y="510" type="line" smooth="yes"/>
      <point x="442" y="580"/>
      <point x="479" y="630"/>
      <point x="528" y="704" type="curve"/>
      <point x="553" y="704" type="line"/>
      <point x="461" y="272" type="line"/>
    </contour>
  </outline>
</glyph>
<glyph name="Eth" format="2">
  <advance width="769"/>
  <unicode hex="00D0"/>
  <anchor x="327" y="0" name="bottom"/>
  <anchor x="479" y="714" name="top"/>
  <anchor x="417" y="357" name="center"/>
  <anchor x="839" y="714" name="topright"/>
  <outline>
    <contour>
      <point x="67" y="373" type="line"/>
      <point x="433" y="373" type="line"/>
      <point x="435" y="383" type="line"/>
      <point x="69" y="383" type="line"/>
    </contour>
    <component base="D"/>
  </outline>
</glyph>
<glyph name="Oslash" format="2">
  <advance width="792"/>
  <unicode hex="00D8"/>
  <anchor x="340" y="0" name="bottom"/>
  <anchor x="492" y="714" name="top"/>
  <anchor x="436" y="357" name="center"/>
  <anchor x="868" y="714" name="topright"/>
  <outline>
    <contour>
      <point x="116" y="-46" type="line"/>
      <point x="127" y="-46" type="line"/>
      <point x="723" y="761" type="line"/>
      <point x="712" y="761" type="line"/>
    </contour>
    <component base="O"/>
  </outline>
</glyph>
<glyph name="Thorn" format="2">
  <advance width="638"/>
  <unicode hex="00DE"/>
  <anchor x="262" y="0" name="bottom"/>
  <anchor x="414" y="714" name="top"/>
  <outline>
    <contour>
      <point x="-23" y="0" type="line"/>
      <point x="321" y="0" type="line"/>
      <point x="323" y="10" type="line"/>
      <point x="311" y="10" type="line" smooth="yes"/>
      <point x="269" y="10"/>
      <point x="238" y="15"/>
      <point x="238" y="44" type="curve" smooth="yes"/>
      <point x="238" y="49"/>
      <point x="240" y="60"/>
      <point x="241" y="67" type="curve" smooth="yes"/>
      <point x="259" y="156" type="line"/>
      <point x="334" y="156" type="line" smooth="yes"/>
      <point x="578" y="156"/>
      <point x="637" y="295"/>
      <point x="637" y="393" type="curve" smooth="yes"/>
      <point x="637" y="511"/>
      <point x="557" y="574"/>
      <point x="399" y="574" type="curve" smooth="yes"/>
      <point x="348" y="574" type="line"/>
      <point x="363" y="643" type="line" smooth="yes"/>
      <point x="374" y="696"/>
      <point x="413" y="704"/>
      <point x="457" y="704" type="curve" smooth="yes"/>
      <point x="470" y="704" type="line"/>
      <point x="472" y="714" type="line"/>
      <point x="127" y="714" type="line"/>
      <point x="125" y="704" type="line"/>
      <point x="138" y="704" type="line" smooth="yes"/>
      <point x="180" y="704"/>
      <point x="209" y="699"/>
      <point x="209" y="670" type="curve" smooth="yes"/>
      <point x="209" y="664"/>
      <point x="207" y="653"/>
      <point x="204" y="640" type="curve" smooth="yes"/>
      <point x="84" y="70" type="line" smooth="yes"/>
      <point x="73" y="18"/>
      <point x="34" y="10"/>
      <point x="-8" y="10" type="curve" smooth="yes"/>
      <point x="-21" y="10" type="line"/>
    </contour>
    <contour>
      <point x="295" y="165" type="curve" smooth="yes"/>
      <point x="261" y="165" type="line"/>
      <point x="346" y="565" type="line"/>
      <point x="372" y="565" type="line" smooth="yes"/>
      <point x="443" y="565"/>
      <point x="475" y="524"/>
      <point x="475" y="422" type="curve" smooth="yes"/>
      <point x="475" y="315"/>
      <point x="439" y="165"/>
    </contour>
  </outline>
</glyph>
<glyph name="ae" format="2">
  <advance width="880"/>
  <unicode hex="00E6"/>
  <anchor x="384" y="0" name="bottom"/>
  <anchor x="502" y="536" name="top"/>
  <anchor x="915" y="536" name="topright"/>
  <outline>
    <contour>
      <point x="191" y="-10" type="curve" smooth="yes"/>
      <point x="279" y="-10"/>
      <point x="332" y="32"/>
      <point x="380" y="139" type="curve"/>
      <point x="382" y="139" type="line"/>
      <point x="403" y="38"/>
      <point x="481" y="-10"/>
      <point x="604" y="-10" type="curve" smooth="yes"/>
      <point x="737" y="-10"/>
      <point x="798" y="57"/>
      <point x="798" y="107" type="curve" smooth="yes"/>
      <point x="798" y="132"/>
      <point x="789" y="143"/>
      <point x="776" y="147" type="curve"/>
      <point x="750" y="61"/>
      <point x="705" y="1"/>
      <point x="627" y="1" type="curve" smooth="yes"/>
      <point x="565" y="1"/>
      <point x="530" y="56"/>
      <point x="530" y="187" type="curve" smooth="yes"/>
      <point x="530" y="200"/>
      <point x="532" y="233"/>
      <point x="534" y="248" type="curve"/>
      <point x="571" y="248" type="line" smooth="yes"/>
      <point x="742" y="248"/>
      <point x="869" y="324"/>
      <point x="869" y="428" type="curve" smooth="yes"/>
      <point x="869" y="506"/>
      <point x="811" y="546"/>
      <point x="713" y="546" type="curve" smooth="yes"/>
      <point x="628" y="546"/>
      <point x="562" y="521"/>
      <point x="512" y="484" type="curve"/>
      <point x="476" y="524"/>
      <point x="429" y="546"/>
      <point x="354" y="546" type="curve" smooth="yes"/>
      <point x="137" y="546"/>
      <point x="40" y="340"/>
      <point x="40" y="182" type="curve" smooth="yes"/>
      <point x="40" y="66"/>
      <point x="88" y="-10"/>
    </contour>
    <contour>
      <point x="257" y="28" type="curve" smooth="yes"/>
      <point x="218" y="28"/>
      <point x="193" y="60"/>
      <point x="193" y="172" type="curve" smooth="yes"/>
      <point x="193" y="339"/>
      <point x="274" y="527"/>
      <point x="394" y="527" type="curve" smooth="yes"/>
      <point x="439" y="527"/>
      <point x="473" y="509"/>
      <point x="503" y="477" type="curve"/>
      <point x="412" y="402"/>
      <point x="377" y="283"/>
      <point x="377" y="197" type="curve" smooth="yes"/>
      <point x="377" y="187"/>
      <point x="377" y="177"/>
      <point x="378" y="168" type="curve"/>
      <point x="341" y="72"/>
      <point x="299" y="28"/>
    </contour>
    <contour>
      <point x="536" y="258" type="line"/>
      <point x="561" y="415"/>
      <point x="610" y="533"/>
      <point x="677" y="533" type="curve" smooth="yes"/>
      <point x="710" y="533"/>
      <point x="727" y="514"/>
      <point x="727" y="454" type="curve" smooth="yes"/>
      <point x="727" y="343"/>
      <point x="649" y="258"/>
      <point x="553" y="258" type="curve" smooth="yes"/>
    </contour>
  </outline>
</glyph>
<glyph name="eth" format="2">
  <advance width="615"/>
  <unicode hex="00F0"/>
  <anchor x="251" y="0" name="bottom"/>
  <anchor x="414" y="767" name="top"/>
  <outline>
    <contour>
      <point x="265" y="-10" type="curve" smooth="yes"/>
      <point x="446" y="-10"/>
      <point x="575" y="131"/>
      <point x="575" y="368" type="curve" smooth="yes"/>
      <point x="575" y="617"/>
      <point x="416" y="729"/>
      <point x="221" y="765" type="curve"/>
      <point x="219" y="757" type="line"/>
      <point x="330" y="722"/>
      <point x="404" y="603"/>
      <point x="416" y="448" type="curve"/>
      <point x="399" y="483"/>
      <point x="370" y="513"/>
      <point x="294" y="513" type="curve" smooth="yes"/>
      <point x="113" y="513"/>
      <point x="40" y="338"/>
      <point x="40" y="217" type="curve" smooth="yes"/>
      <point x="40" y="63"/>
      <point x="127" y="-10"/>
    </contour>
    <contour>
      <point x="269" y="0" type="curve" smooth="yes"/>
      <point x="219" y="0"/>
      <point x="192" y="42"/>
      <point x="192" y="154" type="curve" smooth="yes"/>
      <point x="192" y="303"/>
      <point x="242" y="494"/>
      <point x="341" y="494" type="curve" smooth="yes"/>
      <point x="394" y="494"/>
      <point x="421" y="442"/>
      <point x="421" y="353" type="curve" smooth="yes"/>
      <point x="421" y="196"/>
      <point x="368" y="0"/>
    </contour>
    <contour>
      <point x="207" y="581" type="line"/>
      <point x="544" y="750" type="line"/>
      <point x="546" y="762" type="line"/>
      <point x="208" y="593" type="line"/>
    </contour>
  </outline>
</glyph>
<glyph name="thorn" format="2">
  <advance width="623"/>
  <unicode hex="00FE"/>
  <anchor x="204" y="-240" name="bottom"/>
  <anchor x="417" y="760" name="top"/>
  <outline>
    <contour>
      <point x="162" y="665" type="curve" smooth="yes"/>
      <point x="-30" y="-240" type="line"/>
      <point x="225" y="-240" type="line"/>
      <point x="226" y="-230" type="line"/>
      <point x="193" y="-230" type="line" smooth="yes"/>
      <point x="155" y="-230"/>
      <point x="135" y="-224"/>
      <point x="135" y="-192" type="curve" smooth="yes"/>
      <point x="135" y="-180"/>
      <point x="139" y="-161"/>
      <point x="142" y="-145" type="curve" smooth="yes"/>
      <point x="163" y="-35" type="line" smooth="yes"/>
      <point x="168" y="-13"/>
      <point x="170" y="1"/>
      <point x="174" y="18" type="curve"/>
      <point x="193" y="1"/>
      <point x="225" y="-10"/>
      <point x="276" y="-10" type="curve" smooth="yes"/>
      <point x="496" y="-10"/>
      <point x="584" y="221"/>
      <point x="584" y="363" type="curve" smooth="yes"/>
      <point x="584" y="487"/>
      <point x="523" y="546"/>
      <point x="433" y="546" type="curve" smooth="yes"/>
      <point x="338" y="546"/>
      <point x="283" y="481"/>
      <point x="252" y="399" type="curve"/>
      <point x="247" y="399" type="line"/>
      <point x="267" y="462"/>
      <point x="284" y="513"/>
      <point x="297" y="575" type="curve" smooth="yes"/>
      <point x="337" y="760" type="line"/>
      <point x="99" y="760" type="line"/>
      <point x="97" y="750" type="line"/>
      <point x="116" y="750" type="line" smooth="yes"/>
      <point x="154" y="750"/>
      <point x="169" y="741"/>
      <point x="169" y="711" type="curve" smooth="yes"/>
      <point x="169" y="703"/>
      <point x="166" y="686"/>
    </contour>
    <contour>
      <point x="246" y="3" type="curve" smooth="yes"/>
      <point x="214" y="3"/>
      <point x="191" y="17"/>
      <point x="178" y="29" type="curve"/>
      <point x="246" y="348" type="line" smooth="yes"/>
      <point x="260" y="413"/>
      <point x="310" y="509"/>
      <point x="367" y="509" type="curve" smooth="yes"/>
      <point x="412" y="509"/>
      <point x="430" y="463"/>
      <point x="430" y="378" type="curve" smooth="yes"/>
      <point x="430" y="219"/>
      <point x="359" y="3"/>
    </contour>
  </outline>
</glyph>
<glyph name="dcroat" format="2">
  <advance width="643"/>
  <unicode hex="0111"/>
  <anchor x="276" y="0" name="bottom"/>
  <anchor x="438" y="760" name="top"/>
  <anchor x="381" y="268" name="center"/>
  <anchor x="701" y="760" name="topright"/>
  <outline>
    <contour>
      <point x="314" y="634" type="line"/>
      <point x="718" y="634" type="line"/>
      <point x="720" y="644" type="line"/>
      <point x="316" y="644" type="line"/>
    </contour>
    <component base="d"/>
  </outline>
</glyph>
<glyph name="Hbar" format="2">
  <advance width="819"/>
  <unicode hex="0126"/>
  <anchor x="353" y="0" name="bottom"/>
  <anchor x="505" y="714" name="top"/>
  <anchor x="449" y="357" name="center"/>
  <anchor x="895" y="714" name="topright"/>
  <outline>
    <contour>
      <point x="76" y="521" type="line"/>
      <point x="860" y="521" type="line"/>
      <point x="862" y="531" type="line"/>
      <point x="79" y="531" type="line"/>
    </contour>
    <component base="H"/>
  </outline>
</glyph>
<glyph name="hbar" format="2">
  <advance width="656"/>
  <unicode hex="0127"/>
  <anchor x="271" y="0" name="bottom"/>
  <anchor x="433" y="760" name="top"/>
  <anchor x="399" y="268" name="center"/>
  <anchor x="645" y="760" name="topright"/>
  <outline>
    <contour>
      <point x="65" y="610" type="line"/>
      <point x="459" y="610" type="line"/>
      <point x="462" y="620" type="line"/>
      <point x="67" y="620" type="line"/>
    </contour>
    <component base="h"/>
  </outline>
</glyph>
<glyph name="idotless" format="2">
  <advance width="350"/>
  <unicode hex="0131"/>
  <anchor x="121" y="0" name="bottom"/>
  <anchor x="215" y="536" name="top"/>
  <anchor x="402" y="714" name="topright"/>
  <outline>
    <contour>
      <point x="185" y="-10" type="curve" smooth="yes"/>
      <point x="258" y="-10"/>
      <point x="306" y="25"/>
      <point x="338" y="59" type="curve"/>
      <point x="332" y="68" type="line"/>
      <point x="309" y="47"/>
      <point x="281" y="25"/>
      <point x="251" y="25" type="curve" smooth="yes"/>
      <point x="224" y="25"/>
      <point x="213" y="42"/>
      <point x="212" y="76" type="curve" smooth="yes"/>
      <point x="212" y="99"/>
      <point x="219" y="142"/>
      <point x="226" y="174" type="curve" smooth="yes"/>
      <point x="303" y="536" type="line"/>
      <point x="67" y="536" type="line"/>
      <point x="65" y="526" type="line"/>
      <point x="83" y="526" type="line" smooth="yes"/>
      <point x="121" y="526"/>
      <point x="136" y="518"/>
      <point x="136" y="489" type="curve" smooth="yes"/>
      <point x="136" y="475"/>
      <point x="133" y="458"/>
      <point x="129" y="441" type="curve" smooth="yes"/>
      <point x="84" y="223" type="line" smooth="yes"/>
      <point x="73" y="171"/>
      <point x="66" y="138"/>
      <point x="66" y="99" type="curve" smooth="yes"/>
      <point x="66" y="27"/>
      <point x="109" y="-10"/>
    </contour>
  </outline>
</glyph>
<glyph name="Eng" format="2">
  <advance width="788"/>
  <unicode hex="014A"/>
  <anchor x="274" y="-240" name="bottom"/>
  <anchor x="477" y="714" name="top"/>
  <outline>
    <contour>
      <point x="377" y="-240" type="curve" smooth="yes"/>
      <point x="501" y="-240"/>
      <point x="555" y="-169"/>
      <point x="594" y="0" type="curve" smooth="yes"/>
      <point x="729" y="644" type="line" smooth="yes"/>
      <point x="741" y="699"/>
      <point x="784" y="704"/>
      <point x="830" y="704" type="curve" smooth="yes"/>
      <point x="867" y="704" type="line"/>
      <point x="869" y="714" type="line"/>
      <point x="617" y="714" type="line"/>
      <point x="615" y="704" type="line"/>
      <point x="641" y="704" type="line" smooth="yes"/>
      <point x="693" y="704"/>
      <point x="721" y="696"/>
      <point x="721" y="666" type="curve" smooth="yes"/>
      <point x="721" y="659"/>
      <point x="719" y="648"/>
      <point x="717" y="639" type="curve" smooth="yes"/>
      <point x="630" y="223" type="line"/>
      <point x="370" y="714" type="line"/>
      <point x="127" y="714" type="line"/>
      <point x="125" y="704" type="line"/>
      <point x="160" y="704" type="line" smooth="yes"/>
      <point x="207" y="704"/>
      <point x="240" y="699"/>
      <point x="240" y="670" type="curve" smooth="yes"/>
      <point x="240" y="663"/>
      <point x="237" y="651"/>
      <point x="234" y="636" type="curve" smooth="yes"/>
      <point x="113" y="70" type="line" smooth="yes"/>
      <point x="102" y="17"/>
      <point x="60" y="10"/>
      <point x="13" y="10" type="curve" smooth="yes"/>
      <point x="-21" y="10" type="line"/>
      <point x="-23" y="0" type="line"/>
      <point x="229" y="0" type="line"/>
      <point x="231" y="10" type="line"/>
      <point x="222" y="10" type="line" smooth="yes"/>
      <point x="161" y="10"/>
      <point x="121" y="17"/>
      <point x="121" y="45" type="curve" smooth="yes"/>
      <point x="121" y="52"/>
      <point x="122" y="62"/>
      <point x="125" y="77" type="curve" smooth="yes"/>
      <point x="249" y="658" type="line"/>
      <point x="584" y="0" type="line"/>
      <point x="544" y="-157"/>
      <point x="460" y="-229"/>
      <point x="362" y="-229" type="curve" smooth="yes"/>
      <point x="321" y="-229"/>
      <point x="291" y="-217"/>
      <point x="275" y="-207" type="curve"/>
      <point x="269" y="-216" type="line"/>
      <point x="288" y="-227"/>
      <point x="320" y="-240"/>
    </contour>
  </outline>
</glyph>
<glyph name="eng" format="2">
  <advance width="673"/>
  <unicode hex="014B"/>
  <anchor x="218" y="-240" name="bottom"/>
  <anchor x="383" y="536" name="top"/>
  <anchor x="710" y="536" name="topright"/>
  <outline>
    <contour>
      <point x="278" y="-240" type="curve" smooth="yes"/>
      <point x="379" y="-240"/>
      <point x="471" y="-176"/>
      <point x="509" y="2" type="curve" smooth="yes"/>
      <point x="575" y="316" type="line" smooth="yes"/>
      <point x="582" y="351"/>
      <point x="593" y="397"/>
      <point x="593" y="431" type="curve" smooth="yes"/>
      <point x="593" y="496"/>
      <point x="564" y="546"/>
      <point x="474" y="546" type="curve" smooth="yes"/>
      <point x="387" y="546"/>
      <point x="331" y="510"/>
      <point x="282" y="414" type="curve"/>
      <point x="279" y="414" type="line"/>
      <point x="301" y="536" type="line"/>
      <point x="67" y="536" type="line"/>
      <point x="66" y="526" type="line"/>
      <point x="84" y="526" type="line" smooth="yes"/>
      <point x="122" y="526"/>
      <point x="137" y="516"/>
      <point x="137" y="489" type="curve" smooth="yes"/>
      <point x="137" y="479"/>
      <point x="133" y="458"/>
      <point x="130" y="441" type="curve" smooth="yes"/>
      <point x="37" y="0" type="line"/>
      <point x="187" y="0" type="line"/>
      <point x="267" y="345" type="line" smooth="yes"/>
      <point x="281" y="406"/>
      <point x="336" y="510"/>
      <point x="399" y="510" type="curve" smooth="yes"/>
      <point x="437" y="510"/>
      <point x="443" y="478"/>
      <point x="443" y="446" type="curve" smooth="yes"/>
      <point x="443" y="410"/>
      <point x="429" y="349"/>
      <point x="424" y="323" type="curve" smooth="yes"/>
      <point x="348" y="-35" type="line" smooth="yes"/>
      <point x="317" y="-180"/>
      <point x="291" y="-225"/>
      <point x="227" y="-225" type="curve" smooth="yes"/>
      <point x="213" y="-225"/>
      <point x="191" y="-221"/>
      <point x="182" y="-218" type="curve"/>
      <point x="179" y="-228" type="line"/>
      <point x="207" y="-235"/>
      <point x="236" y="-240"/>
    </contour>
  </outline>
</glyph>
<glyph name="OE" format="2">
  <advance width="1002"/>
  <unicode hex="0152"/>
  <anchor x="346" y="0" name="bottom"/>
  <anchor x="592" y="714" name="top"/>
  <outline>
    <contour>
      <point x="364" y="-5" type="curve" smooth="yes"/>
      <point x="390" y="-5"/>
      <point x="414" y="-3"/>
      <point x="436" y="0" type="curve"/>
      <point x="914" y="0" type="line"/>
      <point x="960" y="186" type="line"/>
      <point x="950" y="186" type="line"/>
      <point x="934" y="138" type="line" smooth="yes"/>
      <point x="915" y="83"/>
      <point x="873" y="10"/>
      <point x="764" y="10" type="curve" smooth="yes"/>
      <point x="591" y="10" type="line"/>
      <point x="668" y="371" type="line"/>
      <point x="895" y="371" type="line"/>
      <point x="896" y="381" type="line"/>
      <point x="670" y="381" type="line"/>
      <point x="738" y="704" type="line"/>
      <point x="896" y="704" type="line" smooth="yes"/>
      <point x="968" y="704"/>
      <point x="995" y="654"/>
      <point x="995" y="595" type="curve" smooth="yes"/>
      <point x="995" y="575"/>
      <point x="992" y="552"/>
      <point x="988" y="528" type="curve"/>
      <point x="998" y="528" type="line"/>
      <point x="1033" y="714" type="line"/>
      <point x="573" y="714" type="line"/>
      <point x="550" y="718"/>
      <point x="525" y="720"/>
      <point x="502" y="720" type="curve" smooth="yes"/>
      <point x="142" y="720"/>
      <point x="69" y="445"/>
      <point x="69" y="305" type="curve" smooth="yes"/>
      <point x="69" y="85"/>
      <point x="190" y="-5"/>
    </contour>
    <contour>
      <point x="365" y="5" type="curve" smooth="yes"/>
      <point x="286" y="5"/>
      <point x="233" y="65"/>
      <point x="233" y="225" type="curve" smooth="yes"/>
      <point x="233" y="480"/>
      <point x="325" y="710"/>
      <point x="504" y="710" type="curve" smooth="yes"/>
      <point x="533" y="710"/>
      <point x="558" y="704"/>
      <point x="578" y="695" type="curve"/>
      <point x="436" y="20" type="line"/>
      <point x="412" y="9"/>
      <point x="389" y="5"/>
    </contour>
  </outline>
</glyph>
<glyph name="oe" format="2">
  <advance width="890"/>
  <unicode hex="0153"/>
  <anchor x="430" y="0" name="bottom"/>
  <anchor x="533" y="536" name="top"/>
  <outline>
    <contour>
      <point x="249" y="-10" type="curve" smooth="yes"/>
      <point x="330" y="-10"/>
      <point x="395" y="18"/>
      <point x="443" y="60" type="curve"/>
      <point x="480" y="13"/>
      <point x="541" y="-10"/>
      <point x="626" y="-10" type="curve" smooth="yes"/>
      <point x="759" y="-10"/>
      <point x="820" y="57"/>
      <point x="820" y="107" type="curve" smooth="yes"/>
      <point x="820" y="132"/>
      <point x="811" y="143"/>
      <point x="798" y="147" type="curve"/>
      <point x="772" y="61"/>
      <point x="727" y="1"/>
      <point x="649" y="1" type="curve" smooth="yes"/>
      <point x="587" y="1"/>
      <point x="552" y="56"/>
      <point x="552" y="187" type="curve" smooth="yes"/>
      <point x="552" y="200"/>
      <point x="554" y="233"/>
      <point x="556" y="248" type="curve"/>
      <point x="568" y="248"/>
      <point x="581" y="248"/>
      <point x="593" y="248" type="curve" smooth="yes"/>
      <point x="764" y="248"/>
      <point x="891" y="324"/>
      <point x="891" y="428" type="curve" smooth="yes"/>
      <point x="891" y="506"/>
      <point x="833" y="546"/>
      <point x="735" y="546" type="curve" smooth="yes"/>
      <point x="643" y="546"/>
      <point x="575" y="518"/>
      <point x="524" y="475" type="curve"/>
      <point x="488" y="524"/>
      <point x="430" y="546"/>
      <point x="361" y="546" type="curve" smooth="yes"/>
      <point x="137" y="546"/>
      <point x="33" y="350"/>
      <point x="33" y="200" type="curve" smooth="yes"/>
      <point x="33" y="59"/>
      <point x="120" y="-10"/>
    </contour>
    <contour>
      <point x="251" y="0" type="curve" smooth="yes"/>
      <point x="205" y="0"/>
      <point x="186" y="39"/>
      <point x="186" y="138" type="curve" smooth="yes"/>
      <point x="186" y="288"/>
      <point x="242" y="536"/>
      <point x="357" y="536" type="curve" smooth="yes"/>
      <point x="404" y="536"/>
      <point x="418" y="509"/>
      <point x="418" y="400" type="curve" smooth="yes"/>
      <point x="418" y="241"/>
      <point x="367" y="0"/>
    </contour>
    <contour>
      <point x="575" y="258" type="curve" smooth="yes"/>
      <point x="558" y="258" type="line"/>
      <point x="583" y="415"/>
      <point x="632" y="533"/>
      <point x="699" y="533" type="curve" smooth="yes"/>
      <point x="732" y="533"/>
      <point x="749" y="514"/>
      <point x="749" y="454" type="curve" smooth="yes"/>
      <point x="749" y="343"/>
      <point x="671" y="258"/>
    </contour>
  </outline>
</glyph>
<glyph name="Tbar" format="2">
  <advance width="653"/>
  <unicode hex="0166"/>
  <anchor x="270" y="0" name="bottom"/>
  <anchor x="422" y="714" name="top"/>
  <anchor x="352" y="357" name="center"/>
  <anchor x="724" y="714" name="topright"/>
  <outline>
    <contour>
      <point x="127" y="352" type="line"/>
      <point x="574" y="352" type="line"/>
      <point x="576" y="362" type="line"/>
      <point x="128" y="362" type="line"/>
    </contour>
    <component base="T"/>
  </outline>
</glyph>
<glyph name="tbar" format="2">
  <advance width="417"/>
  <unicode hex="0167"/>
  <anchor x="152" y="0" name="bottom"/>
  <anchor x="292" y="659" name="top"/>
  <anchor x="195" y="268" name="center"/>
  <anchor x="404" y="1040" name="topright"/>
  <outline>
    <contour>
      <point x="22" y="304" type="line"/>
      <point x="355" y="304" type="line"/>
      <point x="357" y="314" type="line"/>
      <point x="24" y="314" type="line"/>
    </contour>
    <component base="t"/>
  </outline>
</glyph>
<glyph name="longs" format="2">
  <advance width="405"/>
  <unicode hex="017F"/>
  <anchor x="-78" y="-240" name="bottom"/>
  <anchor x="406" y="770" name="top"/>
  <outline>
    <contour>
      <point x="-78" y="-240" type="curve" smooth="yes"/>
      <point x="42" y="-240"/>
      <point x="158" y="-192"/>
      <point x="204" y="25" type="curve" smooth="yes"/>
      <point x="333" y="634" type="line" smooth="yes"/>
      <point x="353" y="730"/>
      <point x="368" y="760"/>
      <point x="407" y="760" type="curve" smooth="yes"/>
      <point x="447" y="760"/>
      <point x="448" y="705"/>
      <point x="448" y="613" type="curve"/>
      <point x="523" y="613"/>
      <point x="563" y="639"/>
      <point x="563" y="683" type="curve" smooth="yes"/>
      <point x="563" y="732"/>
      <point x="509" y="770"/>
      <point x="406" y="770" type="curve" smooth="yes"/>
      <point x="271" y="770"/>
      <point x="195" y="706"/>
      <point x="168" y="573" type="curve" smooth="yes"/>
      <point x="38" y="-43" type="line" smooth="yes"/>
      <point x="7" y="-187"/>
      <point x="-24" y="-230"/>
      <point x="-94" y="-230" type="curve" smooth="yes"/>
      <point x="-106" y="-230"/>
      <point x="-126" y="-226"/>
      <point x="-137" y="-223" type="curve"/>
      <point x="-140" y="-232" type="line"/>
      <point x="-127" y="-236"/>
      <point x="-98" y="-240"/>
    </contour>
  </outline>
</glyph>
<glyph name="uni0180" format="2">
  <advance width="623"/>
  <unicode hex="0180"/>
  <anchor x="255" y="0" name="bottom"/>
  <anchor x="417" y="760" name="top"/>
  <anchor x="722" y="760" name="topright"/>
  <outline>
    <contour>
      <point x="70" y="624" type="line"/>
      <point x="464" y="624" type="line"/>
      <point x="466" y="634" type="line"/>
      <point x="72" y="634" type="line"/>
    </contour>
    <component base="b"/>
  </outline>
</glyph>
<glyph name="uni0191" format="2">
  <advance width="792"/>
  <unicode hex="0191"/>
  <anchor x="147" y="-10" name="bottom"/>
  <anchor x="565" y="714" name="top"/>
  <outline>
    <contour>
      <point x="147" y="-10" type="curve" smooth="yes"/>
      <point x="319" y="-10"/>
      <point x="403" y="79"/>
      <point x="425" y="184" type="curve" smooth="yes"/>
      <point x="464" y="366" type="line"/>
      <point x="702" y="366" type="line"/>
      <point x="704" y="377" type="line"/>
      <point x="466" y="377" type="line"/>
      <point x="535" y="704" type="line"/>
      <point x="686" y="704" type="line" smooth="yes"/>
      <point x="769" y="704"/>
      <point x="800" y="656"/>
      <point x="798" y="588" type="curve" smooth="yes"/>
      <point x="798" y="579"/>
      <point x="795" y="555"/>
      <point x="791" y="528" type="curve"/>
      <point x="801" y="528" type="line"/>
      <point x="836" y="714" type="line"/>
      <point x="285" y="714" type="line"/>
      <point x="283" y="704" type="line"/>
      <point x="296" y="704" type="line" smooth="yes"/>
      <point x="341" y="704"/>
      <point x="364" y="694"/>
      <point x="364" y="658" type="curve" smooth="yes"/>
      <point x="364" y="649"/>
      <point x="362" y="634"/>
      <point x="359" y="620" type="curve" smooth="yes"/>
      <point x="252" y="118" type="line" smooth="yes"/>
      <point x="236" y="43"/>
      <point x="216" y="0"/>
      <point x="155" y="0" type="curve" smooth="yes"/>
      <point x="89" y="0"/>
      <point x="63" y="48"/>
      <point x="63" y="149" type="curve" smooth="yes"/>
      <point x="63" y="160"/>
      <point x="64" y="172"/>
      <point x="65" y="185" type="curve"/>
      <point x="2" y="185"/>
      <point x="-42" y="162"/>
      <point x="-42" y="100" type="curve" smooth="yes"/>
      <point x="-42" y="31"/>
      <point x="38" y="-10"/>
    </contour>
  </outline>
</glyph>
<glyph name="uni0197" format="2">
  <advance width="425"/>
  <unicode hex="0197"/>
  <anchor x="144" y="0" name="bottom"/>
  <anchor x="296" y="714" name="top"/>
  <anchor x="472" y="714" name="topright"/>
  <outline>
    <contour>
      <point x="44" y="367" type="line"/>
      <point x="403" y="367" type="line"/>
      <point x="405" y="377" type="line"/>
      <point x="47" y="377" type="line"/>
    </contour>
    <component base="I"/>
  </outline>
</glyph>
<glyph name="uni019A" format="2">
  <advance width="334"/>
  <unicode hex="019A"/>
  <anchor x="121" y="0" name="bottom"/>
  <anchor x="283" y="760" name="top"/>
  <anchor x="248" y="268" name="center"/>
  <anchor x="452" y="760" name="topright"/>
  <outline>
    <contour>
      <point x="9" y="384" type="line"/>
      <point x="365" y="384" type="line"/>
      <point x="367" y="394" type="line"/>
      <point x="11" y="394" type="line"/>
    </contour>
    <component base="l"/>
  </outline>
</glyph>
<glyph name="Ohorn" format="2">
  <advance width="844"/>
  <unicode hex="01A0"/>
  <anchor x="365" y="0" name="bottom"/>
  <anchor x="517" y="714" name="top"/>
  <outline>
    <contour>
      <point x="354" y="-11" type="curve" smooth="yes"/>
      <point x="688" y="-11"/>
      <point x="766" y="315"/>
      <point x="766" y="439" type="curve" smooth="yes"/>
      <point x="766" y="471"/>
      <point x="763" y="499"/>
      <point x="758" y="525" type="curve"/>
      <point x="866" y="561"/>
      <point x="932" y="625"/>
      <point x="932" y="700" type="curve" smooth="yes"/>
      <point x="932" y="744"/>
      <point x="905" y="770"/>
      <point x="864" y="770" type="curve" smooth="yes"/>
      <point x="827" y="770"/>
      <point x="798" y="747"/>
      <point x="798" y="707" type="curve" smooth="yes"/>
      <point x="798" y="662"/>
      <point x="833" y="653"/>
      <point x="833" y="615" type="curve" smooth="yes"/>
      <point x="833" y="580"/>
      <point x="816" y="557"/>
      <point x="755" y="536" type="curve"/>
      <point x="721" y="672"/>
      <point x="614" y="725"/>
      <point x="485" y="725" type="curve" smooth="yes"/>
      <point x="147" y="725"/>
      <point x="63" y="425"/>
      <point x="63" y="285" type="curve" smooth="yes"/>
      <point x="63" y="75"/>
      <point x="180" y="-11"/>
    </contour>
    <contour>
      <point x="355" y="-1" type="curve" smooth="yes"/>
      <point x="276" y="-1"/>
      <point x="227" y="55"/>
      <point x="227" y="215" type="curve" smooth="yes"/>
      <point x="227" y="470"/>
      <point x="322" y="715"/>
      <point x="485" y="715" type="curve" smooth="yes"/>
      <point x="566" y="715"/>
      <point x="604" y="669"/>
      <point x="604" y="490" type="curve" smooth="yes"/>
      <point x="604" y="269"/>
      <point x="521" y="-1"/>
    </contour>
  </outline>
</glyph>
<glyph name="ohorn" format="2">
  <advance width="670"/>
  <unicode hex="01A1"/>
  <anchor x="278" y="0" name="bottom"/>
  <anchor x="392" y="536" name="top"/>
  <outline>
    <contour>
      <point x="256" y="-10" type="curve" smooth="yes"/>
      <point x="476" y="-10"/>
      <point x="577" y="192"/>
      <point x="577" y="336" type="curve" smooth="yes"/>
      <point x="577" y="354"/>
      <point x="576" y="371"/>
      <point x="573" y="387" type="curve"/>
      <point x="672" y="423"/>
      <point x="732" y="484"/>
      <point x="732" y="556" type="curve" smooth="yes"/>
      <point x="732" y="600"/>
      <point x="705" y="626"/>
      <point x="664" y="626" type="curve" smooth="yes"/>
      <point x="627" y="626"/>
      <point x="598" y="603"/>
      <point x="598" y="563" type="curve" smooth="yes"/>
      <point x="598" y="518"/>
      <point x="633" y="509"/>
      <point x="633" y="471" type="curve" smooth="yes"/>
      <point x="633" y="439"/>
      <point x="619" y="417"/>
      <point x="571" y="398" type="curve"/>
      <point x="548" y="502"/>
      <point x="465" y="546"/>
      <point x="368" y="546" type="curve" smooth="yes"/>
      <point x="144" y="546"/>
      <point x="40" y="350"/>
      <point x="40" y="200" type="curve" smooth="yes"/>
      <point x="40" y="59"/>
      <point x="127" y="-10"/>
    </contour>
    <contour>
      <point x="258" y="0" type="curve" smooth="yes"/>
      <point x="212" y="0"/>
      <point x="193" y="39"/>
      <point x="193" y="138" type="curve" smooth="yes"/>
      <point x="193" y="288"/>
      <point x="249" y="536"/>
      <point x="364" y="536" type="curve" smooth="yes"/>
      <point x="411" y="536"/>
      <point x="425" y="509"/>
      <point x="425" y="400" type="curve" smooth="yes"/>
      <point x="425" y="241"/>
      <point x="374" y="0"/>
    </contour>
  </outline>
</glyph>
<glyph name="Uhorn" format="2">
  <advance width="853"/>
  <unicode hex="01AF"/>
  <anchor x="370" y="0" name="bottom"/>
  <anchor x="522" y="714" name="top"/>
  <outline>
    <contour>
      <point x="341" y="-10" type="curve" smooth="yes"/>
      <point x="510" y="-10"/>
      <point x="593" y="66"/>
      <point x="625" y="220" type="curve" smooth="yes"/>
      <point x="687" y="519" type="line"/>
      <point x="835" y="537"/>
      <point x="920" y="621"/>
      <point x="920" y="700" type="curve" smooth="yes"/>
      <point x="920" y="744"/>
      <point x="893" y="770"/>
      <point x="852" y="770" type="curve" smooth="yes"/>
      <point x="815" y="770"/>
      <point x="786" y="747"/>
      <point x="786" y="707" type="curve" smooth="yes"/>
      <point x="786" y="662"/>
      <point x="821" y="653"/>
      <point x="821" y="615" type="curve" smooth="yes"/>
      <point x="821" y="574"/>
      <point x="790" y="542"/>
      <point x="690" y="530" type="curve"/>
      <point x="728" y="714" type="line"/>
      <point x="618" y="714" type="line"/>
      <point x="616" y="704" type="line"/>
      <point x="636" y="704" type="line" smooth="yes"/>
      <point x="677" y="704"/>
      <point x="707" y="699"/>
      <point x="707" y="670" type="curve" smooth="yes"/>
      <point x="707" y="665"/>
      <point x="706" y="651"/>
      <point x="703" y="640" type="curve"/>
      <point x="613" y="218" type="line" smooth="yes"/>
      <point x="585" y="81"/>
      <point x="508" y="5"/>
      <point x="373" y="5" type="curve" smooth="yes"/>
      <point x="288" y="5"/>
      <point x="252" y="55"/>
      <point x="252" y="139" type="curve" smooth="yes"/>
      <point x="252" y="173"/>
      <point x="258" y="210"/>
      <point x="266" y="250" type="curve" smooth="yes"/>
      <point x="352" y="645" type="line" smooth="yes"/>
      <point x="363" y="696"/>
      <point x="403" y="704"/>
      <point x="447" y="704" type="curve" smooth="yes"/>
      <point x="460" y="704" type="line"/>
      <point x="462" y="714" type="line"/>
      <point x="115" y="714" type="line"/>
      <point x="113" y="704" type="line"/>
      <point x="126" y="704" type="line" smooth="yes"/>
      <point x="168" y="704"/>
      <point x="197" y="699"/>
      <point x="197" y="670" type="curve" smooth="yes"/>
      <point x="197" y="661"/>
      <point x="193" y="641"/>
      <point x="189" y="623" type="curve" smooth="yes"/>
      <point x="110" y="252" type="line" smooth="yes"/>
      <point x="105" y="229"/>
      <point x="99" y="184"/>
      <point x="99" y="163" type="curve" smooth="yes"/>
      <point x="99" y="53"/>
      <point x="185" y="-10"/>
    </contour>
  </outline>
</glyph>
<glyph name="uni01B6" format="2">
  <advance width="571"/>
  <unicode hex="01B6"/>
  <anchor x="223" y="0" name="bottom"/>
  <anchor x="337" y="536" name="top"/>
  <anchor x="598" y="536" name="topright"/>
  <outline>
    <contour>
      <point x="62" y="272" type="line"/>
      <point x="480" y="272" type="line"/>
      <point x="482" y="282" type="line"/>
      <point x="65" y="282" type="line"/>
    </contour>
    <component base="z"/>
  </outline>
</glyph>
<glyph name="uni01E5" format="2">
  <advance width="580"/>
  <unicode hex="01E5"/>
  <anchor x="182" y="-240" name="bottom"/>
  <anchor x="357" y="582" name="top"/>
  <anchor x="665" y="536" name="topright"/>
  <outline>
    <contour>
      <point x="188" y="-103" type="line"/>
      <point x="553" y="-103" type="line"/>
      <point x="556" y="-93" type="line"/>
      <point x="190" y="-93" type="line"/>
    </contour>
    <component base="g"/>
  </outline>
</glyph>
<glyph name="Aringacute" format="2">
  <advance width="753"/>
  <unicode hex="01FA"/>
  <anchor x="320" y="0" name="bottom"/>
  <anchor x="531" y="974" name="top"/>
  <outline>
    <contour>
      <point x="-49" y="0" type="line"/>
      <point x="195" y="0" type="line"/>
      <point x="197" y="10" type="line"/>
      <point x="149" y="10" type="line" smooth="yes"/>
      <point x="105" y="10"/>
      <point x="86" y="17"/>
      <point x="86" y="37" type="curve" smooth="yes"/>
      <point x="86" y="50"/>
      <point x="91" y="65"/>
      <point x="111" y="96" type="curve" smooth="yes"/>
      <point x="208" y="251" type="line"/>
      <point x="448" y="251" type="line"/>
      <point x="475" y="81" type="line"/>
      <point x="476" y="71"/>
      <point x="477" y="61"/>
      <point x="477" y="51" type="curve" smooth="yes"/>
      <point x="477" y="23"/>
      <point x="449" y="10"/>
      <point x="404" y="10" type="curve" smooth="yes"/>
      <point x="372" y="10" type="line"/>
      <point x="370" y="0" type="line"/>
      <point x="701" y="0" type="line"/>
      <point x="703" y="10" type="line"/>
      <point x="695" y="10" type="line" smooth="yes"/>
      <point x="656" y="10"/>
      <point x="648" y="21"/>
      <point x="636" y="81" type="curve" smooth="yes"/>
      <point x="538" y="590" type="line"/>
      <point x="572" y="607"/>
      <point x="594" y="640"/>
      <point x="594" y="688" type="curve" smooth="yes"/>
      <point x="594" y="762"/>
      <point x="541" y="800"/>
      <point x="474" y="800" type="curve" smooth="yes"/>
      <point x="407" y="800"/>
      <point x="354" y="762"/>
      <point x="354" y="688" type="curve" smooth="yes"/>
      <point x="354" y="641"/>
      <point x="376" y="608"/>
      <point x="409" y="591" type="curve"/>
      <point x="91" y="85" type="line" smooth="yes"/>
      <point x="53" y="24"/>
      <point x="30" y="10"/>
      <point x="-8" y="10" type="curve" smooth="yes"/>
      <point x="-47" y="10" type="line"/>
    </contour>
    <contour>
      <point x="215" y="261" type="line"/>
      <point x="319" y="426" type="line" smooth="yes"/>
      <point x="356" y="485"/>
      <point x="384" y="528"/>
      <point x="404" y="563" type="curve"/>
      <point x="409" y="522"/>
      <point x="415" y="486"/>
      <point x="423" y="425" type="curve" smooth="yes"/>
      <point x="447" y="261" type="line"/>
    </contour>
    <contour>
      <point x="474" y="586" type="curve" smooth="yes"/>
      <point x="414" y="586"/>
      <point x="367" y="618"/>
      <point x="367" y="689" type="curve" smooth="yes"/>
      <point x="367" y="759"/>
      <point x="414" y="790"/>
      <point x="474" y="790" type="curve" smooth="yes"/>
      <point x="534" y="790"/>
      <point x="582" y="759"/>
      <point x="582" y="689" type="curve" smooth="yes"/>
      <point x="582" y="618"/>
      <point x="534" y="586"/>
    </contour>
    <contour>
      <point x="441" y="827" type="line"/>
      <point x="454" y="827" type="line"/>
      <point x="530" y="860"/>
      <point x="651" y="934"/>
      <point x="683" y="965" type="curve"/>
      <point x="686" y="974" type="line"/>
      <point x="556" y="974" type="line"/>
      <point x="527" y="933"/>
      <point x="479" y="874"/>
      <point x="444" y="839" type="curve"/>
    </contour>
  </outline>
</glyph>
<glyph name="uni0247" format="2">
  <advance width="535"/>
  <unicode hex="0247"/>
  <anchor x="176" y="-167" name="bottom"/>
  <anchor x="363" y="714" name="top"/>
  <anchor x="571" y="536" name="topright"/>
  <outline>
    <contour>
      <point x="38" y="-166" type="line"/>
      <point x="49" y="-166" type="line"/>
      <point x="475" y="715" type="line"/>
      <point x="464" y="715" type="line"/>
    </contour>
    <component base="e"/>
  </outline>
</glyph>
<glyph name="uni0248" format="2">
  <advance width="423"/>
  <unicode hex="0248"/>
  <anchor x="93" y="-240" name="bottom"/>
  <anchor x="296" y="714" name="top"/>
  <anchor x="476" y="714" name="topright"/>
  <outline>
    <contour>
      <point x="39" y="368" type="line"/>
      <point x="413" y="368" type="line"/>
      <point x="416" y="378" type="line"/>
      <point x="41" y="378" type="line"/>
    </contour>
    <component base="J"/>
  </outline>
</glyph>
<glyph name="uni024F" format="2">
  <advance width="583"/>
  <unicode hex="024F"/>
  <anchor x="58" y="-240" name="bottom"/>
  <anchor x="321" y="536" name="top"/>
  <anchor x="606" y="536" name="topright"/>
  <outline>
    <contour>
      <point x="4" y="324" type="line"/>
      <point x="599" y="324" type="line"/>
      <point x="602" y="334" type="line"/>
      <point x="6" y="334" type="line"/>
    </contour>
    <component base="y"/>
  </outline>
</glyph>
<glyph name="schwahook" format="2">
  <advance width="814"/>
  <unicode hex="025A"/>
  <anchor x="278" y="0" name="bottom"/>
  <anchor x="375" y="536" name="top"/>
  <outline>
    <contour>
      <point x="174" y="-10" type="curve" smooth="yes"/>
      <point x="375" y="-10"/>
      <point x="510" y="139"/>
      <point x="510" y="349" type="curve"/>
      <point x="577" y="367" type="line"/>
      <point x="589" y="321" type="line" smooth="yes"/>
      <point x="620" y="201"/>
      <point x="641" y="149"/>
      <point x="707" y="149" type="curve" smooth="yes"/>
      <point x="750" y="149"/>
      <point x="778" y="180"/>
      <point x="778" y="222" type="curve" smooth="yes"/>
      <point x="778" y="252"/>
      <point x="759" y="272"/>
      <point x="738" y="280" type="curve"/>
      <point x="732" y="248"/>
      <point x="714" y="225"/>
      <point x="680" y="225" type="curve" smooth="yes"/>
      <point x="633" y="225"/>
      <point x="617" y="260"/>
      <point x="603" y="314" type="curve" smooth="yes"/>
      <point x="586" y="379" type="line"/>
      <point x="509" y="359" type="line"/>
      <point x="502" y="485"/>
      <point x="421" y="546"/>
      <point x="283" y="546" type="curve" smooth="yes"/>
      <point x="150" y="546"/>
      <point x="89" y="479"/>
      <point x="89" y="429" type="curve" smooth="yes"/>
      <point x="89" y="404"/>
      <point x="98" y="393"/>
      <point x="111" y="389" type="curve"/>
      <point x="137" y="475"/>
      <point x="182" y="535"/>
      <point x="260" y="535" type="curve" smooth="yes"/>
      <point x="322" y="535"/>
      <point x="357" y="491"/>
      <point x="357" y="360" type="curve" smooth="yes"/>
      <point x="357" y="347"/>
      <point x="356" y="336"/>
      <point x="354" y="321" type="curve"/>
      <point x="109" y="255"/>
      <point x="18" y="217"/>
      <point x="18" y="108" type="curve" smooth="yes"/>
      <point x="18" y="30"/>
      <point x="76" y="-10"/>
    </contour>
    <contour>
      <point x="210" y="3" type="curve" smooth="yes"/>
      <point x="177" y="3"/>
      <point x="160" y="22"/>
      <point x="160" y="82" type="curve" smooth="yes"/>
      <point x="160" y="207"/>
      <point x="221" y="274"/>
      <point x="352" y="309" type="curve"/>
      <point x="327" y="152"/>
      <point x="277" y="3"/>
    </contour>
  </outline>
</glyph>
<glyph name="eopenreversedhook" format="2">
  <advance width="809"/>
  <unicode hex="025D"/>
  <anchor x="202" y="0" name="bottom"/>
  <anchor x="308" y="536" name="top"/>
  <outline>
    <contour>
      <point x="712" y="197" type="curve" smooth="yes"/>
      <point x="755" y="197"/>
      <point x="783" y="228"/>
      <point x="783" y="270" type="curve" smooth="yes"/>
      <point x="783" y="300"/>
      <point x="764" y="320"/>
      <point x="743" y="328" type="curve"/>
      <point x="737" y="296"/>
      <point x="719" y="273"/>
      <point x="685" y="273" type="curve" smooth="yes"/>
      <point x="638" y="273"/>
      <point x="622" y="308"/>
      <point x="608" y="362" type="curve" smooth="yes"/>
      <point x="591" y="427" type="line"/>
      <point x="441" y="388" type="line"/>
      <point x="442" y="378" type="line"/>
      <point x="582" y="415" type="line"/>
      <point x="594" y="369" type="line" smooth="yes"/>
      <point x="625" y="249"/>
      <point x="646" y="197"/>
    </contour>
    <component base="afii10073"/>
  </outline>
</glyph>
<glyph name="rlongleg" format="2">
  <advance width="547"/>
  <unicode hex="027C"/>
  <anchor x="168" y="-240" name="bottom"/>
  <anchor x="333" y="536" name="top"/>
  <outline>
    <contour>
      <point x="130" y="440" type="curve" smooth="yes"/>
      <point x="-13" y="-240" type="line"/>
      <point x="137" y="-240" type="line"/>
      <point x="257" y="308" type="line" smooth="yes"/>
      <point x="282" y="421"/>
      <point x="330" y="510"/>
      <point x="382" y="510" type="curve" smooth="yes"/>
      <point x="424" y="510"/>
      <point x="437" y="480"/>
      <point x="429" y="364" type="curve"/>
      <point x="504" y="364"/>
      <point x="548" y="395"/>
      <point x="548" y="461" type="curve" smooth="yes"/>
      <point x="548" y="514"/>
      <point x="514" y="546"/>
      <point x="442" y="546" type="curve" smooth="yes"/>
      <point x="354" y="546"/>
      <point x="306" y="495"/>
      <point x="267" y="379" type="curve"/>
      <point x="264" y="379" type="line"/>
      <point x="290" y="536" type="line"/>
      <point x="66" y="536" type="line"/>
      <point x="64" y="526" type="line"/>
      <point x="84" y="526" type="line" smooth="yes"/>
      <point x="116" y="526"/>
      <point x="137" y="516"/>
      <point x="137" y="491" type="curve" smooth="yes"/>
      <point x="137" y="477"/>
      <point x="134" y="459"/>
    </contour>
  </outline>
</glyph>
<glyph name="rfishhookreversed" format="2">
  <advance width="478"/>
  <unicode hex="027F"/>
  <anchor x="125" y="-240" name="bottom"/>
  <anchor x="292" y="545" name="top"/>
  <outline>
    <contour>
      <point x="128" y="-240" type="line"/>
      <point x="281" y="-240" type="line"/>
      <point x="399" y="313" type="line" smooth="yes"/>
      <point x="405" y="342"/>
      <point x="409" y="368"/>
      <point x="409" y="397" type="curve" smooth="yes"/>
      <point x="409" y="491"/>
      <point x="346" y="549"/>
      <point x="217" y="549" type="curve" smooth="yes"/>
      <point x="84" y="549"/>
      <point x="15" y="509"/>
      <point x="15" y="434" type="curve" smooth="yes"/>
      <point x="15" y="388"/>
      <point x="55" y="360"/>
      <point x="126" y="360" type="curve"/>
      <point x="146" y="486"/>
      <point x="169" y="539"/>
      <point x="228" y="539" type="curve" smooth="yes"/>
      <point x="267" y="539"/>
      <point x="275" y="510"/>
      <point x="275" y="477" type="curve" smooth="yes"/>
      <point x="275" y="450"/>
      <point x="270" y="419"/>
      <point x="264" y="392" type="curve" smooth="yes"/>
    </contour>
  </outline>
</glyph>
<glyph name="eshsquatreversed" format="2">
  <advance width="458"/>
  <unicode hex="0285"/>
  <anchor x="129" y="-240" name="bottom"/>
  <anchor x="294" y="536" name="top"/>
  <outline>
    <contour>
      <point x="310" y="-241" type="curve" smooth="yes"/>
      <point x="429" y="-241"/>
      <point x="498" y="-201"/>
      <point x="498" y="-126" type="curve" smooth="yes"/>
      <point x="498" y="-80"/>
      <point x="458" y="-52"/>
      <point x="387" y="-52" type="curve"/>
      <point x="367" y="-178"/>
      <point x="344" y="-231"/>
      <point x="299" y="-231" type="curve" smooth="yes"/>
      <point x="276" y="-231"/>
      <point x="268" y="-202"/>
      <point x="268" y="-169" type="curve" smooth="yes"/>
      <point x="268" y="-142"/>
      <point x="273" y="-111"/>
      <point x="279" y="-84" type="curve" smooth="yes"/>
      <point x="361" y="274" type="line" smooth="yes"/>
      <point x="375" y="334"/>
      <point x="379" y="368"/>
      <point x="379" y="397" type="curve" smooth="yes"/>
      <point x="379" y="491"/>
      <point x="316" y="549"/>
      <point x="203" y="549" type="curve" smooth="yes"/>
      <point x="84" y="549"/>
      <point x="15" y="509"/>
      <point x="15" y="434" type="curve" smooth="yes"/>
      <point x="15" y="388"/>
      <point x="55" y="360"/>
      <point x="126" y="360" type="curve"/>
      <point x="146" y="486"/>
      <point x="169" y="539"/>
      <point x="214" y="539" type="curve" smooth="yes"/>
      <point x="237" y="539"/>
      <point x="245" y="510"/>
      <point x="245" y="477" type="curve" smooth="yes"/>
      <point x="245" y="450"/>
      <point x="240" y="419"/>
      <point x="234" y="392" type="curve" smooth="yes"/>
      <point x="152" y="34" type="line" smooth="yes"/>
      <point x="138" y="-26"/>
      <point x="134" y="-60"/>
      <point x="134" y="-89" type="curve" smooth="yes"/>
      <point x="134" y="-183"/>
      <point x="197" y="-241"/>
    </contour>
  </outline>
</glyph>
<glyph name="eshcurl" format="2">
  <advance width="404"/>
  <unicode hex="0286"/>
  <anchor x="95" y="-240" name="bottom"/>
  <anchor x="310" y="770" name="top"/>
  <outline>
    <contour>
      <point x="-17" y="-237" type="curve" smooth="yes"/>
      <point x="87" y="-237"/>
      <point x="148" y="-177"/>
      <point x="184" y="-100" type="curve"/>
      <point x="203" y="-120"/>
      <point x="224" y="-148"/>
      <point x="234" y="-182" type="curve"/>
      <point x="245" y="-178" type="line"/>
      <point x="234" y="-143"/>
      <point x="214" y="-114"/>
      <point x="190" y="-90" type="curve"/>
      <point x="203" y="-61"/>
      <point x="216" y="-16"/>
      <point x="224" y="20" type="curve" smooth="yes"/>
      <point x="353" y="634" type="line" smooth="yes"/>
      <point x="373" y="730"/>
      <point x="388" y="760"/>
      <point x="422" y="760" type="curve" smooth="yes"/>
      <point x="454" y="760"/>
      <point x="455" y="705"/>
      <point x="455" y="613" type="curve"/>
      <point x="532" y="613"/>
      <point x="570" y="637"/>
      <point x="570" y="684" type="curve" smooth="yes"/>
      <point x="570" y="733"/>
      <point x="522" y="770"/>
      <point x="421" y="770" type="curve" smooth="yes"/>
      <point x="291" y="770"/>
      <point x="216" y="706"/>
      <point x="188" y="573" type="curve" smooth="yes"/>
      <point x="62" y="-26" type="line"/>
      <point x="52" y="-25"/>
      <point x="31" y="-21"/>
      <point x="2" y="-21" type="curve" smooth="yes"/>
      <point x="-100" y="-21"/>
      <point x="-150" y="-69"/>
      <point x="-150" y="-135" type="curve" smooth="yes"/>
      <point x="-150" y="-187"/>
      <point x="-116" y="-237"/>
    </contour>
    <contour>
      <point x="-60" y="-215" type="curve" smooth="yes"/>
      <point x="-111" y="-215"/>
      <point x="-140" y="-178"/>
      <point x="-140" y="-135" type="curve" smooth="yes"/>
      <point x="-140" y="-77"/>
      <point x="-94" y="-31"/>
      <point x="-1" y="-31" type="curve" smooth="yes"/>
      <point x="25" y="-31"/>
      <point x="47" y="-34"/>
      <point x="60" y="-38" type="curve"/>
      <point x="33" y="-169"/>
      <point x="6" y="-215"/>
    </contour>
  </outline>
</glyph>
<glyph name="cstretched" format="2">
  <advance width="580"/>
  <unicode hex="0297"/>
  <anchor x="181" y="-240" name="bottom"/>
  <anchor x="346" y="536" name="top"/>
  <outline>
    <contour>
      <point x="273" y="-238" type="curve" smooth="yes"/>
      <point x="409" y="-238"/>
      <point x="458" y="-174"/>
      <point x="458" y="-122" type="curve" smooth="yes"/>
      <point x="458" y="-98"/>
      <point x="445" y="-86"/>
      <point x="431" y="-80" type="curve"/>
      <point x="404" y="-192"/>
      <point x="346" y="-225"/>
      <point x="301" y="-225" type="curve" smooth="yes"/>
      <point x="231" y="-225"/>
      <point x="193" y="-155"/>
      <point x="193" y="23" type="curve" smooth="yes"/>
      <point x="193" y="224"/>
      <point x="267" y="534"/>
      <point x="388" y="534" type="curve" smooth="yes"/>
      <point x="437" y="534"/>
      <point x="453" y="481"/>
      <point x="453" y="356" type="curve"/>
      <point x="550" y="356"/>
      <point x="575" y="393"/>
      <point x="575" y="440" type="curve" smooth="yes"/>
      <point x="575" y="497"/>
      <point x="527" y="546"/>
      <point x="400" y="546" type="curve" smooth="yes"/>
      <point x="121" y="546"/>
      <point x="40" y="245"/>
      <point x="40" y="69" type="curve" smooth="yes"/>
      <point x="40" y="-159"/>
      <point x="133" y="-238"/>
    </contour>
  </outline>
</glyph>
<glyph name="uni02A1" format="2">
  <advance width="546"/>
  <unicode hex="02A1"/>
  <anchor x="194" y="0" name="bottom"/>
  <anchor x="357" y="766" name="top"/>
  <anchor x="631" y="766" name="topright"/>
  <outline>
    <contour>
      <point x="49" y="193" type="line"/>
      <point x="405" y="193" type="line"/>
      <point x="407" y="203" type="line"/>
      <point x="51" y="203" type="line"/>
    </contour>
    <component base="uni0294"/>
  </outline>
</glyph>
<glyph name="circumflex" format="2">
  <advance width="421"/>
  <unicode hex="02C6"/>
  <outline>
    <contour>
      <point x="114" y="614" type="curve"/>
      <point x="113" y="606" type="line"/>
      <point x="126" y="606" type="line"/>
      <point x="191" y="633"/>
      <point x="268" y="678"/>
      <point x="310" y="707" type="curve"/>
      <point x="341" y="677"/>
      <point x="386" y="639"/>
      <point x="443" y="606" type="curve"/>
      <point x="453" y="606" type="line"/>
      <point x="454" y="614" type="line"/>
      <point x="429" y="649"/>
      <point x="388" y="725"/>
      <point x="370" y="766" type="curve"/>
      <point x="261" y="766" type="line"/>
      <point x="223" y="719"/>
      <point x="164" y="658"/>
    </contour>
  </outline>
</glyph>
<glyph name="caron" format="2">
  <advance width="421"/>
  <unicode hex="02C7"/>
  <outline>
    <contour>
      <point x="229" y="606" type="curve"/>
      <point x="338" y="606" type="line"/>
      <point x="376" y="653"/>
      <point x="435" y="714"/>
      <point x="485" y="758" type="curve"/>
      <point x="486" y="766" type="line"/>
      <point x="473" y="766" type="line"/>
      <point x="408" y="739"/>
      <point x="331" y="694"/>
      <point x="289" y="665" type="curve"/>
      <point x="258" y="695"/>
      <point x="213" y="733"/>
      <point x="156" y="766" type="curve"/>
      <point x="146" y="766" type="line"/>
      <point x="145" y="758" type="line"/>
      <point x="170" y="723"/>
      <point x="211" y="647"/>
    </contour>
  </outline>
</glyph>
<glyph name="breve" format="2">
  <advance width="397"/>
  <unicode hex="02D8"/>
  <outline>
    <contour>
      <point x="284" y="606" type="curve" smooth="yes"/>
      <point x="389" y="606"/>
      <point x="445" y="676"/>
      <point x="462" y="763" type="curve"/>
      <point x="452" y="763" type="line"/>
      <point x="427" y="712"/>
      <point x="385" y="681"/>
      <point x="293" y="681" type="curve" smooth="yes"/>
      <point x="212" y="681"/>
      <point x="165" y="717"/>
      <point x="155" y="763" type="curve"/>
      <point x="145" y="763" type="line"/>
      <point x="147" y="666"/>
      <point x="190" y="606"/>
    </contour>
  </outline>
</glyph>
<glyph name="dotaccent" format="2">
  <advance width="232"/>
  <unicode hex="02D9"/>
  <outline>
    <contour>
      <point x="200" y="626" type="curve" smooth="yes"/>
      <point x="242" y="626"/>
      <point x="283" y="651"/>
      <point x="283" y="705" type="curve" smooth="yes"/>
      <point x="283" y="751"/>
      <point x="250" y="766"/>
      <point x="213" y="766" type="curve" smooth="yes"/>
      <point x="170" y="766"/>
      <point x="132" y="745"/>
      <point x="132" y="686" type="curve" smooth="yes"/>
      <point x="132" y="644"/>
      <point x="161" y="626"/>
    </contour>
  </outline>
</glyph>
<glyph name="ring" format="2">
  <advance width="333"/>
  <unicode hex="02DA"/>
  <outline>
    <contour>
      <point x="258" y="587" type="curve" smooth="yes"/>
      <point x="325" y="587"/>
      <point x="378" y="625"/>
      <point x="378" y="699" type="curve" smooth="yes"/>
      <point x="378" y="773"/>
      <point x="325" y="811"/>
      <point x="258" y="811" type="curve" smooth="yes"/>
      <point x="191" y="811"/>
      <point x="138" y="773"/>
      <point x="138" y="699" type="curve" smooth="yes"/>
      <point x="138" y="625"/>
      <point x="191" y="587"/>
    </contour>
    <contour>
      <point x="258" y="597" type="curve" smooth="yes"/>
      <point x="198" y="597"/>
      <point x="150" y="629"/>
      <point x="150" y="700" type="curve" smooth="yes"/>
      <point x="150" y="770"/>
      <point x="198" y="801"/>
      <point x="258" y="801" type="curve" smooth="yes"/>
      <point x="318" y="801"/>
      <point x="366" y="770"/>
      <point x="366" y="700" type="curve" smooth="yes"/>
      <point x="366" y="629"/>
      <point x="318" y="597"/>
    </contour>
  </outline>
</glyph>
<glyph name="ogonek" format="2">
  <advance width="313"/>
  <unicode hex="02DB"/>
  <outline>
    <contour>
      <point x="62" y="-237" type="curve" smooth="yes"/>
      <point x="103" y="-237"/>
      <point x="145" y="-228"/>
      <point x="170" y="-218" type="curve"/>
      <point x="171" y="-205" type="line"/>
      <point x="152" y="-213"/>
      <point x="134" y="-217"/>
      <point x="116" y="-217" type="curve" smooth="yes"/>
      <point x="82" y="-217"/>
      <point x="52" y="-200"/>
      <point x="52" y="-148" type="curve" smooth="yes"/>
      <point x="52" y="-66"/>
      <point x="109" y="-22"/>
      <point x="169" y="6" type="curve"/>
      <point x="146" y="6" type="line"/>
      <point x="44" y="-35"/>
      <point x="-48" y="-73"/>
      <point x="-48" y="-155" type="curve" smooth="yes"/>
      <point x="-48" y="-209"/>
      <point x="-5" y="-237"/>
    </contour>
  </outline>
</glyph>
<glyph name="tilde" format="2">
  <advance width="450"/>
  <unicode hex="02DC"/>
  <outline>
    <contour>
      <point x="383" y="609" type="curve" smooth="yes"/>
      <point x="461" y="609"/>
      <point x="499" y="680"/>
      <point x="513" y="751" type="curve"/>
      <point x="503" y="751" type="line"/>
      <point x="490" y="716"/>
      <point x="473" y="688"/>
      <point x="433" y="688" type="curve" smooth="yes"/>
      <point x="363" y="688"/>
      <point x="322" y="758"/>
      <point x="249" y="758" type="curve" smooth="yes"/>
      <point x="172" y="758"/>
      <point x="129" y="689"/>
      <point x="114" y="616" type="curve"/>
      <point x="124" y="616" type="line"/>
      <point x="134" y="643"/>
      <point x="154" y="680"/>
      <point x="199" y="680" type="curve" smooth="yes"/>
      <point x="266" y="680"/>
      <point x="305" y="609"/>
    </contour>
  </outline>
</glyph>
<glyph name="rhotichookmod" format="2">
  <advance width="271"/>
  <unicode hex="02DE"/>
  <outline>
    <contour>
      <point x="169" y="172" type="curve" smooth="yes"/>
      <point x="212" y="172"/>
      <point x="240" y="203"/>
      <point x="240" y="245" type="curve" smooth="yes"/>
      <point x="240" y="275"/>
      <point x="221" y="295"/>
      <point x="200" y="303" type="curve"/>
      <point x="194" y="271"/>
      <point x="176" y="248"/>
      <point x="142" y="248" type="curve" smooth="yes"/>
      <point x="95" y="248"/>
      <point x="79" y="283"/>
      <point x="65" y="337" type="curve" smooth="yes"/>
      <point x="48" y="402" type="line"/>
      <point x="-127" y="356" type="line"/>
      <point x="-126" y="346" type="line"/>
      <point x="39" y="390" type="line"/>
      <point x="51" y="344" type="line" smooth="yes"/>
      <point x="82" y="224"/>
      <point x="103" y="172"/>
    </contour>
  </outline>
</glyph>
<glyph name="candraBinducomb" format="2">
  <unicode hex="0310"/>
  <anchor x="57" y="536" name="_top"/>
  <anchor x="134" y="882" name="top"/>
  <outline>
    <contour>
      <point x="88" y="614" type="curve" smooth="yes"/>
      <point x="183" y="614"/>
      <point x="227" y="684"/>
      <point x="242" y="761" type="curve"/>
      <point x="232" y="761" type="line"/>
      <point x="211" y="716"/>
      <point x="174" y="694"/>
      <point x="96" y="694" type="curve" smooth="yes"/>
      <point x="26" y="694"/>
      <point x="-14" y="720"/>
      <point x="-23" y="761" type="curve"/>
      <point x="-33" y="761" type="line"/>
      <point x="-33" y="672"/>
      <point x="8" y="614"/>
    </contour>
    <contour>
      <point x="103" y="757" type="curve" smooth="yes"/>
      <point x="132" y="757"/>
      <point x="163" y="775"/>
      <point x="163" y="827" type="curve" smooth="yes"/>
      <point x="163" y="864"/>
      <point x="140" y="882"/>
      <point x="108" y="882" type="curve" smooth="yes"/>
      <point x="71" y="882"/>
      <point x="48" y="854"/>
      <point x="48" y="812" type="curve" smooth="yes"/>
      <point x="48" y="775"/>
      <point x="70" y="757"/>
    </contour>
  </outline>
</glyph>
<glyph name="breveinvertedcomb" format="2">
  <unicode hex="0311"/>
  <anchor x="57" y="536" name="_top"/>
  <anchor x="105" y="763" name="top"/>
  <outline>
    <contour>
      <point x="-74" y="614" type="curve"/>
      <point x="-64" y="614" type="line"/>
      <point x="-43" y="659"/>
      <point x="-6" y="681"/>
      <point x="72" y="681" type="curve" smooth="yes"/>
      <point x="142" y="681"/>
      <point x="182" y="655"/>
      <point x="191" y="614" type="curve"/>
      <point x="201" y="614" type="line"/>
      <point x="201" y="703"/>
      <point x="160" y="761"/>
      <point x="80" y="761" type="curve" smooth="yes"/>
      <point x="-15" y="761"/>
      <point x="-59" y="691"/>
    </contour>
  </outline>
</glyph>
<glyph name="righttackbelowcomb" format="2">
  <unicode hex="0319"/>
  <anchor x="-57" y="0" name="_bottom"/>
  <anchor x="-102" y="-212" name="bottom"/>
  <outline>
    <contour>
      <point x="-169" y="-211" type="line"/>
      <point x="-149" y="-211" type="line"/>
      <point x="-133" y="-135" type="line"/>
      <point x="-17" y="-135" type="line"/>
      <point x="-13" y="-115" type="line"/>
      <point x="-129" y="-115" type="line"/>
      <point x="-113" y="-38" type="line"/>
      <point x="-133" y="-38" type="line"/>
    </contour>
  </outline>
</glyph>
<glyph name="horncomb" format="2">
  <unicode hex="031B"/>
  <anchor x="57" y="536" name="_topright"/>
  <outline>
    <contour>
      <point x="-39" y="546" type="line"/>
      <point x="85" y="562"/>
      <point x="162" y="628"/>
      <point x="162" y="707" type="curve" smooth="yes"/>
      <point x="162" y="742"/>
      <point x="140" y="773"/>
      <point x="85" y="773" type="curve" smooth="yes"/>
      <point x="41" y="773"/>
      <point x="12" y="750"/>
      <point x="12" y="710" type="curve" smooth="yes"/>
      <point x="12" y="658"/>
      <point x="72" y="657"/>
      <point x="72" y="625" type="curve" smooth="yes"/>
      <point x="72" y="583"/>
      <point x="16" y="566"/>
      <point x="-37" y="556" type="curve"/>
    </contour>
  </outline>
</glyph>
<glyph name="ringhalfleftbelowcomb" format="2">
  <unicode hex="031C"/>
  <anchor x="-57" y="0" name="_bottom"/>
  <anchor x="-109" y="-245" name="bottom"/>
  <outline>
    <contour>
      <point x="-46" y="-243" type="curve"/>
      <point x="-44" y="-231" type="line"/>
      <point x="-95" y="-225"/>
      <point x="-132" y="-198"/>
      <point x="-132" y="-136" type="curve" smooth="yes"/>
      <point x="-132" y="-65"/>
      <point x="-74" y="-33"/>
      <point x="-5" y="-33" type="curve"/>
      <point x="-2" y="-22" type="line"/>
      <point x="-85" y="-22"/>
      <point x="-145" y="-59"/>
      <point x="-145" y="-137" type="curve" smooth="yes"/>
      <point x="-145" y="-203"/>
      <point x="-103" y="-235"/>
    </contour>
  </outline>
</glyph>
<glyph name="minusbelowcomb" format="2">
  <unicode hex="0320"/>
  <anchor x="-60" y="0" name="_bottom"/>
  <anchor x="-85" y="-140" name="bottom"/>
  <outline>
    <contour>
      <point x="-193" y="-136" type="line"/>
      <point x="20" y="-136" type="line"/>
      <point x="24" y="-116" type="line"/>
      <point x="-189" y="-116" type="line"/>
    </contour>
  </outline>
</glyph>
<glyph name="commaaccent" format="2">
  <unicode hex="0326"/>
  <anchor x="-50" y="0" name="_bottom"/>
  <anchor x="-78" y="-221" name="bottom"/>
  <outline>
    <contour>
      <point x="-155" y="-210" type="curve"/>
      <point x="-155" y="-221" type="line"/>
      <point x="-141" y="-221" type="line"/>
      <point x="-98" y="-187"/>
      <point x="-25" y="-112"/>
      <point x="7" y="-71" type="curve"/>
      <point x="10" y="-61" type="line"/>
      <point x="-107" y="-61" type="line"/>
      <point x="-117" y="-111"/>
      <point x="-137" y="-169"/>
    </contour>
  </outline>
</glyph>
<glyph name="dbloverlinecomb" format="2">
  <unicode hex="033F"/>
  <anchor x="57" y="536" name="_top"/>
  <anchor x="131" y="886" name="top"/>
  <outline>
    <contour>
      <point x="-93" y="820" type="line"/>
      <point x="326" y="820" type="line"/>
      <point x="330" y="840" type="line"/>
      <point x="-89" y="840" type="line"/>
    </contour>
    <contour>
      <point x="-117" y="710" type="line"/>
      <point x="302" y="710" type="line"/>
      <point x="307" y="730" type="line"/>
      <point x="-112" y="730" type="line"/>
    </contour>
  </outline>
</glyph>
<glyph name="koroniscomb" format="2">
  <unicode hex="0343"/>
  <anchor x="45" y="536" name="_top"/>
  <anchor x="68" y="714" name="top"/>
  <outline>
    <contour>
      <point x="-12" y="567" type="curve"/>
      <point x="-15" y="554" type="line"/>
      <point x="-2" y="554" type="line"/>
      <point x="63" y="598"/>
      <point x="131" y="661"/>
      <point x="158" y="704" type="curve"/>
      <point x="161" y="714" type="line"/>
      <point x="35" y="714" type="line"/>
      <point x="27" y="666"/>
      <point x="11" y="612"/>
    </contour>
  </outline>
</glyph>
